Moonface-Regular.ufo
<glyph name="comma" format="1">
	<unicode hex="002C"/>
	<advance width="180"/>
	<outline>
		<contour>
			<point x="134" y="-110" type="line"/>
			<point x="153" y="-79"/>
			<point x="178" y="24"/>
			<point x="167" y="91" type="curve"/>
			<point x="40" y="90" type="line"/>
			<point x="48" y="39"/>
			<point x="49" y="-47"/>
			<point x="40" y="-95" type="curve"/>
		</contour>
	</outline>
</glyph>
<glyph name="hyphen" format="1">
  <advance width="414"/>
  <unicode hex="002D"/>
  <outline>
    <contour>
      <point x="10" y="203" type="line"/>
      <point x="404" y="203" type="line"/>
      <point x="404" y="321" type="line"/>
      <point x="10" y="321" type="line"/>
    </contour>
  </outline>
</glyph>
<glyph name="NameMe.31" format="1">
  <advance width="569"/>
  <unicode hex="0053"/>
  <outline>
    <contour>
      <point x="533" y="599" type="line"/>
      <point x="504" y="625"/>
      <point x="441" y="669"/>
      <point x="346" y="669" type="curve" smooth="yes"/>
      <point x="197" y="669"/>
      <point x="135" y="567"/>
      <point x="135" y="482" type="curve" smooth="yes"/>
      <point x="135" y="284"/>
      <point x="419" y="306"/>
      <point x="419" y="164" type="curve" smooth="yes"/>
      <point x="419" y="114"/>
      <point x="374" y="81"/>
      <point x="306" y="81" type="curve" smooth="yes"/>
      <point x="209" y="81"/>
      <point x="135" y="135"/>
      <point x="135" y="135" type="curve"/>
      <point x="121" y="81"/>
      <point x="117" y="69"/>
      <point x="111" y="21" type="curve"/>
      <point x="111" y="21"/>
      <point x="181" y="-26"/>
      <point x="298" y="-26" type="curve" smooth="yes"/>
      <point x="472" y="-26"/>
      <point x="533" y="57"/>
      <point x="535" y="163" type="curve" smooth="yes"/>
      <point x="539" y="388"/>
      <point x="249" y="374"/>
      <point x="249" y="495" type="curve" smooth="yes"/>
      <point x="249" y="546"/>
      <point x="291" y="571"/>
      <point x="336" y="571" type="curve" smooth="yes"/>
      <point x="406" y="571"/>
      <point x="460" y="543"/>
      <point x="497" y="509" type="curve"/>
    </contour>
  </outline>
</glyph>
<glyph name="W" format="1">
  <advance width="708"/>
  <unicode hex="0057"/>
  <outline>
    <contour>
      <point x="226" y="2" type="line"/>
      <point x="203" y="252" type="line"/>
      <point x="132" y="479" type="line"/>
      <point x="5" y="479" type="line"/>
      <point x="156" y="2" type="line"/>
    </contour>
    <contour>
      <point x="271" y="2" type="line"/>
      <point x="433" y="479" type="line"/>
      <point x="325" y="479" type="line"/>
      <point x="196" y="90" type="line"/>
      <point x="165" y="2" type="line"/>
    </contour>
    <contour>
      <point x="496" y="2" type="line"/>
      <point x="473" y="252" type="line"/>
      <point x="402" y="479" type="line"/>
      <point x="275" y="479" type="line"/>
      <point x="426" y="2" type="line"/>
    </contour>
    <contour>
      <point x="541" y="2" type="line"/>
      <point x="703" y="479" type="line"/>
      <point x="595" y="479" type="line"/>
      <point x="466" y="90" type="line"/>
      <point x="435" y="2" type="line"/>
    </contour>
  </outline>
</glyph>
<glyph name="a" format="1">
  <advance width="505"/>
  <unicode hex="0061"/>
  <outline>
    <contour>
      <point x="322" y="228" type="line"/>
      <point x="373" y="181" type="line"/>
      <point x="333" y="211"/>
      <point x="290" y="216"/>
      <point x="255" y="216" type="curve" smooth="yes"/>
      <point x="190" y="215"/>
      <point x="145" y="190"/>
      <point x="145" y="148" type="curve" smooth="yes"/>
      <point x="145" y="116"/>
      <point x="172" y="96"/>
      <point x="216" y="96" type="curve" smooth="yes"/>
      <point x="270" y="96"/>
      <point x="320" y="131"/>
      <point x="322" y="184" type="curve"/>
    </contour>
    <contour>
      <point x="275" y="496" type="curve" smooth="yes"/>
      <point x="382" y="496"/>
      <point x="434" y="440"/>
      <point x="434" y="352" type="curve" smooth="yes"/>
      <point x="434" y="273"/>
      <point x="436" y="107"/>
      <point x="437" y="0" type="curve"/>
      <point x="335" y="0" type="line"/>
      <point x="333" y="69" type="line"/>
      <point x="329" y="69"/>
      <point x="325" y="56"/>
      <point x="321" y="52" type="curve"/>
      <point x="335" y="108" type="line"/>
      <point x="349" y="96" type="line"/>
      <point x="335" y="45"/>
      <point x="270" y="-6"/>
      <point x="194" y="-6" type="curve" smooth="yes"/>
      <point x="81" y="-6"/>
      <point x="40" y="68"/>
      <point x="40" y="136" type="curve" smooth="yes"/>
      <point x="40" y="250"/>
      <point x="141" y="312"/>
      <point x="259" y="312" type="curve" smooth="yes"/>
      <point x="305" y="312"/>
      <point x="338" y="303"/>
      <point x="362" y="298" type="curve"/>
      <point x="320" y="244" type="line"/>
      <point x="320" y="323" type="line"/>
      <point x="320" y="381"/>
      <point x="278" y="387"/>
      <point x="240" y="387" type="curve" smooth="yes"/>
      <point x="203" y="387"/>
      <point x="155" y="378"/>
      <point x="105" y="350" type="curve"/>
      <point x="75" y="443" type="line"/>
      <point x="122" y="468"/>
      <point x="192" y="496"/>
    </contour>
  </outline>
</glyph>
<glyph name="b" format="1">
  <advance width="525"/>
  <unicode hex="0062"/>
  <outline>
    <contour>
      <point x="172" y="100" type="line"/>
      <point x="172" y="682" type="line"/>
      <point x="52" y="682" type="line"/>
      <point x="54" y="170" type="line"/>
      <point x="54" y="114"/>
      <point x="53" y="87"/>
      <point x="52" y="31" type="curve"/>
      <point x="162" y="1" type="line"/>
    </contour>
    <contour>
      <point x="52" y="31" type="line"/>
      <point x="125" y="0"/>
      <point x="206" y="-6"/>
      <point x="233" y="-6" type="curve" smooth="yes"/>
      <point x="405" y="-6"/>
      <point x="465" y="108"/>
      <point x="465" y="257" type="curve" smooth="yes"/>
      <point x="465" y="407"/>
      <point x="374" y="484"/>
      <point x="261" y="484" type="curve" smooth="yes"/>
      <point x="176" y="484"/>
      <point x="116" y="433"/>
      <point x="79" y="383" type="curve"/>
      <point x="137" y="314" type="line"/>
      <point x="158" y="360"/>
      <point x="215" y="374"/>
      <point x="245" y="374" type="curve" smooth="yes"/>
      <point x="297" y="374"/>
      <point x="355" y="334"/>
      <point x="355" y="221" type="curve" smooth="yes"/>
      <point x="355" y="168"/>
      <point x="337" y="92"/>
      <point x="259" y="92" type="curve" smooth="yes"/>
      <point x="222" y="92"/>
      <point x="170" y="104"/>
      <point x="172" y="141" type="curve"/>
    </contour>
  </outline>
</glyph>
<glyph name="c" format="1">
  <advance width="442"/>
  <unicode hex="0063"/>
  <outline>
    <contour>
      <point x="422" y="432" type="line"/>
      <point x="396" y="452"/>
      <point x="350" y="482"/>
      <point x="266" y="482" type="curve" smooth="yes"/>
      <point x="133" y="482"/>
      <point x="36" y="390"/>
      <point x="36" y="223" type="curve" smooth="yes"/>
      <point x="36" y="60"/>
      <point x="132" y="-19"/>
      <point x="273" y="-19" type="curve" smooth="yes"/>
      <point x="347" y="-19"/>
      <point x="407" y="19"/>
      <point x="426" y="51" type="curve"/>
      <point x="396" y="126" type="line"/>
      <point x="362" y="104"/>
      <point x="338" y="91"/>
      <point x="292" y="91" type="curve" smooth="yes"/>
      <point x="218" y="91"/>
      <point x="163" y="134"/>
      <point x="162" y="227" type="curve" smooth="yes"/>
      <point x="161" y="321"/>
      <point x="213" y="372"/>
      <point x="285" y="372" type="curve" smooth="yes"/>
      <point x="319" y="372"/>
      <point x="358" y="357"/>
      <point x="383" y="341" type="curve"/>
    </contour>
  </outline>
</glyph>
<glyph name="d" format="1">
  <advance width="498"/>
  <unicode hex="0064"/>
  <outline>
    <contour>
      <point x="438" y="0" type="line"/>
      <point x="437" y="56"/>
      <point x="436" y="113"/>
      <point x="436" y="169" type="curve"/>
      <point x="438" y="680" type="line"/>
      <point x="318" y="680" type="line"/>
      <point x="318" y="99" type="line"/>
      <point x="328" y="0" type="line"/>
    </contour>
    <contour>
      <point x="320" y="123"/>
      <point x="278" y="99"/>
      <point x="241" y="99" type="curve" smooth="yes"/>
      <point x="163" y="99"/>
      <point x="145" y="177"/>
      <point x="145" y="230" type="curve" smooth="yes"/>
      <point x="145" y="342"/>
      <point x="192" y="372"/>
      <point x="244" y="372" type="curve" smooth="yes"/>
      <point x="274" y="372"/>
      <point x="332" y="358"/>
      <point x="353" y="312" type="curve"/>
      <point x="411" y="381" type="line"/>
      <point x="374" y="431"/>
      <point x="314" y="482"/>
      <point x="229" y="482" type="curve" smooth="yes"/>
      <point x="116" y="482"/>
      <point x="25" y="405"/>
      <point x="25" y="225" type="curve" smooth="yes"/>
      <point x="25" y="107"/>
      <point x="75" y="-7"/>
      <point x="217" y="-7" type="curve" smooth="yes"/>
      <point x="284" y="-7"/>
      <point x="344" y="42"/>
      <point x="361" y="125" type="curve"/>
      <point x="318" y="180" type="line"/>
    </contour>
  </outline>
</glyph>
<glyph name="e" format="1">
  <advance width="501"/>
  <unicode hex="0065"/>
  <outline>
    <contour>
      <point x="139" y="207" type="line"/>
      <point x="457" y="207" type="line"/>
      <point x="467" y="360"/>
      <point x="408" y="486"/>
      <point x="260" y="486" type="curve" smooth="yes"/>
      <point x="137" y="486"/>
      <point x="41" y="390"/>
      <point x="41" y="225" type="curve" smooth="yes"/>
      <point x="41" y="60"/>
      <point x="145" y="-19"/>
      <point x="270" y="-19" type="curve" smooth="yes"/>
      <point x="348" y="-19"/>
      <point x="411" y="13"/>
      <point x="438" y="53" type="curve"/>
      <point x="406" y="125" type="line"/>
      <point x="372" y="103"/>
      <point x="343" y="87"/>
      <point x="296" y="87" type="curve" smooth="yes"/>
      <point x="223" y="87"/>
      <point x="166" y="121"/>
      <point x="163" y="214" type="curve"/>
      <point x="161" y="257" type="line"/>
      <point x="161" y="276" type="line"/>
      <point x="161" y="328"/>
      <point x="192" y="391"/>
      <point x="253" y="391" type="curve" smooth="yes"/>
      <point x="307" y="391"/>
      <point x="341" y="350"/>
      <point x="340" y="293" type="curve"/>
      <point x="102" y="293" type="line"/>
    </contour>
  </outline>
</glyph>
<glyph name="g" format="1">
  <advance width="490"/>
  <unicode hex="0067"/>
  <outline>
    <contour>
      <point x="318" y="21"/>
      <point x="355" y="87"/>
      <point x="385" y="125" type="curve"/>
      <point x="435" y="242" type="line"/>
      <point x="435" y="352"/>
      <point x="371" y="489"/>
      <point x="220" y="489" type="curve" smooth="yes"/>
      <point x="110" y="489"/>
      <point x="26" y="387"/>
      <point x="26" y="241" type="curve" smooth="yes"/>
      <point x="26" y="117"/>
      <point x="87" y="21"/>
      <point x="223" y="21" type="curve" smooth="yes"/>
    </contour>
    <contour>
      <point x="195" y="118"/>
      <point x="140" y="155"/>
      <point x="140" y="238" type="curve" smooth="yes"/>
      <point x="140" y="322"/>
      <point x="178" y="382"/>
      <point x="248" y="382" type="curve" smooth="yes"/>
      <point x="279" y="382"/>
      <point x="330" y="362"/>
      <point x="343" y="341" type="curve"/>
      <point x="332" y="224" type="line"/>
      <point x="332" y="147"/>
      <point x="280" y="118"/>
      <point x="240" y="118" type="curve" smooth="yes"/>
    </contour>
    <contour>
      <point x="322" y="435"/>
      <point x="337" y="115"/>
      <point x="335" y="22" type="curve" smooth="yes"/>
      <point x="334" y="-37"/>
      <point x="314" y="-86"/>
      <point x="249" y="-89" type="curve" smooth="yes"/>
      <point x="178" y="-92"/>
      <point x="122" y="-72"/>
      <point x="67" y="-47" type="curve"/>
      <point x="31" y="-142" type="line"/>
      <point x="85" y="-179"/>
      <point x="174" y="-201"/>
      <point x="263" y="-199" type="curve" smooth="yes"/>
      <point x="360" y="-197"/>
      <point x="450" y="-141"/>
      <point x="445" y="-2" type="curve" smooth="yes"/>
      <point x="442" y="89"/>
      <point x="439" y="411"/>
      <point x="436" y="492" type="curve"/>
      <point x="327" y="490" type="line"/>
    </contour>
  </outline>
</glyph>
<glyph name="h" format="1">
  <advance width="529"/>
  <unicode hex="0068"/>
  <outline>
    <contour>
      <point x="474" y="0" type="line"/>
      <point x="474" y="126"/>
      <point x="474" y="242"/>
      <point x="474" y="355" type="curve"/>
      <point x="474" y="442"/>
      <point x="407" y="487"/>
      <point x="334" y="487" type="curve" smooth="yes"/>
      <point x="253" y="487"/>
      <point x="187" y="436"/>
      <point x="152" y="386" type="curve"/>
      <point x="180" y="287" type="line"/>
      <point x="199" y="333"/>
      <point x="252" y="366"/>
      <point x="289" y="366" type="curve" smooth="yes"/>
      <point x="321" y="366"/>
      <point x="350" y="351"/>
      <point x="354" y="309" type="curve" smooth="yes"/>
      <point x="359" y="253"/>
      <point x="357" y="110"/>
      <point x="357" y="0" type="curve"/>
    </contour>
    <contour>
      <point x="183" y="0" type="line"/>
      <point x="180" y="111"/>
      <point x="180" y="264"/>
      <point x="181" y="394" type="curve"/>
      <point x="171" y="406" type="line"/>
      <point x="170" y="680" type="line"/>
      <point x="60" y="680" type="line"/>
      <point x="60" y="514"/>
      <point x="61" y="161"/>
      <point x="63" y="0" type="curve"/>
    </contour>
  </outline>
</glyph>
<glyph name="i" format="1">
  <advance width="278"/>
  <unicode hex="0069"/>
  <outline>
    <contour>
      <point x="52" y="630" type="curve" smooth="yes"/>
      <point x="52" y="669"/>
      <point x="83" y="700"/>
      <point x="122" y="700" type="curve" smooth="yes"/>
      <point x="161" y="700"/>
      <point x="192" y="669"/>
      <point x="192" y="630" type="curve" smooth="yes"/>
      <point x="192" y="591"/>
      <point x="161" y="560"/>
      <point x="122" y="560" type="curve" smooth="yes"/>
      <point x="83" y="560"/>
      <point x="52" y="591"/>
    </contour>
    <contour>
      <point x="69" y="479" type="curve"/>
      <point x="183" y="479" type="line"/>
      <point x="178" y="313"/>
      <point x="188" y="73"/>
      <point x="192" y="0" type="curve"/>
      <point x="73" y="0" type="line"/>
      <point x="73" y="158"/>
      <point x="72" y="318"/>
    </contour>
  </outline>
</glyph>
<glyph name="j" format="1">
	<unicode hex="006A"/>
	<advance width="268"/>
	<outline>
		<contour>
			<point x="154" y="549" type="curve" smooth="yes"/>
			<point x="196" y="549"/>
			<point x="228" y="582"/>
			<point x="228" y="623" type="curve" smooth="yes"/>
			<point x="228" y="665"/>
			<point x="196" y="698"/>
			<point x="154" y="698" type="curve" smooth="yes"/>
			<point x="112" y="698"/>
			<point x="80" y="665"/>
			<point x="80" y="623" type="curve" smooth="yes"/>
			<point x="80" y="582"/>
			<point x="112" y="549"/>
		</contour>
		<contour>
			<point x="88" y="-147" type="curve" smooth="yes"/>
			<point x="179" y="-147"/>
			<point x="218" y="-103"/>
			<point x="218" y="-26" type="curve"/>
			<point x="217" y="324" type="line"/>
			<point x="217" y="486" type="line"/>
			<point x="100" y="483" type="line"/>
			<point x="104" y="17" type="line" smooth="yes"/>
			<point x="104" y="-12"/>
			<point x="98" y="-48"/>
			<point x="49" y="-48" type="curve" smooth="yes"/>
			<point x="22" y="-48"/>
			<point x="0" y="-39"/>
			<point x="0" y="-39" type="curve"/>
			<point x="-13" y="-121" type="line"/>
			<point x="10" y="-135"/>
			<point x="51" y="-147"/>
		</contour>
	</outline>
</glyph>
<glyph name="k" format="1">
  <advance width="521"/>
  <unicode hex="006B"/>
  <outline>
    <contour>
      <point x="511" y="0" type="line"/>
      <point x="437" y="88"/>
      <point x="233" y="326"/>
      <point x="171" y="403" type="curve"/>
      <point x="85" y="331" type="line"/>
      <point x="151" y="256"/>
      <point x="301" y="69"/>
      <point x="358" y="0" type="curve"/>
    </contour>
    <contour>
      <point x="179" y="0" type="line"/>
      <point x="181" y="680" type="line"/>
      <point x="58" y="678" type="line"/>
      <point x="62" y="0" type="line"/>
    </contour>
    <contour>
      <point x="463" y="477" type="curve"/>
      <point x="331" y="477" type="line"/>
      <point x="295" y="421"/>
      <point x="236" y="323"/>
      <point x="215" y="292" type="curve"/>
      <point x="303" y="230" type="line"/>
      <point x="331" y="271"/>
      <point x="410" y="397"/>
    </contour>
  </outline>
</glyph>
<glyph name="l" format="1">
  <advance width="230"/>
  <unicode hex="006C"/>
  <outline>
    <contour>
      <point x="176" y="0" type="line"/>
      <point x="178" y="678" type="line"/>
      <point x="52" y="676" type="line"/>
      <point x="56" y="0" type="line"/>
    </contour>
  </outline>
</glyph>
<glyph name="m" format="1">
  <advance width="841"/>
  <unicode hex="006D"/>
  <outline>
    <contour>
      <point x="50" y="479" type="curve"/>
      <point x="157" y="479" type="line"/>
      <point x="158" y="406" type="line"/>
      <point x="168" y="394" type="line"/>
      <point x="167" y="264"/>
      <point x="167" y="111"/>
      <point x="170" y="0" type="curve"/>
      <point x="53" y="0" type="line"/>
      <point x="51" y="161"/>
      <point x="50" y="318"/>
    </contour>
    <contour>
      <point x="467" y="355" type="curve"/>
      <point x="467" y="242"/>
      <point x="467" y="126"/>
      <point x="467" y="0" type="curve"/>
      <point x="350" y="0" type="line"/>
      <point x="350" y="110"/>
      <point x="352" y="253"/>
      <point x="347" y="309" type="curve" smooth="yes"/>
      <point x="343" y="351"/>
      <point x="314" y="366"/>
      <point x="282" y="366" type="curve" smooth="yes"/>
      <point x="242" y="366"/>
      <point x="188" y="333"/>
      <point x="167" y="287" type="curve"/>
      <point x="139" y="386" type="line"/>
      <point x="176" y="436"/>
      <point x="259" y="486"/>
      <point x="341" y="486" type="curve" smooth="yes"/>
      <point x="412" y="486"/>
      <point x="467" y="442"/>
    </contour>
    <contour>
      <point x="772" y="355" type="curve"/>
      <point x="772" y="242"/>
      <point x="772" y="126"/>
      <point x="772" y="0" type="curve"/>
      <point x="655" y="0" type="line"/>
      <point x="655" y="110"/>
      <point x="657" y="253"/>
      <point x="652" y="309" type="curve" smooth="yes"/>
      <point x="648" y="351"/>
      <point x="619" y="366"/>
      <point x="587" y="366" type="curve" smooth="yes"/>
      <point x="547" y="366"/>
      <point x="483" y="333"/>
      <point x="462" y="287" type="curve"/>
      <point x="434" y="386" type="line"/>
      <point x="471" y="436"/>
      <point x="547" y="487"/>
      <point x="632" y="487" type="curve" smooth="yes"/>
      <point x="705" y="487"/>
      <point x="772" y="442"/>
    </contour>
  </outline>
</glyph>
<glyph name="n" format="1">
  <advance width="546"/>
  <unicode hex="006E"/>
  <outline>
    <contour>
      <point x="50" y="479" type="curve"/>
      <point x="157" y="479" type="line"/>
      <point x="158" y="406" type="line"/>
      <point x="168" y="394" type="line"/>
      <point x="167" y="264"/>
      <point x="167" y="111"/>
      <point x="170" y="0" type="curve"/>
      <point x="53" y="0" type="line"/>
      <point x="51" y="161"/>
      <point x="50" y="318"/>
    </contour>
    <contour>
      <point x="477" y="355" type="curve"/>
      <point x="477" y="242"/>
      <point x="477" y="126"/>
      <point x="477" y="0" type="curve"/>
      <point x="360" y="0" type="line"/>
      <point x="360" y="110"/>
      <point x="362" y="253"/>
      <point x="357" y="309" type="curve" smooth="yes"/>
      <point x="353" y="351"/>
      <point x="324" y="366"/>
      <point x="292" y="366" type="curve" smooth="yes"/>
      <point x="252" y="366"/>
      <point x="188" y="333"/>
      <point x="167" y="287" type="curve"/>
      <point x="139" y="386" type="line"/>
      <point x="176" y="436"/>
      <point x="252" y="487"/>
      <point x="337" y="487" type="curve" smooth="yes"/>
      <point x="410" y="487"/>
      <point x="477" y="442"/>
    </contour>
  </outline>
</glyph>
<glyph name="o" format="1">
  <advance width="561"/>
  <unicode hex="006F"/>
  <outline>
    <contour>
      <point x="154" y="243" type="curve" smooth="yes"/>
      <point x="154" y="157"/>
      <point x="208" y="104"/>
      <point x="279" y="104" type="curve" smooth="yes"/>
      <point x="347" y="104"/>
      <point x="399" y="165"/>
      <point x="399" y="250" type="curve" smooth="yes"/>
      <point x="399" y="342"/>
      <point x="336" y="384"/>
      <point x="278" y="384" type="curve" smooth="yes"/>
      <point x="217" y="384"/>
      <point x="154" y="334"/>
    </contour>
    <contour>
      <point x="43" y="235" type="curve" smooth="yes"/>
      <point x="43" y="394"/>
      <point x="152" y="489"/>
      <point x="283" y="489" type="curve" smooth="yes"/>
      <point x="451" y="489"/>
      <point x="516" y="372"/>
      <point x="516" y="244" type="curve" smooth="yes"/>
      <point x="516" y="99"/>
      <point x="432" y="-9"/>
      <point x="273" y="-9" type="curve" smooth="yes"/>
      <point x="135" y="-9"/>
      <point x="43" y="101"/>
    </contour>
  </outline>
</glyph>
<glyph name="p" format="1">
  <advance width="520"/>
  <unicode hex="0070"/>
  <outline>
    <contour>
      <point x="48" y="480" type="line"/>
      <point x="49" y="424"/>
      <point x="49" y="364"/>
      <point x="49" y="308" type="curve"/>
      <point x="47" y="-203" type="line"/>
      <point x="167" y="-203" type="line"/>
      <point x="167" y="378" type="line"/>
      <point x="158" y="480" type="line"/>
    </contour>
    <contour>
      <point x="165" y="354"/>
      <point x="207" y="378"/>
      <point x="244" y="378" type="curve" smooth="yes"/>
      <point x="322" y="378"/>
      <point x="340" y="300"/>
      <point x="340" y="247" type="curve" smooth="yes"/>
      <point x="340" y="134"/>
      <point x="293" y="104"/>
      <point x="241" y="104" type="curve" smooth="yes"/>
      <point x="211" y="104"/>
      <point x="153" y="118"/>
      <point x="132" y="164" type="curve"/>
      <point x="74" y="95" type="line"/>
      <point x="111" y="45"/>
      <point x="171" y="-6"/>
      <point x="256" y="-6" type="curve" smooth="yes"/>
      <point x="369" y="-6"/>
      <point x="460" y="71"/>
      <point x="460" y="251" type="curve" smooth="yes"/>
      <point x="460" y="370"/>
      <point x="410" y="484"/>
      <point x="268" y="484" type="curve" smooth="yes"/>
      <point x="201" y="484"/>
      <point x="141" y="435"/>
      <point x="124" y="352" type="curve"/>
      <point x="167" y="297" type="line"/>
    </contour>
  </outline>
</glyph>
<glyph name="q" format="1">
	<unicode hex="0071"/>
	<advance width="502"/>
	<outline>
		<contour>
			<point x="344" y="480" type="line"/>
			<point x="335" y="378" type="line"/>
			<point x="335" y="-173" type="line"/>
			<point x="455" y="-173" type="line"/>
			<point x="453" y="308" type="line"/>
			<point x="453" y="364"/>
			<point x="453" y="428"/>
			<point x="454" y="484" type="curve"/>
		</contour>
		<contour>
			<point x="335" y="292" type="curve"/>
			<point x="378" y="352" type="line"/>
			<point x="361" y="435"/>
			<point x="301" y="484"/>
			<point x="218" y="484" type="curve" smooth="yes"/>
			<point x="92" y="484"/>
			<point x="40" y="372"/>
			<point x="40" y="247" type="curve" smooth="yes"/>
			<point x="40" y="71"/>
			<point x="130" y="-6"/>
			<point x="246" y="-6" type="curve" smooth="yes"/>
			<point x="331" y="-6"/>
			<point x="391" y="45"/>
			<point x="428" y="95" type="curve"/>
			<point x="370" y="164" type="line"/>
			<point x="349" y="118"/>
			<point x="291" y="104"/>
			<point x="261" y="104" type="curve" smooth="yes"/>
			<point x="209" y="104"/>
			<point x="163" y="134"/>
			<point x="163" y="243" type="curve" smooth="yes"/>
			<point x="163" y="300"/>
			<point x="180" y="378"/>
			<point x="258" y="378" type="curve" smooth="yes"/>
			<point x="295" y="378"/>
			<point x="337" y="349"/>
		</contour>
	</outline>
</glyph>
<glyph name="r" format="1">
  <advance width="395"/>
  <unicode hex="0072"/>
  <outline>
    <contour>
      <point x="192" y="277" type="curve"/>
      <point x="166" y="358" type="line"/>
      <point x="171" y="367"/>
      <point x="180" y="400"/>
      <point x="191" y="414" type="curve"/>
      <point x="194" y="410"/>
      <point x="198" y="404"/>
      <point x="201" y="407" type="curve"/>
      <point x="242" y="458"/>
      <point x="301" y="515"/>
      <point x="397" y="474" type="curve"/>
      <point x="363" y="347" type="line"/>
      <point x="253" y="386"/>
      <point x="206" y="318"/>
    </contour>
    <contour>
      <point x="76" y="482" type="line"/>
      <point x="194" y="484" type="line"/>
      <point x="191" y="409" type="line"/>
      <point x="194" y="364" type="line"/>
      <point x="193" y="241"/>
      <point x="188" y="108"/>
      <point x="194" y="0" type="curve"/>
      <point x="80" y="0" type="line"/>
    </contour>
  </outline>
</glyph>
<glyph name="s" format="1">
  <advance width="386"/>
  <unicode hex="0073"/>
  <outline>
    <contour>
      <point x="304" y="-20"/>
      <point x="354" y="36"/>
      <point x="355" y="112" type="curve" smooth="yes"/>
      <point x="357" y="249"/>
      <point x="166" y="294"/>
      <point x="166" y="354" type="curve" smooth="yes"/>
      <point x="166" y="373"/>
      <point x="182" y="386"/>
      <point x="209" y="386" type="curve" smooth="yes"/>
      <point x="242" y="386"/>
      <point x="277" y="374"/>
      <point x="315" y="353" type="curve"/>
      <point x="351" y="446" type="line"/>
      <point x="328" y="462"/>
      <point x="273" y="485"/>
      <point x="207" y="485" type="curve" smooth="yes"/>
      <point x="88" y="485"/>
      <point x="43" y="420"/>
      <point x="43" y="349" type="curve" smooth="yes"/>
      <point x="43" y="208"/>
      <point x="229" y="195"/>
      <point x="229" y="119" type="curve" smooth="yes"/>
      <point x="229" y="98"/>
      <point x="212" y="84"/>
      <point x="181" y="84" type="curve" smooth="yes"/>
      <point x="124" y="84"/>
      <point x="83" y="114"/>
      <point x="61" y="126" type="curve"/>
      <point x="25" y="29" type="line"/>
      <point x="48" y="13"/>
      <point x="111" y="-20"/>
      <point x="205" y="-20" type="curve" smooth="yes"/>
    </contour>
  </outline>
</glyph>
<glyph name="t" format="1">
  <advance width="389"/>
  <unicode hex="0074"/>
  <outline>
    <contour>
      <point x="59" y="466" type="line"/>
      <point x="330" y="466" type="line"/>
      <point x="330" y="358" type="line"/>
      <point x="59" y="358" type="line"/>
    </contour>
    <contour>
      <point x="124" y="632" type="line"/>
      <point x="139" y="636"/>
      <point x="191" y="634"/>
      <point x="232" y="634" type="curve"/>
      <point x="232" y="474" type="line"/>
      <point x="231" y="443" type="line"/>
      <point x="224" y="184" type="line"/>
      <point x="224" y="155"/>
      <point x="223" y="98"/>
      <point x="264" y="96" type="curve" smooth="yes"/>
      <point x="287" y="95"/>
      <point x="328" y="106"/>
      <point x="328" y="106" type="curve"/>
      <point x="341" y="10" type="line"/>
      <point x="326" y="-11"/>
      <point x="257" y="-18"/>
      <point x="228" y="-16" type="curve" smooth="yes"/>
      <point x="149" y="-12"/>
      <point x="110" y="28"/>
      <point x="110" y="105" type="curve"/>
      <point x="115" y="455" type="line"/>
    </contour>
  </outline>
</glyph>
<glyph name="v" format="1">
  <advance width="438"/>
  <unicode hex="0076"/>
  <outline>
    <contour>
      <point x="227" y="2" type="line"/>
      <point x="204" y="252" type="line"/>
      <point x="133" y="479" type="line"/>
      <point x="6" y="479" type="line"/>
      <point x="157" y="2" type="line"/>
    </contour>
    <contour>
      <point x="272" y="2" type="line"/>
      <point x="434" y="479" type="line"/>
      <point x="326" y="479" type="line"/>
      <point x="197" y="90" type="line"/>
      <point x="166" y="2" type="line"/>
    </contour>
  </outline>
</glyph>
<glyph name="w" format="1">
  <advance width="668"/>
  <unicode hex="0077"/>
  <outline>
    <contour>
      <point x="211" y="2" type="line"/>
      <point x="198" y="252" type="line"/>
      <point x="119" y="479" type="line"/>
      <point x="0" y="479" type="line"/>
      <point x="141" y="2" type="line"/>
    </contour>
    <contour>
      <point x="266" y="2" type="line"/>
      <point x="378" y="388" type="line"/>
      <point x="359" y="479" type="line"/>
      <point x="290" y="479" type="line"/>
      <point x="181" y="90" type="line"/>
      <point x="150" y="2" type="line"/>
    </contour>
    <contour>
      <point x="481" y="2" type="line"/>
      <point x="458" y="241" type="line"/>
      <point x="378" y="479" type="line"/>
      <point x="300" y="479" type="line"/>
      <point x="294" y="344" type="line"/>
      <point x="411" y="2" type="line"/>
    </contour>
    <contour>
      <point x="529" y="2" type="line"/>
      <point x="668" y="479" type="line"/>
      <point x="560" y="479" type="line"/>
      <point x="451" y="90" type="line"/>
      <point x="420" y="2" type="line"/>
    </contour>
  </outline>
</glyph>
<glyph name="y" format="1">
  <advance width="448"/>
  <unicode hex="0079"/>
  <outline>
    <contour>
      <point x="235" y="77" type="line"/>
      <point x="208" y="243" type="line"/>
      <point x="132" y="479" type="line"/>
      <point x="5" y="479" type="line"/>
      <point x="136" y="49" type="line"/>
    </contour>
    <contour>
      <point x="250" y="-166" type="line"/>
      <point x="453" y="479" type="line"/>
      <point x="327" y="479" type="line"/>
      <point x="126" y="-165" type="line"/>
    </contour>
  </outline>
</glyph>
<glyph name="tml_Anusvara" format="1">
	<unicode hex="0B82"/>
	<advance width="1"/>
	<outline>
		<contour>
			<point x="-105" y="702" type="curve" smooth="yes"/>
			<point x="-105" y="662"/>
			<point x="-77" y="596"/>
			<point x="0" y="596" type="curve" smooth="yes"/>
			<point x="41" y="596"/>
			<point x="106" y="626"/>
			<point x="106" y="702" type="curve" smooth="yes"/>
			<point x="106" y="722"/>
			<point x="100" y="741"/>
			<point x="89" y="758" type="curve" smooth="yes"/>
			<point x="68" y="791"/>
			<point x="39" y="807"/>
			<point x="0" y="807" type="curve" smooth="yes"/>
			<point x="-41" y="807"/>
			<point x="-105" y="778"/>
		</contour>
		<contour>
			<point x="62" y="702" type="curve" smooth="yes"/>
			<point x="62" y="693"/>
			<point x="60" y="683"/>
			<point x="55" y="674" type="curve" smooth="yes"/>
			<point x="43" y="651"/>
			<point x="24" y="640"/>
			<point x="-2" y="640" type="curve" smooth="yes"/>
			<point x="-11" y="640"/>
			<point x="-20" y="642"/>
			<point x="-29" y="647" type="curve"/>
			<point x="-51" y="658"/>
			<point x="-62" y="677"/>
			<point x="-62" y="702" type="curve" smooth="yes"/>
			<point x="-62" y="711"/>
			<point x="-60" y="719"/>
			<point x="-57" y="728" type="curve"/>
			<point x="-47" y="751"/>
			<point x="-29" y="763"/>
			<point x="-2" y="763" type="curve" smooth="yes"/>
			<point x="7" y="763"/>
			<point x="17" y="761"/>
			<point x="26" y="757" type="curve" smooth="yes"/>
			<point x="50" y="747"/>
			<point x="62" y="729"/>
		</contour>
	</outline>
	<note>
		tml_Anusvara
	</note>
</glyph>
<glyph name="tml_Visarga" format="1">
	<unicode hex="0B83"/>
	<advance width="760"/>
	<outline>
		<contour>
			<point x="512" y="282" type="curve" smooth="yes"/>
			<point x="512" y="219"/>
			<point x="466" y="141"/>
			<point x="371" y="141" type="curve" smooth="yes"/>
			<point x="308" y="141"/>
			<point x="229" y="187"/>
			<point x="229" y="282" type="curve" smooth="yes"/>
			<point x="229" y="343"/>
			<point x="275" y="423"/>
			<point x="371" y="423" type="curve" smooth="yes"/>
			<point x="434" y="423"/>
			<point x="512" y="377"/>
		</contour>
		<contour>
			<point x="277" y="284" type="curve" smooth="yes"/>
			<point x="277" y="267"/>
			<point x="282" y="250"/>
			<point x="291" y="235" type="curve" smooth="yes"/>
			<point x="310" y="205"/>
			<point x="336" y="190"/>
			<point x="371" y="190" type="curve" smooth="yes"/>
			<point x="388" y="190"/>
			<point x="405" y="195"/>
			<point x="420" y="204" type="curve"/>
			<point x="449" y="223"/>
			<point x="463" y="249"/>
			<point x="463" y="284" type="curve" smooth="yes"/>
			<point x="463" y="301"/>
			<point x="459" y="318"/>
			<point x="450" y="333" type="curve" smooth="yes"/>
			<point x="432" y="362"/>
			<point x="406" y="377"/>
			<point x="371" y="377" type="curve" smooth="yes"/>
			<point x="354" y="377"/>
			<point x="337" y="372"/>
			<point x="321" y="363" type="curve"/>
			<point x="292" y="345"/>
			<point x="277" y="319"/>
		</contour>
		<contour>
			<point x="711" y="-69" type="curve" smooth="yes"/>
			<point x="711" y="-132"/>
			<point x="665" y="-210"/>
			<point x="570" y="-210" type="curve" smooth="yes"/>
			<point x="507" y="-210"/>
			<point x="428" y="-164"/>
			<point x="428" y="-69" type="curve" smooth="yes"/>
			<point x="428" y="-8"/>
			<point x="474" y="72"/>
			<point x="570" y="72" type="curve" smooth="yes"/>
			<point x="633" y="72"/>
			<point x="711" y="26"/>
		</contour>
		<contour>
			<point x="476" y="-67" type="curve" smooth="yes"/>
			<point x="476" y="-84"/>
			<point x="481" y="-101"/>
			<point x="491" y="-117" type="curve" smooth="yes"/>
			<point x="510" y="-147"/>
			<point x="536" y="-162"/>
			<point x="570" y="-162" type="curve" smooth="yes"/>
			<point x="587" y="-162"/>
			<point x="604" y="-157"/>
			<point x="619" y="-147" type="curve" smooth="yes"/>
			<point x="648" y="-128"/>
			<point x="662" y="-101"/>
			<point x="662" y="-67" type="curve" smooth="yes"/>
			<point x="662" y="-50"/>
			<point x="658" y="-33"/>
			<point x="649" y="-18" type="curve" smooth="yes"/>
			<point x="631" y="11"/>
			<point x="605" y="26"/>
			<point x="570" y="26" type="curve" smooth="yes"/>
			<point x="553" y="26"/>
			<point x="536" y="21"/>
			<point x="520" y="12" type="curve"/>
			<point x="491" y="-6"/>
			<point x="476" y="-32"/>
		</contour>
		<contour>
			<point x="332" y="-69" type="curve" smooth="yes"/>
			<point x="332" y="-132"/>
			<point x="286" y="-210"/>
			<point x="191" y="-210" type="curve" smooth="yes"/>
			<point x="128" y="-210"/>
			<point x="49" y="-164"/>
			<point x="49" y="-69" type="curve" smooth="yes"/>
			<point x="49" y="-8"/>
			<point x="95" y="72"/>
			<point x="191" y="72" type="curve" smooth="yes"/>
			<point x="254" y="72"/>
			<point x="332" y="26"/>
		</contour>
		<contour>
			<point x="97" y="-67" type="curve" smooth="yes"/>
			<point x="97" y="-85"/>
			<point x="102" y="-102"/>
			<point x="112" y="-117" type="curve" smooth="yes"/>
			<point x="131" y="-147"/>
			<point x="157" y="-162"/>
			<point x="191" y="-162" type="curve" smooth="yes"/>
			<point x="208" y="-162"/>
			<point x="225" y="-157"/>
			<point x="240" y="-147" type="curve" smooth="yes"/>
			<point x="269" y="-128"/>
			<point x="283" y="-101"/>
			<point x="283" y="-67" type="curve" smooth="yes"/>
			<point x="283" y="-50"/>
			<point x="279" y="-33"/>
			<point x="270" y="-18" type="curve" smooth="yes"/>
			<point x="252" y="11"/>
			<point x="226" y="26"/>
			<point x="191" y="26" type="curve" smooth="yes"/>
			<point x="174" y="26"/>
			<point x="157" y="21"/>
			<point x="141" y="12" type="curve"/>
			<point x="112" y="-6"/>
			<point x="97" y="-32"/>
		</contour>
	</outline>
	<note>
		tml_Visarga
	</note>
</glyph>
<glyph name="tml_I" format="1">
	<unicode hex="0B87"/>
	<advance width="1005"/>
	<outline>
		<contour>
			<point x="509" y="524" type="curve" smooth="yes"/>
			<point x="481" y="524"/>
			<point x="456" y="519"/>
			<point x="433" y="508" type="curve"/>
			<point x="443" y="508" type="line" smooth="yes"/>
			<point x="495" y="508"/>
			<point x="563" y="469"/>
			<point x="563" y="376" type="curve" smooth="yes"/>
			<point x="563" y="352"/>
			<point x="558" y="330"/>
			<point x="547" y="310" type="curve" smooth="yes"/>
			<point x="524" y="269"/>
			<point x="487" y="249"/>
			<point x="436" y="249" type="curve" smooth="yes"/>
			<point x="412" y="249"/>
			<point x="390" y="254"/>
			<point x="370" y="265" type="curve" smooth="yes"/>
			<point x="327" y="288"/>
			<point x="305" y="328"/>
			<point x="305" y="385" type="curve" smooth="yes"/>
			<point x="305" y="472"/>
			<point x="372" y="573"/>
			<point x="513" y="573" type="curve" smooth="yes"/>
			<point x="622" y="573"/>
			<point x="746" y="498"/>
			<point x="746" y="307" type="curve" smooth="yes"/>
			<point x="746" y="252"/>
			<point x="734" y="196"/>
			<point x="711" y="141" type="curve"/>
			<point x="788" y="91"/>
			<point x="826" y="28"/>
			<point x="827" y="-48" type="curve" smooth="yes"/>
			<point x="827" y="-85"/>
			<point x="817" y="-116"/>
			<point x="796" y="-143" type="curve" smooth="yes"/>
			<point x="761" y="-188"/>
			<point x="704" y="-210"/>
			<point x="626" y="-210" type="curve" smooth="yes"/>
			<point x="560" y="-210"/>
			<point x="493" y="-193"/>
			<point x="424" y="-158" type="curve"/>
			<point x="355" y="-192"/>
			<point x="291" y="-209"/>
			<point x="230" y="-210" type="curve" smooth="yes"/>
			<point x="194" y="-210"/>
			<point x="162" y="-203"/>
			<point x="133" y="-190" type="curve" smooth="yes"/>
			<point x="12" y="-135"/>
			<point x="9" y="35"/>
			<point x="146" y="134" type="curve"/>
			<point x="114" y="206"/>
			<point x="98" y="282"/>
			<point x="98" y="361" type="curve" smooth="yes"/>
			<point x="98" y="565"/>
			<point x="212" y="754"/>
			<point x="525" y="754" type="curve" smooth="yes"/>
			<point x="596" y="754"/>
			<point x="658" y="744"/>
			<point x="711" y="724" type="curve" smooth="yes"/>
			<point x="874" y="663"/>
			<point x="955" y="501"/>
			<point x="955" y="239" type="curve" smooth="yes"/>
			<point x="955" y="0" type="line"/>
			<point x="904" y="0" type="line"/>
			<point x="904" y="223" type="line" smooth="yes"/>
			<point x="904" y="308"/>
			<point x="896" y="381"/>
			<point x="879" y="443" type="curve" smooth="yes"/>
			<point x="832" y="616"/>
			<point x="713" y="703"/>
			<point x="524" y="703" type="curve" smooth="yes"/>
			<point x="320" y="703"/>
			<point x="152" y="597"/>
			<point x="152" y="357" type="curve" smooth="yes"/>
			<point x="152" y="290"/>
			<point x="166" y="224"/>
			<point x="193" y="161" type="curve"/>
			<point x="265" y="198"/>
			<point x="346" y="216"/>
			<point x="436" y="216" type="curve" smooth="yes"/>
			<point x="519" y="216"/>
			<point x="595" y="199"/>
			<point x="665" y="166" type="curve"/>
			<point x="686" y="214"/>
			<point x="696" y="263"/>
			<point x="696" y="314" type="curve" smooth="yes"/>
			<point x="696" y="417"/>
			<point x="638" y="524"/>
		</contour>
		<contour>
			<point x="436" y="296" type="curve" smooth="yes"/>
			<point x="449" y="296"/>
			<point x="460" y="298"/>
			<point x="471" y="303" type="curve" smooth="yes"/>
			<point x="501" y="317"/>
			<point x="516" y="342"/>
			<point x="516" y="379" type="curve" smooth="yes"/>
			<point x="516" y="391"/>
			<point x="514" y="402"/>
			<point x="510" y="413" type="curve" smooth="yes"/>
			<point x="498" y="446"/>
			<point x="473" y="463"/>
			<point x="435" y="463" type="curve" smooth="yes"/>
			<point x="422" y="463"/>
			<point x="409" y="460"/>
			<point x="398" y="455" type="curve" smooth="yes"/>
			<point x="369" y="442"/>
			<point x="354" y="418"/>
			<point x="353" y="383" type="curve" smooth="yes"/>
			<point x="353" y="382" type="line" smooth="yes"/>
			<point x="353" y="367"/>
			<point x="356" y="354"/>
			<point x="361" y="342" type="curve" smooth="yes"/>
			<point x="375" y="311"/>
			<point x="400" y="296"/>
		</contour>
		<contour>
			<point x="430" y="166" type="curve" smooth="yes"/>
			<point x="346" y="166"/>
			<point x="274" y="150"/>
			<point x="214" y="119" type="curve"/>
			<point x="265" y="26"/>
			<point x="335" y="-47"/>
			<point x="425" y="-100" type="curve"/>
			<point x="428" y="-98"/>
			<point x="432" y="-96"/>
			<point x="437" y="-93" type="curve" smooth="yes"/>
			<point x="526" y="-37"/>
			<point x="595" y="34"/>
			<point x="643" y="121" type="curve"/>
			<point x="581" y="151"/>
			<point x="510" y="166"/>
		</contour>
		<contour>
			<point x="627" y="-161" type="curve" smooth="yes"/>
			<point x="690" y="-161"/>
			<point x="775" y="-137"/>
			<point x="775" y="-48" type="curve"/>
			<point x="773" y="3"/>
			<point x="744" y="51"/>
			<point x="689" y="94" type="curve"/>
			<point x="640" y="5"/>
			<point x="569" y="-69"/>
			<point x="478" y="-127" type="curve"/>
			<point x="529" y="-150"/>
			<point x="579" y="-161"/>
		</contour>
		<contour>
			<point x="229" y="-161" type="curve" smooth="yes"/>
			<point x="273" y="-161"/>
			<point x="320" y="-150"/>
			<point x="371" y="-127" type="curve"/>
			<point x="286" y="-73"/>
			<point x="219" y="-1"/>
			<point x="168" y="89" type="curve"/>
			<point x="119" y="50"/>
			<point x="94" y="4"/>
			<point x="93" y="-47" type="curve" smooth="yes"/>
			<point x="93" y="-69"/>
			<point x="99" y="-89"/>
			<point x="110" y="-106" type="curve" smooth="yes"/>
			<point x="135" y="-143"/>
			<point x="174" y="-161"/>
		</contour>
	</outline>
	<note>
		tml_I
	</note>
</glyph>
<glyph name="tml_Ii" format="1">
	<unicode hex="0B88"/>
	<advance width="637"/>
	<outline>
		<contour>
			<point x="241" y="160" type="curve" smooth="yes"/>
			<point x="270" y="160"/>
			<point x="294" y="184"/>
			<point x="294" y="214" type="curve" smooth="yes"/>
			<point x="294" y="243"/>
			<point x="270" y="267"/>
			<point x="241" y="267" type="curve" smooth="yes"/>
			<point x="211" y="267"/>
			<point x="187" y="243"/>
			<point x="187" y="214" type="curve" smooth="yes"/>
			<point x="187" y="184"/>
			<point x="211" y="160"/>
		</contour>
		<contour>
			<point x="501" y="160" type="curve" smooth="yes"/>
			<point x="530" y="160"/>
			<point x="554" y="184"/>
			<point x="554" y="214" type="curve" smooth="yes"/>
			<point x="554" y="243"/>
			<point x="530" y="267"/>
			<point x="501" y="267" type="curve" smooth="yes"/>
			<point x="471" y="267"/>
			<point x="447" y="243"/>
			<point x="447" y="214" type="curve" smooth="yes"/>
			<point x="447" y="184"/>
			<point x="471" y="160"/>
		</contour>
		<component base="tml_Ra.alt"/>
	</outline>
	<note>
		tml_Ii
	</note>
</glyph>
<glyph name="tml_U" format="1">
	<unicode hex="0B89"/>
	<advance width="828"/>
	<outline>
		<contour>
			<point x="786" y="0" type="line"/>
			<point x="173" y="0" type="line" smooth="yes"/>
			<point x="152" y="0"/>
			<point x="132" y="3"/>
			<point x="115" y="8" type="curve" smooth="yes"/>
			<point x="70" y="22"/>
			<point x="48" y="51"/>
			<point x="48" y="95" type="curve" smooth="yes"/>
			<point x="48" y="111"/>
			<point x="51" y="126"/>
			<point x="57" y="140" type="curve" smooth="yes"/>
			<point x="74" y="179"/>
			<point x="109" y="198"/>
			<point x="163" y="198" type="curve" smooth="yes"/>
			<point x="211" y="198" type="line" smooth="yes"/>
			<point x="344" y="199"/>
			<point x="411" y="258"/>
			<point x="412" y="376" type="curve" smooth="yes"/>
			<point x="412" y="422"/>
			<point x="400" y="460"/>
			<point x="376" y="491" type="curve" smooth="yes"/>
			<point x="313" y="570"/>
			<point x="205" y="557"/>
			<point x="156" y="524" type="curve"/>
			<point x="165" y="525"/>
			<point x="172" y="526"/>
			<point x="178" y="526" type="curve" smooth="yes"/>
			<point x="199" y="526"/>
			<point x="219" y="522"/>
			<point x="238" y="515" type="curve" smooth="yes"/>
			<point x="290" y="494"/>
			<point x="316" y="452"/>
			<point x="316" y="389" type="curve" smooth="yes"/>
			<point x="316" y="326"/>
			<point x="277" y="247"/>
			<point x="184" y="247" type="curve" smooth="yes"/>
			<point x="124" y="247"/>
			<point x="42" y="286"/>
			<point x="42" y="402" type="curve" smooth="yes"/>
			<point x="42" y="490"/>
			<point x="97" y="596"/>
			<point x="248" y="597" type="curve" smooth="yes"/>
			<point x="349" y="597"/>
			<point x="462" y="539"/>
			<point x="462" y="376" type="curve" smooth="yes"/>
			<point x="462" y="337"/>
			<point x="455" y="301"/>
			<point x="442" y="270" type="curve" smooth="yes"/>
			<point x="408" y="191"/>
			<point x="339" y="151"/>
			<point x="236" y="150" type="curve" smooth="yes"/>
			<point x="159" y="149" type="line" smooth="yes"/>
			<point x="155" y="149"/>
			<point x="151" y="149"/>
			<point x="146" y="148" type="curve"/>
			<point x="82" y="139"/>
			<point x="76" y="50"/>
			<point x="169" y="49" type="curve" smooth="yes"/>
			<point x="786" y="49" type="line"/>
		</contour>
		<contour>
			<point x="181" y="295" type="curve" smooth="yes"/>
			<point x="198" y="295"/>
			<point x="214" y="299"/>
			<point x="228" y="308" type="curve" smooth="yes"/>
			<point x="255" y="325"/>
			<point x="268" y="353"/>
			<point x="268" y="390" type="curve" smooth="yes"/>
			<point x="268" y="407"/>
			<point x="265" y="422"/>
			<point x="259" y="435" type="curve" smooth="yes"/>
			<point x="244" y="466"/>
			<point x="218" y="482"/>
			<point x="179" y="482" type="curve" smooth="yes"/>
			<point x="169" y="482"/>
			<point x="159" y="481"/>
			<point x="150" y="478" type="curve"/>
			<point x="111" y="467"/>
			<point x="91" y="436"/>
			<point x="91" y="385" type="curve" smooth="yes"/>
			<point x="91" y="384" type="line" smooth="yes"/>
			<point x="91" y="370"/>
			<point x="94" y="357"/>
			<point x="101" y="344" type="curve"/>
			<point x="117" y="311"/>
			<point x="144" y="295"/>
		</contour>
	</outline>
	<note>
		tml_U
	</note>
</glyph>
<glyph name="tml_Uu" format="1">
	<unicode hex="0B8A"/>
	<advance width="1198"/>
	<outline>
		<contour>
			<point x="162" y="0" type="line" smooth="yes"/>
			<point x="145" y="0"/>
			<point x="129" y="2"/>
			<point x="114" y="6" type="curve" smooth="yes"/>
			<point x="70" y="19"/>
			<point x="48" y="49"/>
			<point x="48" y="94" type="curve" smooth="yes"/>
			<point x="48" y="113"/>
			<point x="52" y="129"/>
			<point x="61" y="144" type="curve" smooth="yes"/>
			<point x="80" y="175"/>
			<point x="112" y="191"/>
			<point x="157" y="191" type="curve" smooth="yes"/>
			<point x="229" y="191" type="line" smooth="yes"/>
			<point x="357" y="192"/>
			<point x="422" y="249"/>
			<point x="423" y="362" type="curve" smooth="yes"/>
			<point x="423" y="458"/>
			<point x="364" y="542"/>
			<point x="244" y="542" type="curve" smooth="yes"/>
			<point x="209" y="542"/>
			<point x="178" y="533"/>
			<point x="153" y="516" type="curve"/>
			<point x="164" y="517"/>
			<point x="173" y="518"/>
			<point x="180" y="518" type="curve" smooth="yes"/>
			<point x="201" y="518"/>
			<point x="222" y="514"/>
			<point x="241" y="505" type="curve" smooth="yes"/>
			<point x="290" y="483"/>
			<point x="314" y="442"/>
			<point x="314" y="383" type="curve" smooth="yes"/>
			<point x="314" y="322"/>
			<point x="279" y="239"/>
			<point x="180" y="239" type="curve" smooth="yes"/>
			<point x="151" y="239"/>
			<point x="126" y="247"/>
			<point x="103" y="263" type="curve" smooth="yes"/>
			<point x="62" y="292"/>
			<point x="42" y="337"/>
			<point x="42" y="397" type="curve" smooth="yes"/>
			<point x="42" y="481"/>
			<point x="95" y="588"/>
			<point x="247" y="589" type="curve" smooth="yes"/>
			<point x="358" y="589"/>
			<point x="474" y="523"/>
			<point x="474" y="363" type="curve" smooth="yes"/>
			<point x="474" y="329"/>
			<point x="469" y="298"/>
			<point x="458" y="270" type="curve" smooth="yes"/>
			<point x="427" y="187"/>
			<point x="356" y="144"/>
			<point x="246" y="142" type="curve" smooth="yes"/>
			<point x="159" y="141" type="line" smooth="yes"/>
			<point x="154" y="141"/>
			<point x="149" y="141"/>
			<point x="144" y="140" type="curve"/>
			<point x="87" y="131"/>
			<point x="80" y="50"/>
			<point x="168" y="49" type="curve" smooth="yes"/>
			<point x="1156" y="49" type="line"/>
			<point x="1156" y="0" type="line"/>
		</contour>
		<contour>
			<point x="181" y="287" type="curve" smooth="yes"/>
			<point x="196" y="287"/>
			<point x="211" y="291"/>
			<point x="224" y="298" type="curve"/>
			<point x="252" y="315"/>
			<point x="266" y="343"/>
			<point x="266" y="384" type="curve" smooth="yes"/>
			<point x="266" y="401"/>
			<point x="263" y="416"/>
			<point x="257" y="429" type="curve" smooth="yes"/>
			<point x="242" y="460"/>
			<point x="215" y="475"/>
			<point x="176" y="475" type="curve" smooth="yes"/>
			<point x="165" y="475"/>
			<point x="154" y="473"/>
			<point x="143" y="469" type="curve" smooth="yes"/>
			<point x="108" y="456"/>
			<point x="90" y="425"/>
			<point x="90" y="376" type="curve" smooth="yes"/>
			<point x="90" y="362"/>
			<point x="93" y="348"/>
			<point x="100" y="335" type="curve" smooth="yes"/>
			<point x="117" y="303"/>
			<point x="144" y="287"/>
		</contour>
		<contour>
			<point x="642" y="100" type="curve" smooth="yes"/>
			<point x="621" y="100"/>
			<point x="602" y="106"/>
			<point x="585" y="119" type="curve" smooth="yes"/>
			<point x="544" y="152"/>
			<point x="524" y="213"/>
			<point x="524" y="302" type="curve" smooth="yes"/>
			<point x="524" y="365"/>
			<point x="535" y="418"/>
			<point x="558" y="462" type="curve" smooth="yes"/>
			<point x="623" y="589"/>
			<point x="766" y="579"/>
			<point x="826" y="488" type="curve"/>
			<point x="826" y="547" type="line"/>
			<point x="1153" y="547" type="line"/>
			<point x="1153" y="499" type="line"/>
			<point x="1061" y="499" type="line"/>
			<point x="1061" y="123" type="line"/>
			<point x="1015" y="123" type="line"/>
			<point x="1015" y="499" type="line"/>
			<point x="873" y="499" type="line"/>
			<point x="873" y="123" type="line"/>
			<point x="825" y="123" type="line"/>
			<point x="825" y="332" type="line" smooth="yes"/>
			<point x="825" y="361"/>
			<point x="822" y="388"/>
			<point x="816" y="411" type="curve" smooth="yes"/>
			<point x="799" y="477"/>
			<point x="763" y="510"/>
			<point x="706" y="510" type="curve" smooth="yes"/>
			<point x="693" y="510"/>
			<point x="681" y="508"/>
			<point x="669" y="504" type="curve" smooth="yes"/>
			<point x="617" y="487"/>
			<point x="585" y="440"/>
			<point x="574" y="361" type="curve"/>
			<point x="592" y="387"/>
			<point x="616" y="400"/>
			<point x="646" y="401" type="curve" smooth="yes"/>
			<point x="660" y="401"/>
			<point x="673" y="398"/>
			<point x="686" y="393" type="curve"/>
			<point x="731" y="373"/>
			<point x="753" y="326"/>
			<point x="753" y="251" type="curve" smooth="yes"/>
			<point x="753" y="195"/>
			<point x="735" y="100"/>
		</contour>
		<contour>
			<point x="644" y="145" type="curve" smooth="yes"/>
			<point x="651" y="145"/>
			<point x="659" y="147"/>
			<point x="666" y="150" type="curve" smooth="yes"/>
			<point x="695" y="163"/>
			<point x="709" y="197"/>
			<point x="709" y="252" type="curve" smooth="yes"/>
			<point x="709" y="287"/>
			<point x="703" y="356"/>
			<point x="644" y="356" type="curve" smooth="yes"/>
			<point x="631" y="356"/>
			<point x="620" y="352"/>
			<point x="609" y="344" type="curve"/>
			<point x="584" y="324"/>
			<point x="572" y="291"/>
			<point x="574" y="244" type="curve"/>
			<point x="583" y="179"/>
			<point x="607" y="146"/>
		</contour>
	</outline>
	<note>
		tml_Uu
	</note>
</glyph>
<glyph name="tml_E" format="1">
	<unicode hex="0B8E"/>
	<advance width="727"/>
	<outline>
		<contour>
			<point x="304" y="483" type="curve"/>
			<point x="304" y="389" type="line"/>
			<point x="203" y="387"/>
			<point x="141" y="338"/>
			<point x="135" y="239" type="curve" smooth="yes"/>
			<point x="133" y="207"/>
			<point x="141" y="79"/>
			<point x="235" y="79" type="curve" smooth="yes"/>
			<point x="263" y="79"/>
			<point x="284" y="96"/>
			<point x="284" y="125" type="curve" smooth="yes"/>
			<point x="284" y="157"/>
			<point x="263" y="179"/>
			<point x="227" y="179" type="curve" smooth="yes"/>
			<point x="195" y="179"/>
			<point x="148" y="152"/>
			<point x="138" y="117" type="curve"/>
			<point x="111" y="180" type="line"/>
			<point x="120" y="230"/>
			<point x="179" y="274"/>
			<point x="241" y="274" type="curve" smooth="yes"/>
			<point x="339" y="274"/>
			<point x="380" y="202"/>
			<point x="380" y="133" type="curve" smooth="yes"/>
			<point x="380" y="53"/>
			<point x="330" y="-12"/>
			<point x="230" y="-12" type="curve" smooth="yes"/>
			<point x="113" y="-12"/>
			<point x="40" y="78"/>
			<point x="40" y="219" type="curve" smooth="yes"/>
			<point x="40" y="430"/>
			<point x="207" y="483"/>
		</contour>
		<contour>
			<point x="304" y="483" type="line"/>
			<point x="587" y="483" type="line"/>
			<point x="707" y="483" type="line"/>
			<point x="696" y="396" type="line"/>
			<point x="586" y="397" type="line"/>
			<point x="586" y="0" type="line"/>
			<point x="468" y="-1" type="line"/>
			<point x="468" y="389" type="line"/>
			<point x="304" y="389" type="line"/>
		</contour>
	</outline>
	<note>
		tml_E
	</note>
</glyph>
<glyph name="tml_Ee" format="1">
	<unicode hex="0B8F"/>
	<advance width="727"/>
	<outline>
		<contour>
			<point x="468" y="59" type="line"/>
			<point x="585" y="0" type="line"/>
			<point x="339" y="-201" type="line"/>
			<point x="267" y="-127" type="line"/>
		</contour>
		<component base="tml_E"/>
	</outline>
	<note>
		tml_Ee
	</note>
</glyph>
<glyph name="tml_Ai" format="1">
	<unicode hex="0B90"/>
	<advance width="779"/>
	<outline>
		<contour>
			<point x="45" y="21" type="curve" smooth="yes"/>
			<point x="45" y="40"/>
			<point x="47" y="57"/>
			<point x="51" y="74" type="curve"/>
			<point x="84" y="195"/>
			<point x="195" y="200"/>
			<point x="380" y="221" type="curve" smooth="yes"/>
			<point x="568" y="242"/>
			<point x="687" y="264"/>
			<point x="687" y="401" type="curve" smooth="yes"/>
			<point x="687" y="414"/>
			<point x="686" y="427"/>
			<point x="684" y="439" type="curve" smooth="yes"/>
			<point x="672" y="501"/>
			<point x="633" y="532"/>
			<point x="566" y="532" type="curve" smooth="yes"/>
			<point x="547" y="532"/>
			<point x="530" y="528"/>
			<point x="515" y="521" type="curve" smooth="yes"/>
			<point x="458" y="492"/>
			<point x="429" y="418"/>
			<point x="430" y="299" type="curve"/>
			<point x="380" y="299" type="line"/>
			<point x="380" y="316"/>
			<point x="380" y="333"/>
			<point x="379" y="349" type="curve" smooth="yes"/>
			<point x="370" y="473"/>
			<point x="324" y="535"/>
			<point x="240" y="535" type="curve" smooth="yes"/>
			<point x="190" y="535"/>
			<point x="151" y="518"/>
			<point x="124" y="485" type="curve"/>
			<point x="137" y="492"/>
			<point x="152" y="495"/>
			<point x="169" y="495" type="curve" smooth="yes"/>
			<point x="183" y="495"/>
			<point x="197" y="492"/>
			<point x="211" y="487" type="curve"/>
			<point x="260" y="467"/>
			<point x="284" y="425"/>
			<point x="284" y="362" type="curve" smooth="yes"/>
			<point x="284" y="309"/>
			<point x="261" y="234"/>
			<point x="164" y="234" type="curve" smooth="yes"/>
			<point x="145" y="234"/>
			<point x="127" y="238"/>
			<point x="111" y="245" type="curve" smooth="yes"/>
			<point x="18" y="286"/>
			<point x="32" y="437"/>
			<point x="75" y="502" type="curve" smooth="yes"/>
			<point x="146" y="610"/>
			<point x="349" y="618"/>
			<point x="406" y="465" type="curve"/>
			<point x="436" y="542"/>
			<point x="489" y="580"/>
			<point x="566" y="581" type="curve" smooth="yes"/>
			<point x="601" y="581"/>
			<point x="632" y="573"/>
			<point x="659" y="558" type="curve" smooth="yes"/>
			<point x="763" y="498"/>
			<point x="785" y="274"/>
			<point x="584" y="203" type="curve" smooth="yes"/>
			<point x="546" y="191"/>
			<point x="478" y="180"/>
			<point x="381" y="170" type="curve"/>
			<point x="379" y="170" type="line"/>
			<point x="378" y="170" type="line"/>
			<point x="163" y="146"/>
			<point x="96" y="125"/>
			<point x="96" y="22" type="curve" smooth="yes"/>
			<point x="96" y="-4"/>
			<point x="104" y="-28"/>
			<point x="119" y="-49" type="curve" smooth="yes"/>
			<point x="146" y="-86"/>
			<point x="185" y="-105"/>
			<point x="236" y="-105" type="curve" smooth="yes"/>
			<point x="250" y="-105"/>
			<point x="263" y="-104"/>
			<point x="276" y="-101" type="curve"/>
			<point x="344" y="-88"/>
			<point x="378" y="-29"/>
			<point x="378" y="74" type="curve"/>
			<point x="430" y="74" type="line"/>
			<point x="431" y="-44"/>
			<point x="473" y="-103"/>
			<point x="557" y="-104" type="curve"/>
			<point x="632" y="-101"/>
			<point x="696" y="-37"/>
			<point x="659" y="74" type="curve"/>
			<point x="709" y="81" type="line"/>
			<point x="721" y="42"/>
			<point x="722" y="2"/>
			<point x="712" y="-39" type="curve" smooth="yes"/>
			<point x="676" y="-191"/>
			<point x="474" y="-175"/>
			<point x="415" y="-83" type="curve"/>
			<point x="407" y="-66"/>
			<point x="403" y="-57"/>
			<point x="403" y="-57" type="curve" smooth="yes"/>
			<point x="403" y="-57"/>
			<point x="400" y="-64"/>
			<point x="394" y="-79" type="curve"/>
			<point x="366" y="-130"/>
			<point x="311" y="-155"/>
			<point x="230" y="-155" type="curve" smooth="yes"/>
			<point x="195" y="-155"/>
			<point x="162" y="-147"/>
			<point x="132" y="-131" type="curve" smooth="yes"/>
			<point x="74" y="-100"/>
			<point x="45" y="-49"/>
		</contour>
		<contour>
			<point x="164" y="280" type="curve" smooth="yes"/>
			<point x="179" y="280"/>
			<point x="192" y="284"/>
			<point x="203" y="292" type="curve"/>
			<point x="227" y="308"/>
			<point x="239" y="332"/>
			<point x="239" y="363" type="curve" smooth="yes"/>
			<point x="239" y="377"/>
			<point x="237" y="390"/>
			<point x="233" y="402" type="curve" smooth="yes"/>
			<point x="222" y="435"/>
			<point x="201" y="451"/>
			<point x="170" y="451" type="curve" smooth="yes"/>
			<point x="154" y="451"/>
			<point x="140" y="447"/>
			<point x="127" y="440" type="curve" smooth="yes"/>
			<point x="102" y="426"/>
			<point x="90" y="403"/>
			<point x="90" y="370" type="curve" smooth="yes"/>
			<point x="90" y="355"/>
			<point x="92" y="342"/>
			<point x="96" y="329" type="curve" smooth="yes"/>
			<point x="107" y="296"/>
			<point x="130" y="280"/>
		</contour>
	</outline>
	<note>
		tml_Ai
	</note>
</glyph>
<glyph name="tml_Oo" format="1">
	<unicode hex="0B93"/>
	<advance width="686"/>
	<outline>
		<contour>
			<point x="173" y="194" type="curve" smooth="yes"/>
			<point x="188" y="194"/>
			<point x="201" y="197"/>
			<point x="214" y="204" type="curve"/>
			<point x="243" y="221"/>
			<point x="257" y="248"/>
			<point x="257" y="286" type="curve" smooth="yes"/>
			<point x="257" y="299"/>
			<point x="255" y="312"/>
			<point x="251" y="323" type="curve" smooth="yes"/>
			<point x="238" y="358"/>
			<point x="214" y="375"/>
			<point x="177" y="375" type="curve" smooth="yes"/>
			<point x="164" y="375"/>
			<point x="153" y="373"/>
			<point x="142" y="369" type="curve" smooth="yes"/>
			<point x="108" y="357"/>
			<point x="91" y="331"/>
			<point x="90" y="290" type="curve"/>
			<point x="91" y="277"/>
			<point x="93" y="264"/>
			<point x="96" y="252" type="curve"/>
			<point x="109" y="213"/>
			<point x="134" y="194"/>
		</contour>
		<contour>
			<point x="331" y="-164" type="curve" smooth="yes"/>
			<point x="247" y="-164"/>
			<point x="129" y="-122"/>
			<point x="129" y="1" type="curve" smooth="yes"/>
			<point x="129" y="61"/>
			<point x="165" y="121"/>
			<point x="246" y="121" type="curve" smooth="yes"/>
			<point x="261" y="121"/>
			<point x="276" y="119"/>
			<point x="291" y="114" type="curve" smooth="yes"/>
			<point x="383" y="81"/>
			<point x="379" y="-54"/>
			<point x="298" y="-114" type="curve"/>
			<point x="311" y="-115"/>
			<point x="321" y="-116"/>
			<point x="330" y="-116" type="curve" smooth="yes"/>
			<point x="355" y="-116"/>
			<point x="377" y="-111"/>
			<point x="397" y="-101" type="curve" smooth="yes"/>
			<point x="444" y="-78"/>
			<point x="470" y="-34"/>
			<point x="473" y="31" type="curve"/>
			<point x="460" y="32"/>
			<point x="447" y="36"/>
			<point x="434" y="41" type="curve"/>
			<point x="387" y="61"/>
			<point x="364" y="104"/>
			<point x="364" y="169" type="curve" smooth="yes"/>
			<point x="364" y="299" type="line"/>
			<point x="414" y="299" type="line"/>
			<point x="414" y="292"/>
			<point x="415" y="284"/>
			<point x="416" y="277" type="curve" smooth="yes"/>
			<point x="423" y="226"/>
			<point x="447" y="200"/>
			<point x="490" y="200" type="curve" smooth="yes"/>
			<point x="506" y="200"/>
			<point x="521" y="203"/>
			<point x="534" y="210" type="curve" smooth="yes"/>
			<point x="574" y="231"/>
			<point x="594" y="276"/>
			<point x="594" y="345" type="curve" smooth="yes"/>
			<point x="594" y="469"/>
			<point x="490" y="561"/>
			<point x="355" y="561" type="curve" smooth="yes"/>
			<point x="324" y="561"/>
			<point x="294" y="557"/>
			<point x="266" y="548" type="curve" smooth="yes"/>
			<point x="191" y="525"/>
			<point x="139" y="477"/>
			<point x="110" y="403" type="curve"/>
			<point x="131" y="416"/>
			<point x="155" y="422"/>
			<point x="182" y="422" type="curve" smooth="yes"/>
			<point x="206" y="422"/>
			<point x="228" y="415"/>
			<point x="249" y="401" type="curve" smooth="yes"/>
			<point x="286" y="376"/>
			<point x="304" y="337"/>
			<point x="304" y="285" type="curve" smooth="yes"/>
			<point x="304" y="225"/>
			<point x="268" y="146"/>
			<point x="177" y="146" type="curve" smooth="yes"/>
			<point x="154" y="146"/>
			<point x="133" y="151"/>
			<point x="114" y="160" type="curve" smooth="yes"/>
			<point x="66" y="184"/>
			<point x="42" y="233"/>
			<point x="42" y="307" type="curve" smooth="yes"/>
			<point x="42" y="458"/>
			<point x="132" y="610"/>
			<point x="355" y="610" type="curve" smooth="yes"/>
			<point x="506" y="610"/>
			<point x="644" y="513"/>
			<point x="644" y="341" type="curve" smooth="yes"/>
			<point x="644" y="252"/>
			<point x="598" y="152"/>
			<point x="490" y="152" type="curve" smooth="yes"/>
			<point x="459" y="152"/>
			<point x="433" y="161"/>
			<point x="412" y="179" type="curve"/>
			<point x="412" y="168" type="line" smooth="yes"/>
			<point x="413" y="108"/>
			<point x="438" y="77"/>
			<point x="487" y="76" type="curve" smooth="yes"/>
			<point x="608" y="76" type="line"/>
			<point x="608" y="29" type="line"/>
			<point x="522" y="29" type="line"/>
			<point x="518" y="-56"/>
			<point x="468" y="-164"/>
		</contour>
		<contour>
			<point x="177" y="1" type="curve" smooth="yes"/>
			<point x="177" y="-3"/>
			<point x="177" y="-7"/>
			<point x="178" y="-12" type="curve"/>
			<point x="183" y="-50"/>
			<point x="205" y="-78"/>
			<point x="244" y="-97" type="curve"/>
			<point x="245" y="-97"/>
			<point x="245" y="-97"/>
			<point x="246" y="-96" type="curve"/>
			<point x="291" y="-71"/>
			<point x="314" y="-38"/>
			<point x="314" y="3" type="curve" smooth="yes"/>
			<point x="314" y="13"/>
			<point x="312" y="23"/>
			<point x="309" y="32" type="curve" smooth="yes"/>
			<point x="299" y="60"/>
			<point x="278" y="74"/>
			<point x="247" y="74" type="curve" smooth="yes"/>
			<point x="237" y="74"/>
			<point x="227" y="72"/>
			<point x="218" y="69" type="curve" smooth="yes"/>
			<point x="191" y="59"/>
			<point x="177" y="36"/>
		</contour>
	</outline>
	<note>
		tml_Oo
	</note>
</glyph>
<glyph name="tml_Au" format="1">
	<unicode hex="0B94"/>
	<advance width="1525"/>
	<outline>
		<contour>
			<point x="850" y="-21" type="curve" smooth="yes"/>
			<point x="823" y="-21"/>
			<point x="798" y="-12"/>
			<point x="777" y="7" type="curve" smooth="yes"/>
			<point x="730" y="49"/>
			<point x="706" y="126"/>
			<point x="706" y="238" type="curve" smooth="yes"/>
			<point x="706" y="320"/>
			<point x="719" y="389"/>
			<point x="746" y="445" type="curve" smooth="yes"/>
			<point x="827" y="613"/>
			<point x="1020" y="601"/>
			<point x="1096" y="477" type="curve"/>
			<point x="1096" y="560" type="line"/>
			<point x="1527" y="560" type="line"/>
			<point x="1527" y="511" type="line"/>
			<point x="1395" y="511" type="line"/>
			<point x="1395" y="1" type="line"/>
			<point x="1345" y="1" type="line"/>
			<point x="1345" y="511" type="line"/>
			<point x="1146" y="511" type="line"/>
			<point x="1146" y="1" type="line"/>
			<point x="1094" y="1" type="line"/>
			<point x="1094" y="278" type="line" smooth="yes"/>
			<point x="1094" y="379"/>
			<point x="1071" y="524"/>
			<point x="934" y="524" type="curve" smooth="yes"/>
			<point x="905" y="524"/>
			<point x="879" y="516"/>
			<point x="855" y="501" type="curve" smooth="yes"/>
			<point x="800" y="465"/>
			<point x="768" y="397"/>
			<point x="758" y="298" type="curve"/>
			<point x="783" y="335"/>
			<point x="816" y="354"/>
			<point x="857" y="355" type="curve" smooth="yes"/>
			<point x="879" y="355"/>
			<point x="899" y="349"/>
			<point x="918" y="336" type="curve" smooth="yes"/>
			<point x="963" y="305"/>
			<point x="986" y="250"/>
			<point x="986" y="171" type="curve" smooth="yes"/>
			<point x="986" y="86"/>
			<point x="953" y="-21"/>
		</contour>
		<contour>
			<point x="852" y="29" type="curve" smooth="yes"/>
			<point x="865" y="29"/>
			<point x="877" y="32"/>
			<point x="888" y="39" type="curve" smooth="yes"/>
			<point x="921" y="60"/>
			<point x="938" y="105"/>
			<point x="938" y="173" type="curve" smooth="yes"/>
			<point x="938" y="225"/>
			<point x="926" y="310"/>
			<point x="853" y="310" type="curve" smooth="yes"/>
			<point x="832" y="310"/>
			<point x="814" y="302"/>
			<point x="798" y="285" type="curve" smooth="yes"/>
			<point x="769" y="255"/>
			<point x="757" y="210"/>
			<point x="762" y="150" type="curve"/>
			<point x="776" y="71"/>
			<point x="806" y="30"/>
		</contour>
		<contour>
			<point x="173" y="194" type="curve" smooth="yes"/>
			<point x="188" y="194"/>
			<point x="201" y="197"/>
			<point x="214" y="204" type="curve"/>
			<point x="243" y="221"/>
			<point x="257" y="248"/>
			<point x="257" y="286" type="curve" smooth="yes"/>
			<point x="257" y="299"/>
			<point x="255" y="312"/>
			<point x="251" y="323" type="curve" smooth="yes"/>
			<point x="238" y="358"/>
			<point x="214" y="375"/>
			<point x="177" y="375" type="curve" smooth="yes"/>
			<point x="164" y="375"/>
			<point x="151" y="373"/>
			<point x="140" y="369" type="curve" smooth="yes"/>
			<point x="107" y="356"/>
			<point x="91" y="330"/>
			<point x="91" y="291" type="curve" smooth="yes"/>
			<point x="91" y="278"/>
			<point x="93" y="266"/>
			<point x="97" y="254" type="curve"/>
			<point x="108" y="214"/>
			<point x="134" y="194"/>
		</contour>
		<contour>
			<point x="333" y="-164" type="curve" smooth="yes"/>
			<point x="248" y="-164"/>
			<point x="149" y="-108"/>
			<point x="149" y="23" type="curve"/>
			<point x="199" y="23" type="line"/>
			<point x="199" y="1"/>
			<point x="204" y="-20"/>
			<point x="214" y="-41" type="curve" smooth="yes"/>
			<point x="237" y="-90"/>
			<point x="277" y="-114"/>
			<point x="334" y="-114" type="curve" smooth="yes"/>
			<point x="355" y="-114"/>
			<point x="375" y="-110"/>
			<point x="394" y="-102" type="curve" smooth="yes"/>
			<point x="443" y="-81"/>
			<point x="470" y="-36"/>
			<point x="474" y="32" type="curve"/>
			<point x="459" y="33"/>
			<point x="444" y="37"/>
			<point x="431" y="43" type="curve" smooth="yes"/>
			<point x="386" y="64"/>
			<point x="364" y="106"/>
			<point x="364" y="169" type="curve" smooth="yes"/>
			<point x="364" y="299" type="line"/>
			<point x="414" y="299" type="line"/>
			<point x="414" y="292"/>
			<point x="415" y="284"/>
			<point x="416" y="277" type="curve" smooth="yes"/>
			<point x="423" y="226"/>
			<point x="447" y="200"/>
			<point x="490" y="200" type="curve" smooth="yes"/>
			<point x="506" y="200"/>
			<point x="521" y="203"/>
			<point x="534" y="210" type="curve" smooth="yes"/>
			<point x="574" y="231"/>
			<point x="594" y="276"/>
			<point x="594" y="345" type="curve" smooth="yes"/>
			<point x="594" y="469"/>
			<point x="490" y="561"/>
			<point x="355" y="561" type="curve" smooth="yes"/>
			<point x="322" y="561"/>
			<point x="291" y="556"/>
			<point x="262" y="547" type="curve" smooth="yes"/>
			<point x="189" y="524"/>
			<point x="139" y="476"/>
			<point x="111" y="403" type="curve"/>
			<point x="151" y="427"/>
			<point x="208" y="429"/>
			<point x="249" y="401" type="curve" smooth="yes"/>
			<point x="286" y="376"/>
			<point x="304" y="337"/>
			<point x="304" y="285" type="curve" smooth="yes"/>
			<point x="304" y="225"/>
			<point x="268" y="146"/>
			<point x="177" y="146" type="curve" smooth="yes"/>
			<point x="154" y="146"/>
			<point x="133" y="151"/>
			<point x="114" y="160" type="curve" smooth="yes"/>
			<point x="66" y="184"/>
			<point x="42" y="233"/>
			<point x="42" y="307" type="curve" smooth="yes"/>
			<point x="42" y="458"/>
			<point x="132" y="610"/>
			<point x="355" y="610" type="curve" smooth="yes"/>
			<point x="506" y="610"/>
			<point x="644" y="513"/>
			<point x="644" y="341" type="curve" smooth="yes"/>
			<point x="644" y="252"/>
			<point x="598" y="152"/>
			<point x="490" y="152" type="curve" smooth="yes"/>
			<point x="459" y="152"/>
			<point x="434" y="161"/>
			<point x="413" y="179" type="curve"/>
			<point x="413" y="168" type="line" smooth="yes"/>
			<point x="414" y="108"/>
			<point x="438" y="77"/>
			<point x="487" y="76" type="curve" smooth="yes"/>
			<point x="608" y="76" type="line"/>
			<point x="608" y="29" type="line"/>
			<point x="522" y="29" type="line"/>
			<point x="518" y="-54"/>
			<point x="472" y="-164"/>
		</contour>
	</outline>
	<note>
		tml_Au
	</note>
</glyph>
<glyph name="tml_Ka" format="1">
	<unicode hex="0B95"/>
	<advance width="665"/>
	<outline>
		<contour>
			<point x="36" y="145" type="curve" smooth="yes"/>
			<point x="36" y="253"/>
			<point x="98" y="309"/>
			<point x="216" y="309" type="curve" smooth="yes"/>
			<point x="467" y="309" type="line" smooth="yes"/>
			<point x="541" y="309"/>
			<point x="653" y="280"/>
			<point x="653" y="146" type="curve" smooth="yes"/>
			<point x="653" y="16"/>
			<point x="554" y="-21"/>
			<point x="472" y="-21" type="curve" smooth="yes"/>
			<point x="451" y="-21" type="line"/>
			<point x="441" y="57" type="line"/>
			<point x="512" y="59"/>
			<point x="539" y="106"/>
			<point x="539" y="147" type="curve" smooth="yes"/>
			<point x="539" y="204"/>
			<point x="484" y="219"/>
			<point x="443" y="219" type="curve" smooth="yes"/>
			<point x="207" y="221" type="line" smooth="yes"/>
			<point x="154" y="221"/>
			<point x="126" y="192"/>
			<point x="126" y="152" type="curve" smooth="yes"/>
			<point x="126" y="109"/>
			<point x="168" y="68"/>
			<point x="229" y="68" type="curve" smooth="yes"/>
			<point x="284" y="68"/>
			<point x="328" y="109"/>
			<point x="328" y="186" type="curve" smooth="yes"/>
			<point x="328" y="257" type="line"/>
			<point x="338" y="269" type="line"/>
			<point x="338" y="398" type="line"/>
			<point x="240" y="398" type="line"/>
			<point x="240" y="277" type="line"/>
			<point x="155" y="277" type="line"/>
			<point x="155" y="480" type="line"/>
			<point x="544" y="480" type="line"/>
			<point x="537" y="398" type="line"/>
			<point x="441" y="398" type="line"/>
			<point x="441" y="176" type="line" smooth="yes"/>
			<point x="441" y="72"/>
			<point x="381" y="-23"/>
			<point x="238" y="-23" type="curve" smooth="yes"/>
			<point x="98" y="-23"/>
			<point x="36" y="70"/>
		</contour>
	</outline>
	<note>
		tml_Ka
	</note>
</glyph>
<glyph name="tml_Nga" format="1">
	<unicode hex="0B99"/>
	<advance width="798"/>
	<outline>
		<contour>
			<point x="57" y="-5" type="line"/>
			<point x="57" y="481" type="line"/>
			<point x="488" y="481" type="line"/>
			<point x="483" y="380" type="line"/>
			<point x="363" y="380" type="line"/>
			<point x="363" y="165" type="line"/>
			<point x="253" y="165" type="line"/>
			<point x="253" y="380" type="line"/>
			<point x="173" y="380" type="line"/>
			<point x="173" y="-5" type="line"/>
		</contour>
		<contour>
			<point x="747" y="82" type="line"/>
			<point x="748" y="-4" type="line"/>
			<point x="278" y="-4" type="line"/>
			<point x="295" y="90" type="line"/>
			<point x="427" y="90" type="line"/>
			<point x="482" y="150"/>
			<point x="453" y="227"/>
			<point x="409" y="227" type="curve" smooth="yes"/>
			<point x="372" y="227"/>
			<point x="364" y="202"/>
			<point x="364" y="166" type="curve"/>
			<point x="310" y="193" type="line"/>
			<point x="312" y="236"/>
			<point x="338" y="322"/>
			<point x="450" y="321" type="curve" smooth="yes"/>
			<point x="550" y="320"/>
			<point x="624" y="196"/>
			<point x="542" y="90" type="curve"/>
			<point x="629" y="90" type="line"/>
			<point x="629" y="480" type="line"/>
			<point x="747" y="470" type="line"/>
		</contour>
	</outline>
	<note>
		tml_Nga
	</note>
</glyph>
<glyph name="tml_Ca" format="1">
	<unicode hex="0B9A"/>
	<advance width="567"/>
	<outline>
		<contour>
			<point x="36" y="145" type="curve" smooth="yes"/>
			<point x="36" y="253"/>
			<point x="98" y="309"/>
			<point x="216" y="309" type="curve" smooth="yes"/>
			<point x="537" y="309" type="line"/>
			<point x="535" y="219" type="line"/>
			<point x="207" y="221" type="line" smooth="yes"/>
			<point x="154" y="221"/>
			<point x="126" y="192"/>
			<point x="126" y="152" type="curve" smooth="yes"/>
			<point x="126" y="109"/>
			<point x="168" y="68"/>
			<point x="229" y="68" type="curve" smooth="yes"/>
			<point x="284" y="68"/>
			<point x="328" y="109"/>
			<point x="328" y="186" type="curve" smooth="yes"/>
			<point x="328" y="257" type="line"/>
			<point x="338" y="269" type="line"/>
			<point x="338" y="398" type="line"/>
			<point x="240" y="398" type="line"/>
			<point x="240" y="277" type="line"/>
			<point x="155" y="277" type="line"/>
			<point x="155" y="480" type="line"/>
			<point x="546" y="480" type="line"/>
			<point x="544" y="398" type="line"/>
			<point x="441" y="398" type="line"/>
			<point x="441" y="176" type="line" smooth="yes"/>
			<point x="441" y="72"/>
			<point x="381" y="-23"/>
			<point x="238" y="-23" type="curve" smooth="yes"/>
			<point x="98" y="-23"/>
			<point x="36" y="70"/>
		</contour>
	</outline>
	<note>
		tml_Ca
	</note>
</glyph>
<glyph name="tml_Ja" format="1">
	<unicode hex="0B9C"/>
	<advance width="745"/>
	<outline>
		<contour>
			<point x="224" y="-155" type="curve" smooth="yes"/>
			<point x="191" y="-155"/>
			<point x="160" y="-148"/>
			<point x="133" y="-135" type="curve" smooth="yes"/>
			<point x="74" y="-105"/>
			<point x="45" y="-53"/>
			<point x="45" y="21" type="curve" smooth="yes"/>
			<point x="45" y="43"/>
			<point x="48" y="63"/>
			<point x="54" y="82" type="curve" smooth="yes"/>
			<point x="95" y="199"/>
			<point x="200" y="198"/>
			<point x="380" y="222" type="curve"/>
			<point x="381" y="222" type="line"/>
			<point x="382" y="222" type="line"/>
			<point x="383" y="222" type="line"/>
			<point x="384" y="223" type="line"/>
			<point x="385" y="223" type="line"/>
			<point x="386" y="223" type="line"/>
			<point x="387" y="223" type="line"/>
			<point x="388" y="223" type="line"/>
			<point x="389" y="223" type="line"/>
			<point x="390" y="223" type="line"/>
			<point x="391" y="224" type="line"/>
			<point x="392" y="224" type="line"/>
			<point x="393" y="224" type="line"/>
			<point x="394" y="224" type="line"/>
			<point x="395" y="224" type="line"/>
			<point x="396" y="224" type="line"/>
			<point x="581" y="251"/>
			<point x="686" y="270"/>
			<point x="686" y="401" type="curve" smooth="yes"/>
			<point x="686" y="418"/>
			<point x="684" y="434"/>
			<point x="680" y="449" type="curve" smooth="yes"/>
			<point x="666" y="504"/>
			<point x="630" y="531"/>
			<point x="573" y="531" type="curve" smooth="yes"/>
			<point x="564" y="531"/>
			<point x="554" y="530"/>
			<point x="545" y="528" type="curve" smooth="yes"/>
			<point x="470" y="513"/>
			<point x="432" y="441"/>
			<point x="432" y="312" type="curve" smooth="yes"/>
			<point x="432" y="299" type="line"/>
			<point x="381" y="299" type="line"/>
			<point x="381" y="314" type="line" smooth="yes"/>
			<point x="381" y="347"/>
			<point x="378" y="376"/>
			<point x="373" y="403" type="curve" smooth="yes"/>
			<point x="354" y="491"/>
			<point x="310" y="535"/>
			<point x="241" y="535" type="curve" smooth="yes"/>
			<point x="190" y="535"/>
			<point x="151" y="518"/>
			<point x="124" y="485" type="curve"/>
			<point x="137" y="492"/>
			<point x="152" y="495"/>
			<point x="169" y="495" type="curve" smooth="yes"/>
			<point x="183" y="495"/>
			<point x="197" y="492"/>
			<point x="210" y="487" type="curve" smooth="yes"/>
			<point x="259" y="468"/>
			<point x="284" y="426"/>
			<point x="284" y="362" type="curve" smooth="yes"/>
			<point x="284" y="309"/>
			<point x="261" y="234"/>
			<point x="164" y="234" type="curve" smooth="yes"/>
			<point x="146" y="234"/>
			<point x="129" y="237"/>
			<point x="114" y="243" type="curve" smooth="yes"/>
			<point x="17" y="284"/>
			<point x="32" y="437"/>
			<point x="75" y="502" type="curve" smooth="yes"/>
			<point x="147" y="610"/>
			<point x="347" y="619"/>
			<point x="407" y="463" type="curve"/>
			<point x="436" y="541"/>
			<point x="491" y="580"/>
			<point x="573" y="581" type="curve" smooth="yes"/>
			<point x="601" y="581"/>
			<point x="626" y="576"/>
			<point x="649" y="566" type="curve" smooth="yes"/>
			<point x="708" y="539"/>
			<point x="737" y="484"/>
			<point x="737" y="401" type="curve" smooth="yes"/>
			<point x="736" y="209"/>
			<point x="576" y="191"/>
			<point x="379" y="170" type="curve" smooth="yes"/>
			<point x="202" y="149"/>
			<point x="97" y="133"/>
			<point x="97" y="22" type="curve" smooth="yes"/>
			<point x="97" y="-2"/>
			<point x="103" y="-24"/>
			<point x="114" y="-43" type="curve" smooth="yes"/>
			<point x="138" y="-83"/>
			<point x="176" y="-103"/>
			<point x="229" y="-103" type="curve" smooth="yes"/>
			<point x="251" y="-103"/>
			<point x="272" y="-97"/>
			<point x="293" y="-85" type="curve"/>
			<point x="314" y="-72"/>
			<point x="344" y="-44"/>
			<point x="381" y="0" type="curve" smooth="yes"/>
			<point x="398" y="21"/>
			<point x="412" y="36"/>
			<point x="421" y="46" type="curve" smooth="yes"/>
			<point x="472" y="99"/>
			<point x="526" y="126"/>
			<point x="583" y="126" type="curve" smooth="yes"/>
			<point x="610" y="126"/>
			<point x="635" y="121"/>
			<point x="656" y="110" type="curve" smooth="yes"/>
			<point x="701" y="87"/>
			<point x="724" y="46"/>
			<point x="724" y="-14" type="curve" smooth="yes"/>
			<point x="724" y="-78"/>
			<point x="678" y="-157"/>
			<point x="574" y="-154" type="curve" smooth="yes"/>
			<point x="478" y="-154" type="line"/>
			<point x="478" y="-104" type="line"/>
			<point x="571" y="-104" type="line" smooth="yes"/>
			<point x="578" y="-104"/>
			<point x="586" y="-103"/>
			<point x="594" y="-102" type="curve"/>
			<point x="645" y="-93"/>
			<point x="671" y="-63"/>
			<point x="671" y="-13" type="curve" smooth="yes"/>
			<point x="671" y="-3"/>
			<point x="670" y="6"/>
			<point x="668" y="15" type="curve"/>
			<point x="657" y="56"/>
			<point x="627" y="76"/>
			<point x="576" y="76" type="curve" smooth="yes"/>
			<point x="554" y="76"/>
			<point x="533" y="70"/>
			<point x="512" y="58" type="curve"/>
			<point x="491" y="45"/>
			<point x="464" y="17"/>
			<point x="430" y="-26" type="curve" smooth="yes"/>
			<point x="413" y="-48"/>
			<point x="399" y="-64"/>
			<point x="389" y="-75" type="curve" smooth="yes"/>
			<point x="340" y="-128"/>
			<point x="285" y="-155"/>
		</contour>
		<contour>
			<point x="164" y="280" type="curve" smooth="yes"/>
			<point x="179" y="280"/>
			<point x="192" y="284"/>
			<point x="203" y="292" type="curve"/>
			<point x="227" y="308"/>
			<point x="239" y="332"/>
			<point x="239" y="363" type="curve" smooth="yes"/>
			<point x="239" y="377"/>
			<point x="237" y="390"/>
			<point x="233" y="402" type="curve" smooth="yes"/>
			<point x="222" y="435"/>
			<point x="201" y="451"/>
			<point x="170" y="451" type="curve" smooth="yes"/>
			<point x="156" y="451"/>
			<point x="143" y="448"/>
			<point x="132" y="443" type="curve" smooth="yes"/>
			<point x="105" y="430"/>
			<point x="91" y="405"/>
			<point x="90" y="370" type="curve" smooth="yes"/>
			<point x="90" y="357"/>
			<point x="92" y="345"/>
			<point x="95" y="334" type="curve" smooth="yes"/>
			<point x="106" y="298"/>
			<point x="129" y="280"/>
		</contour>
	</outline>
	<note>
		tml_Ja
	</note>
</glyph>
<glyph name="tml_Nya" format="1">
	<unicode hex="0B9E"/>
	<advance width="918"/>
	<outline>
		<contour>
			<point x="359" y="-24" type="curve" smooth="yes"/>
			<point x="332" y="-24"/>
			<point x="309" y="-15"/>
			<point x="288" y="2" type="curve" smooth="yes"/>
			<point x="239" y="43"/>
			<point x="215" y="121"/>
			<point x="215" y="235" type="curve" smooth="yes"/>
			<point x="215" y="399"/>
			<point x="282" y="557"/>
			<point x="449" y="560" type="curve" smooth="yes"/>
			<point x="767" y="560" type="line"/>
			<point x="767" y="512" type="line"/>
			<point x="635" y="512" type="line"/>
			<point x="635" y="316" type="line"/>
			<point x="678" y="368"/>
			<point x="752" y="362"/>
			<point x="793" y="337" type="curve" smooth="yes"/>
			<point x="848" y="303"/>
			<point x="876" y="231"/>
			<point x="876" y="122" type="curve" smooth="yes"/>
			<point x="876" y="42"/>
			<point x="861" y="-28"/>
			<point x="832" y="-89" type="curve" smooth="yes"/>
			<point x="771" y="-214"/>
			<point x="657" y="-276"/>
			<point x="492" y="-275" type="curve" smooth="yes"/>
			<point x="229" y="-274"/>
			<point x="42" y="-89"/>
			<point x="42" y="227" type="curve" smooth="yes"/>
			<point x="42" y="360"/>
			<point x="75" y="475"/>
			<point x="140" y="572" type="curve"/>
			<point x="183" y="547" type="line"/>
			<point x="124" y="458"/>
			<point x="95" y="352"/>
			<point x="94" y="227" type="curve" smooth="yes"/>
			<point x="94" y="-17"/>
			<point x="229" y="-224"/>
			<point x="493" y="-224" type="curve" smooth="yes"/>
			<point x="688" y="-224"/>
			<point x="826" y="-112"/>
			<point x="826" y="125" type="curve" smooth="yes"/>
			<point x="826" y="150"/>
			<point x="824" y="174"/>
			<point x="821" y="195" type="curve" smooth="yes"/>
			<point x="808" y="272"/>
			<point x="774" y="310"/>
			<point x="719" y="310" type="curve" smooth="yes"/>
			<point x="709" y="310"/>
			<point x="699" y="309"/>
			<point x="690" y="306" type="curve" smooth="yes"/>
			<point x="655" y="295"/>
			<point x="636" y="265"/>
			<point x="635" y="218" type="curve" smooth="yes"/>
			<point x="635" y="1" type="line"/>
			<point x="585" y="1" type="line"/>
			<point x="585" y="512" type="line"/>
			<point x="453" y="512" type="line" smooth="yes"/>
			<point x="422" y="512"/>
			<point x="394" y="504"/>
			<point x="369" y="488" type="curve" smooth="yes"/>
			<point x="312" y="453"/>
			<point x="278" y="389"/>
			<point x="267" y="295" type="curve"/>
			<point x="292" y="332"/>
			<point x="325" y="351"/>
			<point x="366" y="352" type="curve" smooth="yes"/>
			<point x="388" y="352"/>
			<point x="409" y="345"/>
			<point x="428" y="332" type="curve" smooth="yes"/>
			<point x="473" y="301"/>
			<point x="495" y="246"/>
			<point x="495" y="168" type="curve" smooth="yes"/>
			<point x="495" y="83"/>
			<point x="462" y="-24"/>
		</contour>
		<contour>
			<point x="361" y="25" type="curve" smooth="yes"/>
			<point x="374" y="25"/>
			<point x="387" y="29"/>
			<point x="398" y="36" type="curve" smooth="yes"/>
			<point x="431" y="58"/>
			<point x="447" y="102"/>
			<point x="447" y="169" type="curve" smooth="yes"/>
			<point x="447" y="221"/>
			<point x="435" y="306"/>
			<point x="362" y="306" type="curve" smooth="yes"/>
			<point x="341" y="306"/>
			<point x="322" y="298"/>
			<point x="306" y="281" type="curve" smooth="yes"/>
			<point x="278" y="251"/>
			<point x="266" y="206"/>
			<point x="271" y="147" type="curve"/>
			<point x="285" y="67"/>
			<point x="315" y="26"/>
		</contour>
	</outline>
	<note>
		tml_Nya
	</note>
</glyph>
<glyph name="tml_Tta" format="1">
	<unicode hex="0B9F"/>
	<advance width="606"/>
	<outline>
		<contour>
			<point x="578" y="-1" type="line"/>
			<point x="47" y="-1" type="line"/>
			<point x="48" y="85" type="line"/>
			<point x="48" y="477" type="line"/>
			<point x="166" y="483" type="line"/>
			<point x="166" y="93" type="line"/>
			<point x="580" y="93" type="line"/>
		</contour>
	</outline>
	<note>
		tml_Tta
	</note>
</glyph>
<glyph name="tml_Nna" format="1">
	<unicode hex="0BA3"/>
	<advance width="1301"/>
	<outline>
		<contour>
			<point x="187" y="-21" type="curve" smooth="yes"/>
			<point x="160" y="-21"/>
			<point x="135" y="-12"/>
			<point x="113" y="7" type="curve" smooth="yes"/>
			<point x="66" y="49"/>
			<point x="42" y="126"/>
			<point x="42" y="237" type="curve" smooth="yes"/>
			<point x="42" y="426"/>
			<point x="161" y="572"/>
			<point x="340" y="572" type="curve" smooth="yes"/>
			<point x="403" y="572"/>
			<point x="458" y="557"/>
			<point x="507" y="528" type="curve"/>
			<point x="556" y="557"/>
			<point x="613" y="572"/>
			<point x="678" y="572" type="curve" smooth="yes"/>
			<point x="743" y="572"/>
			<point x="801" y="556"/>
			<point x="852" y="525" type="curve"/>
			<point x="895" y="549"/>
			<point x="945" y="561"/>
			<point x="1001" y="561" type="curve" smooth="yes"/>
			<point x="1259" y="561" type="line"/>
			<point x="1259" y="511" type="line"/>
			<point x="1143" y="511" type="line"/>
			<point x="1143" y="1" type="line"/>
			<point x="1092" y="1" type="line"/>
			<point x="1092" y="511" type="line"/>
			<point x="1002" y="511" type="line" smooth="yes"/>
			<point x="964" y="511"/>
			<point x="929" y="504"/>
			<point x="898" y="491" type="curve"/>
			<point x="966" y="427"/>
			<point x="1000" y="336"/>
			<point x="1001" y="217" type="curve" smooth="yes"/>
			<point x="1001" y="186"/>
			<point x="999" y="157"/>
			<point x="995" y="131" type="curve" smooth="yes"/>
			<point x="978" y="28"/>
			<point x="930" y="-23"/>
			<point x="851" y="-23" type="curve" smooth="yes"/>
			<point x="824" y="-23"/>
			<point x="801" y="-16"/>
			<point x="780" y="-3" type="curve" smooth="yes"/>
			<point x="725" y="32"/>
			<point x="698" y="105"/>
			<point x="698" y="214" type="curve" smooth="yes"/>
			<point x="698" y="338"/>
			<point x="734" y="431"/>
			<point x="806" y="494" type="curve"/>
			<point x="767" y="514"/>
			<point x="725" y="524"/>
			<point x="678" y="524" type="curve" smooth="yes"/>
			<point x="631" y="524"/>
			<point x="589" y="515"/>
			<point x="552" y="496" type="curve"/>
			<point x="623" y="433"/>
			<point x="658" y="339"/>
			<point x="659" y="216" type="curve" smooth="yes"/>
			<point x="659" y="179"/>
			<point x="656" y="146"/>
			<point x="650" y="115" type="curve" smooth="yes"/>
			<point x="630" y="23"/>
			<point x="583" y="-23"/>
			<point x="510" y="-23" type="curve" smooth="yes"/>
			<point x="483" y="-23"/>
			<point x="458" y="-16"/>
			<point x="437" y="-2" type="curve" smooth="yes"/>
			<point x="330" y="70"/>
			<point x="323" y="364"/>
			<point x="464" y="495" type="curve"/>
			<point x="425" y="514"/>
			<point x="384" y="524"/>
			<point x="339" y="524" type="curve" smooth="yes"/>
			<point x="247" y="523"/>
			<point x="125" y="469"/>
			<point x="96" y="301" type="curve"/>
			<point x="121" y="336"/>
			<point x="154" y="354"/>
			<point x="193" y="355" type="curve" smooth="yes"/>
			<point x="213" y="355"/>
			<point x="232" y="349"/>
			<point x="250" y="338" type="curve" smooth="yes"/>
			<point x="295" y="309"/>
			<point x="317" y="253"/>
			<point x="317" y="171" type="curve" smooth="yes"/>
			<point x="317" y="91"/>
			<point x="292" y="-21"/>
		</contour>
		<contour>
			<point x="510" y="25" type="curve" smooth="yes"/>
			<point x="525" y="25"/>
			<point x="540" y="30"/>
			<point x="553" y="39" type="curve" smooth="yes"/>
			<point x="590" y="66"/>
			<point x="609" y="123"/>
			<point x="609" y="211" type="curve" smooth="yes"/>
			<point x="609" y="325"/>
			<point x="575" y="410"/>
			<point x="508" y="467" type="curve"/>
			<point x="503" y="463"/>
			<point x="498" y="459"/>
			<point x="493" y="454" type="curve" smooth="yes"/>
			<point x="436" y="397"/>
			<point x="407" y="316"/>
			<point x="407" y="212" type="curve" smooth="yes"/>
			<point x="407" y="151"/>
			<point x="415" y="25"/>
		</contour>
		<contour>
			<point x="851" y="25" type="curve" smooth="yes"/>
			<point x="866" y="25"/>
			<point x="879" y="29"/>
			<point x="892" y="37" type="curve"/>
			<point x="931" y="63"/>
			<point x="950" y="122"/>
			<point x="950" y="213" type="curve" smooth="yes"/>
			<point x="950" y="326"/>
			<point x="917" y="409"/>
			<point x="852" y="464" type="curve"/>
			<point x="849" y="461"/>
			<point x="845" y="459"/>
			<point x="842" y="456" type="curve"/>
			<point x="780" y="403"/>
			<point x="749" y="322"/>
			<point x="749" y="213" type="curve" smooth="yes"/>
			<point x="749" y="150"/>
			<point x="759" y="25"/>
		</contour>
		<contour>
			<point x="188" y="27" type="curve" smooth="yes"/>
			<point x="201" y="27"/>
			<point x="214" y="31"/>
			<point x="226" y="39" type="curve" smooth="yes"/>
			<point x="258" y="61"/>
			<point x="274" y="106"/>
			<point x="274" y="173" type="curve" smooth="yes"/>
			<point x="274" y="224"/>
			<point x="262" y="310"/>
			<point x="189" y="310" type="curve" smooth="yes"/>
			<point x="168" y="310"/>
			<point x="149" y="302"/>
			<point x="134" y="285" type="curve" smooth="yes"/>
			<point x="105" y="254"/>
			<point x="93" y="209"/>
			<point x="98" y="150" type="curve"/>
			<point x="98" y="148"/>
			<point x="98" y="146"/>
			<point x="99" y="144" type="curve"/>
			<point x="112" y="66"/>
			<point x="142" y="27"/>
		</contour>
	</outline>
	<note>
		tml_Nna
	</note>
</glyph>
<glyph name="tml_Ta" format="1">
	<unicode hex="0BA4"/>
	<advance width="647"/>
	<outline>
		<contour>
			<point x="233" y="-141" type="line" smooth="yes"/>
			<point x="189" y="-141"/>
			<point x="149" y="-152"/>
			<point x="146" y="-236" type="curve"/>
			<point x="95" y="-236" type="line"/>
			<point x="95" y="-232"/>
			<point x="95" y="-228"/>
			<point x="95" y="-223" type="curve"/>
			<point x="100" y="-135"/>
			<point x="145" y="-91"/>
			<point x="228" y="-91" type="curve" smooth="yes"/>
			<point x="335" y="-91" type="line" smooth="yes"/>
			<point x="374" y="-90"/>
			<point x="410" y="-81"/>
			<point x="445" y="-64" type="curve" smooth="yes"/>
			<point x="516" y="-27"/>
			<point x="552" y="31"/>
			<point x="552" y="112" type="curve" smooth="yes"/>
			<point x="552" y="199"/>
			<point x="541" y="284"/>
			<point x="404" y="291" type="curve"/>
			<point x="404" y="207" type="line" smooth="yes"/>
			<point x="404" y="185"/>
			<point x="402" y="164"/>
			<point x="399" y="144" type="curve"/>
			<point x="380" y="49"/>
			<point x="322" y="1"/>
			<point x="225" y="1" type="curve" smooth="yes"/>
			<point x="189" y="1"/>
			<point x="157" y="8"/>
			<point x="130" y="22" type="curve" smooth="yes"/>
			<point x="73" y="51"/>
			<point x="44" y="102"/>
			<point x="42" y="175" type="curve" smooth="yes"/>
			<point x="41" y="201"/>
			<point x="45" y="225"/>
			<point x="53" y="247" type="curve" smooth="yes"/>
			<point x="72" y="297"/>
			<point x="107" y="327"/>
			<point x="160" y="338" type="curve"/>
			<point x="160" y="560" type="line"/>
			<point x="525" y="560" type="line"/>
			<point x="525" y="511" type="line"/>
			<point x="404" y="511" type="line"/>
			<point x="404" y="341" type="line"/>
			<point x="408" y="341"/>
			<point x="412" y="341"/>
			<point x="416" y="340" type="curve"/>
			<point x="542" y="331"/>
			<point x="605" y="256"/>
			<point x="605" y="113" type="curve" smooth="yes"/>
			<point x="605" y="-27"/>
			<point x="502" y="-139"/>
			<point x="343" y="-140" type="curve" smooth="yes"/>
		</contour>
		<contour>
			<point x="207" y="341" type="line"/>
			<point x="355" y="341" type="line"/>
			<point x="355" y="511" type="line"/>
			<point x="207" y="511" type="line"/>
		</contour>
		<contour>
			<point x="221" y="50" type="curve" smooth="yes"/>
			<point x="236" y="50"/>
			<point x="250" y="52"/>
			<point x="263" y="56" type="curve" smooth="yes"/>
			<point x="324" y="73"/>
			<point x="354" y="124"/>
			<point x="354" y="207" type="curve" smooth="yes"/>
			<point x="354" y="289" type="line"/>
			<point x="354" y="292" type="line"/>
			<point x="212" y="292" type="line" smooth="yes"/>
			<point x="194" y="292"/>
			<point x="177" y="290"/>
			<point x="162" y="285" type="curve" smooth="yes"/>
			<point x="115" y="269"/>
			<point x="92" y="233"/>
			<point x="92" y="177" type="curve" smooth="yes"/>
			<point x="92" y="153"/>
			<point x="97" y="132"/>
			<point x="107" y="113" type="curve" smooth="yes"/>
			<point x="129" y="71"/>
			<point x="167" y="50"/>
		</contour>
	</outline>
	<note>
		tml_Ta
	</note>
</glyph>
<glyph name="tml_Na" format="1">
	<unicode hex="0BA8"/>
	<advance width="652"/>
	<outline>
		<contour>
			<point x="31" y="-208" type="curve"/>
			<point x="143" y="-224" type="line"/>
			<point x="144" y="-189"/>
			<point x="164" y="-155"/>
			<point x="225" y="-154" type="curve" smooth="yes"/>
			<point x="331" y="-153" type="line" smooth="yes"/>
			<point x="523" y="-151"/>
			<point x="622" y="-29"/>
			<point x="622" y="122" type="curve" smooth="yes"/>
			<point x="622" y="247"/>
			<point x="559" y="323"/>
			<point x="459" y="324" type="curve" smooth="yes"/>
			<point x="367" y="325"/>
			<point x="331" y="239"/>
			<point x="329" y="196" type="curve"/>
			<point x="383" y="169" type="line"/>
			<point x="383" y="205"/>
			<point x="400" y="232"/>
			<point x="437" y="232" type="curve" smooth="yes"/>
			<point x="481" y="232"/>
			<point x="505" y="179"/>
			<point x="504" y="127" type="curve" smooth="yes"/>
			<point x="501" y="-7"/>
			<point x="436" y="-60"/>
			<point x="306" y="-60" type="curve" smooth="yes"/>
			<point x="200" y="-60" type="line" smooth="yes"/>
			<point x="72" y="-60"/>
			<point x="32" y="-120"/>
		</contour>
		<contour>
			<point x="37" y="-5" type="line"/>
			<point x="153" y="-5" type="line"/>
			<point x="153" y="380" type="line"/>
			<point x="283" y="380" type="line"/>
			<point x="283" y="-5" type="line"/>
			<point x="393" y="-5" type="line"/>
			<point x="393" y="380" type="line"/>
			<point x="483" y="380" type="line"/>
			<point x="488" y="481" type="line"/>
			<point x="37" y="481" type="line"/>
		</contour>
	</outline>
	<note>
		tml_Na
	</note>
</glyph>
<glyph name="tml_Nnna" format="1">
	<unicode hex="0BA9"/>
	<advance width="963"/>
	<outline>
		<contour>
			<point x="331" y="524" type="line" smooth="yes"/>
			<point x="287" y="524"/>
			<point x="247" y="513"/>
			<point x="212" y="492" type="curve" smooth="yes"/>
			<point x="149" y="454"/>
			<point x="110" y="391"/>
			<point x="96" y="304" type="curve"/>
			<point x="147" y="372"/>
			<point x="216" y="363"/>
			<point x="255" y="336" type="curve" smooth="yes"/>
			<point x="300" y="305"/>
			<point x="323" y="250"/>
			<point x="323" y="172" type="curve" smooth="yes"/>
			<point x="323" y="89"/>
			<point x="293" y="-20"/>
			<point x="186" y="-20" type="curve" smooth="yes"/>
			<point x="159" y="-20"/>
			<point x="135" y="-11"/>
			<point x="114" y="7" type="curve" smooth="yes"/>
			<point x="66" y="48"/>
			<point x="42" y="125"/>
			<point x="42" y="238" type="curve" smooth="yes"/>
			<point x="42" y="413"/>
			<point x="135" y="572"/>
			<point x="331" y="572" type="curve" smooth="yes"/>
			<point x="344" y="572" type="line" smooth="yes"/>
			<point x="404" y="572"/>
			<point x="459" y="557"/>
			<point x="509" y="528" type="curve"/>
			<point x="551" y="550"/>
			<point x="599" y="561"/>
			<point x="652" y="561" type="curve" smooth="yes"/>
			<point x="921" y="561" type="line"/>
			<point x="921" y="512" type="line"/>
			<point x="805" y="512" type="line"/>
			<point x="805" y="1" type="line"/>
			<point x="755" y="1" type="line"/>
			<point x="755" y="512" type="line"/>
			<point x="651" y="512" type="line" smooth="yes"/>
			<point x="615" y="512"/>
			<point x="583" y="506"/>
			<point x="554" y="494" type="curve"/>
			<point x="625" y="430"/>
			<point x="661" y="337"/>
			<point x="662" y="214" type="curve" smooth="yes"/>
			<point x="661" y="57"/>
			<point x="612" y="-22"/>
			<point x="514" y="-23" type="curve" smooth="yes"/>
			<point x="490" y="-23"/>
			<point x="468" y="-18"/>
			<point x="448" y="-7" type="curve" smooth="yes"/>
			<point x="391" y="26"/>
			<point x="362" y="100"/>
			<point x="362" y="214" type="curve" smooth="yes"/>
			<point x="362" y="342"/>
			<point x="396" y="436"/>
			<point x="464" y="497" type="curve"/>
			<point x="427" y="515"/>
			<point x="386" y="524"/>
			<point x="342" y="524" type="curve" smooth="yes"/>
		</contour>
		<contour>
			<point x="514" y="26" type="curve" smooth="yes"/>
			<point x="527" y="26"/>
			<point x="540" y="29"/>
			<point x="552" y="36" type="curve" smooth="yes"/>
			<point x="592" y="61"/>
			<point x="612" y="120"/>
			<point x="612" y="214" type="curve" smooth="yes"/>
			<point x="612" y="328"/>
			<point x="578" y="413"/>
			<point x="509" y="468" type="curve"/>
			<point x="446" y="419"/>
			<point x="414" y="334"/>
			<point x="413" y="214" type="curve" smooth="yes"/>
			<point x="413" y="150"/>
			<point x="425" y="26"/>
		</contour>
		<contour>
			<point x="188" y="29" type="curve" smooth="yes"/>
			<point x="201" y="29"/>
			<point x="212" y="32"/>
			<point x="223" y="38" type="curve"/>
			<point x="257" y="59"/>
			<point x="274" y="104"/>
			<point x="274" y="173" type="curve" smooth="yes"/>
			<point x="274" y="222"/>
			<point x="265" y="309"/>
			<point x="189" y="309" type="curve" smooth="yes"/>
			<point x="168" y="309"/>
			<point x="149" y="300"/>
			<point x="133" y="283" type="curve" smooth="yes"/>
			<point x="105" y="252"/>
			<point x="93" y="208"/>
			<point x="98" y="151" type="curve"/>
			<point x="112" y="71"/>
			<point x="142" y="30"/>
		</contour>
	</outline>
	<note>
		tml_Nnna
	</note>
</glyph>
<glyph name="tml_Pa" format="1">
	<unicode hex="0BAA"/>
	<advance width="590"/>
	<outline>
		<contour>
			<point x="540" y="-1" type="line"/>
			<point x="50" y="-1" type="line"/>
			<point x="51" y="85" type="line"/>
			<point x="51" y="478" type="line"/>
			<point x="169" y="483" type="line"/>
			<point x="169" y="93" type="line"/>
			<point x="423" y="93" type="line"/>
			<point x="423" y="478" type="line"/>
			<point x="540" y="483" type="line"/>
		</contour>
	</outline>
	<note>
		tml_Pa
	</note>
</glyph>
<glyph name="tml_Ma" format="1">
	<unicode hex="0BAE"/>
	<advance width="663"/>
	<outline>
		<contour>
			<point x="46" y="3" type="line"/>
			<point x="410" y="3" type="line"/>
			<point x="415" y="104" type="line"/>
			<point x="166" y="104" type="line"/>
			<point x="166" y="486" type="line"/>
			<point x="46" y="480" type="line"/>
		</contour>
		<contour>
			<point x="406" y="3" type="line"/>
			<point x="550" y="3"/>
			<point x="629" y="95"/>
			<point x="628" y="230" type="curve" smooth="yes"/>
			<point x="627" y="371"/>
			<point x="555" y="496"/>
			<point x="405" y="494" type="curve" smooth="yes"/>
			<point x="330" y="493"/>
			<point x="277" y="449"/>
			<point x="277" y="373" type="curve" smooth="yes"/>
			<point x="277" y="65" type="line"/>
			<point x="392" y="65" type="line"/>
			<point x="392" y="332" type="line" smooth="yes"/>
			<point x="392" y="364"/>
			<point x="400" y="383"/>
			<point x="426" y="383" type="curve" smooth="yes"/>
			<point x="479" y="383"/>
			<point x="520" y="325"/>
			<point x="520" y="237" type="curve" smooth="yes"/>
			<point x="520" y="177"/>
			<point x="498" y="103"/>
			<point x="408" y="104" type="curve"/>
		</contour>
	</outline>
	<note>
		tml_Ma
	</note>
</glyph>
<glyph name="tml_Ya" format="1">
	<unicode hex="0BAF"/>
	<advance width="749"/>
	<outline>
		<contour>
			<point x="365" y="136" type="line"/>
			<point x="340" y="51"/>
			<point x="292" y="-17"/>
			<point x="185" y="-17" type="curve" smooth="yes"/>
			<point x="121" y="-17"/>
			<point x="50" y="29"/>
			<point x="50" y="121" type="curve" smooth="yes"/>
			<point x="50" y="473" type="line"/>
			<point x="168" y="483" type="line"/>
			<point x="168" y="164" type="line" smooth="yes"/>
			<point x="168" y="108"/>
			<point x="197" y="82"/>
			<point x="230" y="82" type="curve" smooth="yes"/>
			<point x="269" y="82"/>
			<point x="313" y="110"/>
			<point x="313" y="163" type="curve"/>
		</contour>
		<contour>
			<point x="699" y="-1" type="line"/>
			<point x="330" y="-1" type="line"/>
			<point x="303" y="85" type="line"/>
			<point x="303" y="473" type="line"/>
			<point x="421" y="483" type="line"/>
			<point x="421" y="93" type="line"/>
			<point x="582" y="93" type="line"/>
			<point x="582" y="473" type="line"/>
			<point x="699" y="483" type="line"/>
		</contour>
	</outline>
	<note>
		tml_Ya
	</note>
</glyph>
<glyph name="tml_Ra" format="1">
	<unicode hex="0BB0"/>
	<advance width="597"/>
	<outline>
		<contour>
			<point x="309" y="59" type="line"/>
			<point x="426" y="0" type="line"/>
			<point x="200" y="-191" type="line"/>
			<point x="128" y="-117" type="line"/>
		</contour>
		<component base="tml_Ra.alt"/>
	</outline>
	<note>
		tml_Ra
	</note>
</glyph>
<glyph name="tml_Rra" format="1">
	<unicode hex="0BB1"/>
	<advance width="687"/>
	<outline>
		<contour>
			<point x="302" y="390" type="line" smooth="yes"/>
			<point x="302" y="412"/>
			<point x="300" y="431"/>
			<point x="296" y="448" type="curve" smooth="yes"/>
			<point x="285" y="498"/>
			<point x="253" y="523"/>
			<point x="200" y="523" type="curve" smooth="yes"/>
			<point x="189" y="523"/>
			<point x="177" y="522"/>
			<point x="166" y="519" type="curve" smooth="yes"/>
			<point x="117" y="504"/>
			<point x="93" y="462"/>
			<point x="93" y="393" type="curve" smooth="yes"/>
			<point x="93" y="0" type="line"/>
			<point x="42" y="0" type="line"/>
			<point x="42" y="405" type="line" smooth="yes"/>
			<point x="42" y="474"/>
			<point x="72" y="575"/>
			<point x="204" y="574" type="curve" smooth="yes"/>
			<point x="208" y="574"/>
			<point x="212" y="574"/>
			<point x="216" y="573" type="curve"/>
			<point x="274" y="568"/>
			<point x="313" y="540"/>
			<point x="333" y="488" type="curve"/>
			<point x="334" y="492"/>
			<point x="336" y="496"/>
			<point x="339" y="501" type="curve"/>
			<point x="363" y="549"/>
			<point x="405" y="573"/>
			<point x="465" y="573" type="curve" smooth="yes"/>
			<point x="519" y="573"/>
			<point x="560" y="555"/>
			<point x="589" y="520" type="curve" smooth="yes"/>
			<point x="626" y="473"/>
			<point x="645" y="377"/>
			<point x="645" y="234" type="curve" smooth="yes"/>
			<point x="645" y="-2"/>
			<point x="602" y="-140"/>
			<point x="375" y="-141" type="curve" smooth="yes"/>
			<point x="184" y="-142" type="line" smooth="yes"/>
			<point x="171" y="-142"/>
			<point x="159" y="-144"/>
			<point x="148" y="-147" type="curve"/>
			<point x="115" y="-158"/>
			<point x="97" y="-188"/>
			<point x="96" y="-237" type="curve"/>
			<point x="45" y="-237" type="line"/>
			<point x="45" y="-231"/>
			<point x="45" y="-225"/>
			<point x="46" y="-218" type="curve"/>
			<point x="53" y="-133"/>
			<point x="97" y="-91"/>
			<point x="179" y="-91" type="curve" smooth="yes"/>
			<point x="369" y="-91" type="line" smooth="yes"/>
			<point x="534" y="-91"/>
			<point x="594" y="-10"/>
			<point x="594" y="234" type="curve" smooth="yes"/>
			<point x="594" y="340"/>
			<point x="586" y="414"/>
			<point x="569" y="456" type="curve" smooth="yes"/>
			<point x="532" y="549"/>
			<point x="369" y="564"/>
			<point x="354" y="408" type="curve"/>
			<point x="352" y="0" type="line"/>
			<point x="302" y="0" type="line"/>
		</contour>
	</outline>
	<note>
		tml_Rra
	</note>
</glyph>
<glyph name="tml_La" format="1">
	<unicode hex="0BB2"/>
	<advance width="766"/>
	<outline>
		<contour>
			<point x="186" y="-20" type="curve" smooth="yes"/>
			<point x="159" y="-20"/>
			<point x="135" y="-11"/>
			<point x="114" y="7" type="curve" smooth="yes"/>
			<point x="66" y="48"/>
			<point x="42" y="125"/>
			<point x="42" y="238" type="curve" smooth="yes"/>
			<point x="42" y="402"/>
			<point x="99" y="571"/>
			<point x="263" y="571" type="curve" smooth="yes"/>
			<point x="308" y="571"/>
			<point x="346" y="560"/>
			<point x="377" y="537" type="curve" smooth="yes"/>
			<point x="432" y="496"/>
			<point x="458" y="431"/>
			<point x="456" y="341" type="curve" smooth="yes"/>
			<point x="456" y="338"/>
			<point x="455" y="314"/>
			<point x="454" y="268" type="curve" smooth="yes"/>
			<point x="453" y="222"/>
			<point x="452" y="198"/>
			<point x="452" y="196" type="curve"/>
			<point x="449" y="128"/>
			<point x="464" y="28"/>
			<point x="559" y="28" type="curve" smooth="yes"/>
			<point x="574" y="28"/>
			<point x="589" y="32"/>
			<point x="602" y="41" type="curve" smooth="yes"/>
			<point x="649" y="72"/>
			<point x="673" y="141"/>
			<point x="673" y="250" type="curve" smooth="yes"/>
			<point x="673" y="379"/>
			<point x="636" y="482"/>
			<point x="562" y="557" type="curve"/>
			<point x="606" y="584" type="line"/>
			<point x="621" y="569"/>
			<point x="636" y="550"/>
			<point x="651" y="527" type="curve" smooth="yes"/>
			<point x="700" y="448"/>
			<point x="724" y="357"/>
			<point x="724" y="253" type="curve" smooth="yes"/>
			<point x="724" y="210"/>
			<point x="720" y="170"/>
			<point x="711" y="133" type="curve" smooth="yes"/>
			<point x="688" y="29"/>
			<point x="637" y="-23"/>
			<point x="560" y="-23" type="curve" smooth="yes"/>
			<point x="527" y="-23"/>
			<point x="499" y="-14"/>
			<point x="475" y="3" type="curve" smooth="yes"/>
			<point x="425" y="39"/>
			<point x="402" y="102"/>
			<point x="405" y="193" type="curve" smooth="yes"/>
			<point x="405" y="196"/>
			<point x="406" y="223"/>
			<point x="407" y="276" type="curve" smooth="yes"/>
			<point x="408" y="323"/>
			<point x="408" y="348"/>
			<point x="408" y="350" type="curve" smooth="yes"/>
			<point x="409" y="425"/>
			<point x="379" y="524"/>
			<point x="264" y="524" type="curve" smooth="yes"/>
			<point x="244" y="524"/>
			<point x="225" y="520"/>
			<point x="207" y="513" type="curve" smooth="yes"/>
			<point x="142" y="486"/>
			<point x="104" y="414"/>
			<point x="93" y="297" type="curve"/>
			<point x="119" y="335"/>
			<point x="152" y="354"/>
			<point x="193" y="355" type="curve" smooth="yes"/>
			<point x="215" y="355"/>
			<point x="235" y="349"/>
			<point x="254" y="336" type="curve" smooth="yes"/>
			<point x="299" y="305"/>
			<point x="322" y="250"/>
			<point x="322" y="172" type="curve" smooth="yes"/>
			<point x="322" y="88"/>
			<point x="290" y="-20"/>
		</contour>
		<contour>
			<point x="188" y="29" type="curve" smooth="yes"/>
			<point x="201" y="29"/>
			<point x="212" y="32"/>
			<point x="223" y="38" type="curve"/>
			<point x="257" y="59"/>
			<point x="274" y="104"/>
			<point x="274" y="173" type="curve" smooth="yes"/>
			<point x="274" y="225"/>
			<point x="261" y="310"/>
			<point x="189" y="310" type="curve" smooth="yes"/>
			<point x="168" y="310"/>
			<point x="150" y="302"/>
			<point x="135" y="285" type="curve" smooth="yes"/>
			<point x="106" y="254"/>
			<point x="94" y="210"/>
			<point x="98" y="151" type="curve"/>
			<point x="112" y="71"/>
			<point x="142" y="30"/>
		</contour>
	</outline>
	<note>
		tml_La
	</note>
</glyph>
<glyph name="tml_Lla" format="1">
	<unicode hex="0BB3"/>
	<advance width="872"/>
	<outline>
		<contour>
			<point x="186" y="-21" type="curve" smooth="yes"/>
			<point x="159" y="-21"/>
			<point x="134" y="-12"/>
			<point x="113" y="7" type="curve" smooth="yes"/>
			<point x="66" y="49"/>
			<point x="42" y="126"/>
			<point x="42" y="238" type="curve" smooth="yes"/>
			<point x="42" y="320"/>
			<point x="55" y="389"/>
			<point x="82" y="445" type="curve" smooth="yes"/>
			<point x="163" y="613"/>
			<point x="357" y="601"/>
			<point x="433" y="477" type="curve"/>
			<point x="433" y="560" type="line"/>
			<point x="863" y="560" type="line"/>
			<point x="863" y="511" type="line"/>
			<point x="731" y="511" type="line"/>
			<point x="731" y="1" type="line"/>
			<point x="681" y="1" type="line"/>
			<point x="681" y="511" type="line"/>
			<point x="482" y="511" type="line"/>
			<point x="482" y="1" type="line"/>
			<point x="431" y="1" type="line"/>
			<point x="431" y="278" type="line" smooth="yes"/>
			<point x="431" y="383"/>
			<point x="404" y="524"/>
			<point x="271" y="524" type="curve" smooth="yes"/>
			<point x="242" y="524"/>
			<point x="215" y="517"/>
			<point x="192" y="502" type="curve" smooth="yes"/>
			<point x="137" y="466"/>
			<point x="104" y="398"/>
			<point x="94" y="297" type="curve"/>
			<point x="119" y="335"/>
			<point x="152" y="354"/>
			<point x="193" y="355" type="curve" smooth="yes"/>
			<point x="215" y="355"/>
			<point x="235" y="349"/>
			<point x="254" y="336" type="curve" smooth="yes"/>
			<point x="299" y="305"/>
			<point x="322" y="250"/>
			<point x="322" y="171" type="curve" smooth="yes"/>
			<point x="322" y="86"/>
			<point x="289" y="-21"/>
		</contour>
		<contour>
			<point x="188" y="29" type="curve" smooth="yes"/>
			<point x="201" y="29"/>
			<point x="212" y="32"/>
			<point x="223" y="38" type="curve"/>
			<point x="257" y="59"/>
			<point x="274" y="104"/>
			<point x="274" y="173" type="curve" smooth="yes"/>
			<point x="274" y="221"/>
			<point x="266" y="310"/>
			<point x="189" y="310" type="curve" smooth="yes"/>
			<point x="168" y="310"/>
			<point x="150" y="302"/>
			<point x="134" y="285" type="curve" smooth="yes"/>
			<point x="105" y="255"/>
			<point x="93" y="210"/>
			<point x="98" y="150" type="curve"/>
			<point x="112" y="71"/>
			<point x="142" y="30"/>
		</contour>
	</outline>
	<note>
		tml_Lla
	</note>
</glyph>
<glyph name="tml_Llla" format="1">
	<unicode hex="0BB4"/>
	<advance width="642"/>
	<outline>
		<contour>
			<point x="253" y="-303" type="curve" smooth="yes"/>
			<point x="450" y="-303"/>
			<point x="492" y="-164"/>
			<point x="495" y="-152" type="curve"/>
			<point x="570" y="-152" type="line"/>
			<point x="570" y="-55" type="line"/>
			<point x="482" y="-55" type="line" smooth="yes"/>
			<point x="430" y="-55"/>
			<point x="406" y="-43"/>
			<point x="397" y="-10" type="curve" smooth="yes"/>
			<point x="395" y="-3"/>
			<point x="395" y="3"/>
			<point x="395" y="10" type="curve"/>
			<point x="371" y="10" type="line"/>
			<point x="274" y="10" type="line"/>
			<point x="271" y="-70"/>
			<point x="296" y="-129"/>
			<point x="376" y="-148" type="curve"/>
			<point x="357" y="-188"/>
			<point x="301" y="-193"/>
			<point x="264" y="-193" type="curve" smooth="yes"/>
			<point x="167" y="-193"/>
			<point x="134" y="-127"/>
			<point x="134" y="-73" type="curve"/>
			<point x="22" y="-73" type="line"/>
			<point x="22" y="-224"/>
			<point x="138" y="-303"/>
		</contour>
		<contour>
			<point x="46" y="3" type="line"/>
			<point x="410" y="3" type="line"/>
			<point x="415" y="104" type="line"/>
			<point x="166" y="104" type="line"/>
			<point x="166" y="469" type="line"/>
			<point x="46" y="463" type="line"/>
		</contour>
		<contour>
			<point x="406" y="3" type="line"/>
			<point x="550" y="3"/>
			<point x="629" y="95"/>
			<point x="628" y="230" type="curve" smooth="yes"/>
			<point x="627" y="361"/>
			<point x="555" y="486"/>
			<point x="405" y="484" type="curve" smooth="yes"/>
			<point x="330" y="483"/>
			<point x="277" y="439"/>
			<point x="277" y="363" type="curve" smooth="yes"/>
			<point x="277" y="65" type="line"/>
			<point x="392" y="65" type="line"/>
			<point x="392" y="332" type="line" smooth="yes"/>
			<point x="392" y="364"/>
			<point x="400" y="383"/>
			<point x="426" y="383" type="curve" smooth="yes"/>
			<point x="479" y="383"/>
			<point x="530" y="315"/>
			<point x="530" y="237" type="curve" smooth="yes"/>
			<point x="530" y="177"/>
			<point x="508" y="103"/>
			<point x="408" y="104" type="curve"/>
		</contour>
	</outline>
	<note>
		tml_Llla
	</note>
</glyph>
<glyph name="tml_Va" format="1">
	<unicode hex="0BB5"/>
	<advance width="805"/>
	<outline>
		<contour>
			<point x="554" y="385"/>
			<point x="554" y="221" type="curve" smooth="yes"/>
			<point x="554" y="167"/>
			<point x="542" y="114"/>
			<point x="521" y="58" type="curve"/>
			<point x="471" y="83" type="line"/>
			<point x="638" y="83" type="line"/>
			<point x="638" y="463" type="line"/>
			<point x="755" y="473" type="line"/>
			<point x="755" y="0" type="line"/>
			<point x="425" y="0" type="line"/>
			<point x="396" y="49" type="line"/>
			<point x="420" y="86"/>
			<point x="438" y="138"/>
			<point x="438" y="200" type="curve" smooth="yes"/>
			<point x="438" y="317"/>
			<point x="361" y="375"/>
			<point x="277" y="374" type="curve" smooth="yes"/>
			<point x="196" y="373"/>
			<point x="133" y="318"/>
			<point x="127" y="229" type="curve" smooth="yes"/>
			<point x="125" y="197"/>
			<point x="142" y="84"/>
			<point x="226" y="84" type="curve" smooth="yes"/>
			<point x="254" y="84"/>
			<point x="283" y="98"/>
			<point x="283" y="134" type="curve" smooth="yes"/>
			<point x="283" y="159"/>
			<point x="263" y="179"/>
			<point x="227" y="179" type="curve" smooth="yes"/>
			<point x="195" y="179"/>
			<point x="148" y="152"/>
			<point x="138" y="117" type="curve"/>
			<point x="111" y="180" type="line"/>
			<point x="120" y="220"/>
			<point x="169" y="278"/>
			<point x="248" y="278" type="curve" smooth="yes"/>
			<point x="331" y="278"/>
			<point x="388" y="217"/>
			<point x="388" y="137" type="curve" smooth="yes"/>
			<point x="388" y="53"/>
			<point x="333" y="-12"/>
			<point x="228" y="-12" type="curve" smooth="yes"/>
			<point x="96" y="-12"/>
			<point x="23" y="91"/>
			<point x="23" y="212" type="curve" smooth="yes"/>
			<point x="23" y="392"/>
			<point x="143" y="489"/>
			<point x="289" y="489" type="curve" smooth="yes"/>
			<point x="441" y="489"/>
		</contour>
	</outline>
	<note>
		tml_Va
	</note>
</glyph>
<glyph name="tml_Sha" format="1">
	<unicode hex="0BB6"/>
	<advance width="790"/>
	<outline>
		<contour>
			<point x="99" y="560" type="line"/>
			<point x="99" y="156" type="line" smooth="yes"/>
			<point x="100" y="75"/>
			<point x="131" y="34"/>
			<point x="193" y="33" type="curve" smooth="yes"/>
			<point x="255" y="34"/>
			<point x="287" y="75"/>
			<point x="288" y="156" type="curve" smooth="yes"/>
			<point x="288" y="560" type="line"/>
			<point x="554" y="560" type="line" smooth="yes"/>
			<point x="603" y="559"/>
			<point x="642" y="550"/>
			<point x="669" y="533" type="curve" smooth="yes"/>
			<point x="722" y="498"/>
			<point x="749" y="415"/>
			<point x="748" y="284" type="curve" smooth="yes"/>
			<point x="747" y="156"/>
			<point x="720" y="-15"/>
			<point x="579" y="-15" type="curve" smooth="yes"/>
			<point x="566" y="-15"/>
			<point x="554" y="-14"/>
			<point x="543" y="-12" type="curve" smooth="yes"/>
			<point x="483" y="0"/>
			<point x="453" y="52"/>
			<point x="453" y="143" type="curve" smooth="yes"/>
			<point x="453" y="511" type="line"/>
			<point x="339" y="511" type="line"/>
			<point x="339" y="156" type="line" smooth="yes"/>
			<point x="339" y="131"/>
			<point x="336" y="109"/>
			<point x="331" y="88" type="curve" smooth="yes"/>
			<point x="312" y="18"/>
			<point x="266" y="-17"/>
			<point x="193" y="-17" type="curve" smooth="yes"/>
			<point x="182" y="-17"/>
			<point x="171" y="-16"/>
			<point x="160" y="-14" type="curve" smooth="yes"/>
			<point x="86" y="-1"/>
			<point x="49" y="55"/>
			<point x="49" y="156" type="curve" smooth="yes"/>
			<point x="49" y="560" type="line"/>
		</contour>
		<contour>
			<point x="580" y="35" type="curve" smooth="yes"/>
			<point x="597" y="35"/>
			<point x="612" y="40"/>
			<point x="627" y="51" type="curve" smooth="yes"/>
			<point x="674" y="86"/>
			<point x="698" y="163"/>
			<point x="698" y="284" type="curve" smooth="yes"/>
			<point x="698" y="453"/>
			<point x="666" y="511"/>
			<point x="563" y="511" type="curve" smooth="yes"/>
			<point x="503" y="511" type="line"/>
			<point x="503" y="143" type="line" smooth="yes"/>
			<point x="503" y="124"/>
			<point x="504" y="108"/>
			<point x="507" y="94" type="curve" smooth="yes"/>
			<point x="516" y="55"/>
			<point x="540" y="35"/>
		</contour>
	</outline>
	<note>
		tml_Sha
	</note>
</glyph>
<glyph name="tml_Ssa" format="1">
	<unicode hex="0BB7"/>
	<advance width="979"/>
	<outline>
		<contour>
			<point x="42" y="238" type="curve" smooth="yes"/>
			<point x="42" y="402"/>
			<point x="102" y="571"/>
			<point x="270" y="571" type="curve" smooth="yes"/>
			<point x="313" y="571"/>
			<point x="352" y="558"/>
			<point x="385" y="532" type="curve" smooth="yes"/>
			<point x="449" y="482"/>
			<point x="481" y="398"/>
			<point x="481" y="280" type="curve" smooth="yes"/>
			<point x="481" y="209"/>
			<point x="466" y="132"/>
			<point x="437" y="50" type="curve"/>
			<point x="727" y="50" type="line"/>
			<point x="727" y="156" type="line"/>
			<point x="686" y="159"/>
			<point x="650" y="172"/>
			<point x="617" y="194" type="curve" smooth="yes"/>
			<point x="551" y="240"/>
			<point x="517" y="312"/>
			<point x="516" y="410" type="curve"/>
			<point x="516" y="490"/>
			<point x="566" y="573"/>
			<point x="657" y="573" type="curve" smooth="yes"/>
			<point x="679" y="573"/>
			<point x="699" y="569"/>
			<point x="716" y="561" type="curve" smooth="yes"/>
			<point x="759" y="541"/>
			<point x="779" y="499"/>
			<point x="777" y="435" type="curve" smooth="yes"/>
			<point x="777" y="208" type="line"/>
			<point x="842" y="223"/>
			<point x="875" y="280"/>
			<point x="877" y="379" type="curve" smooth="yes"/>
			<point x="877" y="472" type="line"/>
			<point x="928" y="472" type="line"/>
			<point x="928" y="1" type="line"/>
			<point x="777" y="1" type="line"/>
			<point x="777" y="-146" type="line"/>
			<point x="727" y="-146" type="line"/>
			<point x="727" y="1" type="line"/>
			<point x="380" y="1" type="line"/>
			<point x="380" y="40" type="line"/>
			<point x="381" y="43"/>
			<point x="383" y="47"/>
			<point x="385" y="52" type="curve" smooth="yes"/>
			<point x="416" y="125"/>
			<point x="431" y="200"/>
			<point x="431" y="279" type="curve" smooth="yes"/>
			<point x="431" y="392"/>
			<point x="391" y="524"/>
			<point x="272" y="524" type="curve" smooth="yes"/>
			<point x="244" y="524"/>
			<point x="218" y="517"/>
			<point x="195" y="503" type="curve" smooth="yes"/>
			<point x="139" y="469"/>
			<point x="105" y="402"/>
			<point x="94" y="303" type="curve"/>
			<point x="145" y="371"/>
			<point x="216" y="362"/>
			<point x="255" y="335" type="curve" smooth="yes"/>
			<point x="300" y="304"/>
			<point x="323" y="249"/>
			<point x="323" y="171" type="curve" smooth="yes"/>
			<point x="323" y="87"/>
			<point x="291" y="-21"/>
			<point x="186" y="-21" type="curve" smooth="yes"/>
			<point x="159" y="-21"/>
			<point x="134" y="-12"/>
			<point x="113" y="7" type="curve" smooth="yes"/>
			<point x="66" y="49"/>
			<point x="42" y="126"/>
		</contour>
		<contour>
			<point x="188" y="29" type="curve" smooth="yes"/>
			<point x="201" y="29"/>
			<point x="212" y="32"/>
			<point x="223" y="38" type="curve"/>
			<point x="257" y="59"/>
			<point x="274" y="104"/>
			<point x="274" y="173" type="curve" smooth="yes"/>
			<point x="274" y="221"/>
			<point x="266" y="310"/>
			<point x="189" y="310" type="curve" smooth="yes"/>
			<point x="168" y="310"/>
			<point x="150" y="302"/>
			<point x="134" y="285" type="curve" smooth="yes"/>
			<point x="105" y="255"/>
			<point x="93" y="210"/>
			<point x="98" y="150" type="curve"/>
			<point x="112" y="71"/>
			<point x="142" y="30"/>
		</contour>
		<contour>
			<point x="566" y="400" type="curve" smooth="yes"/>
			<point x="566" y="328"/>
			<point x="604" y="218"/>
			<point x="727" y="206" type="curve"/>
			<point x="727" y="437" type="line" smooth="yes"/>
			<point x="727" y="448"/>
			<point x="726" y="458"/>
			<point x="724" y="467" type="curve" smooth="yes"/>
			<point x="716" y="505"/>
			<point x="696" y="524"/>
			<point x="664" y="524" type="curve" smooth="yes"/>
			<point x="645" y="524"/>
			<point x="629" y="520"/>
			<point x="615" y="511" type="curve" smooth="yes"/>
			<point x="582" y="491"/>
			<point x="566" y="454"/>
		</contour>
		<contour>
			<point x="877" y="215" type="line"/>
			<point x="854" y="184"/>
			<point x="821" y="164"/>
			<point x="777" y="157" type="curve"/>
			<point x="777" y="50" type="line"/>
			<point x="877" y="50" type="line"/>
		</contour>
	</outline>
	<note>
		tml_Ssa
	</note>
</glyph>
<glyph name="tml_Ha" format="1">
	<unicode hex="0BB9"/>
	<advance width="1269"/>
	<outline>
		<contour>
			<point x="188" y="29" type="curve" smooth="yes"/>
			<point x="201" y="29"/>
			<point x="212" y="32"/>
			<point x="223" y="38" type="curve"/>
			<point x="257" y="59"/>
			<point x="274" y="104"/>
			<point x="274" y="173" type="curve" smooth="yes"/>
			<point x="274" y="221"/>
			<point x="266" y="310"/>
			<point x="189" y="310" type="curve" smooth="yes"/>
			<point x="168" y="310"/>
			<point x="150" y="302"/>
			<point x="134" y="285" type="curve" smooth="yes"/>
			<point x="105" y="255"/>
			<point x="93" y="210"/>
			<point x="98" y="150" type="curve"/>
			<point x="112" y="71"/>
			<point x="142" y="30"/>
		</contour>
		<contour>
			<point x="72" y="-237" type="line"/>
			<point x="72" y="-232"/>
			<point x="72" y="-227"/>
			<point x="73" y="-222" type="curve"/>
			<point x="78" y="-135"/>
			<point x="122" y="-91"/>
			<point x="205" y="-91" type="curve" smooth="yes"/>
			<point x="951" y="-91" type="line" smooth="yes"/>
			<point x="1033" y="-91"/>
			<point x="1091" y="-67"/>
			<point x="1126" y="-20" type="curve" smooth="yes"/>
			<point x="1194" y="73"/>
			<point x="1184" y="377"/>
			<point x="1151" y="458" type="curve" smooth="yes"/>
			<point x="1114" y="546"/>
			<point x="949" y="561"/>
			<point x="937" y="409" type="curve"/>
			<point x="934" y="0" type="line"/>
			<point x="884" y="0" type="line"/>
			<point x="884" y="398" type="line" smooth="yes"/>
			<point x="884" y="414"/>
			<point x="883" y="429"/>
			<point x="880" y="443" type="curve" smooth="yes"/>
			<point x="870" y="496"/>
			<point x="837" y="523"/>
			<point x="782" y="523" type="curve" smooth="yes"/>
			<point x="771" y="523"/>
			<point x="761" y="522"/>
			<point x="751" y="519" type="curve"/>
			<point x="700" y="506"/>
			<point x="675" y="465"/>
			<point x="675" y="394" type="curve" smooth="yes"/>
			<point x="675" y="1" type="line"/>
			<point x="381" y="1" type="line"/>
			<point x="381" y="41" type="line"/>
			<point x="382" y="44"/>
			<point x="384" y="47"/>
			<point x="385" y="50" type="curve"/>
			<point x="416" y="123"/>
			<point x="431" y="200"/>
			<point x="431" y="279" type="curve" smooth="yes"/>
			<point x="431" y="392"/>
			<point x="391" y="524"/>
			<point x="272" y="524" type="curve" smooth="yes"/>
			<point x="243" y="524"/>
			<point x="217" y="517"/>
			<point x="193" y="502" type="curve" smooth="yes"/>
			<point x="137" y="466"/>
			<point x="104" y="398"/>
			<point x="94" y="297" type="curve"/>
			<point x="119" y="335"/>
			<point x="152" y="354"/>
			<point x="193" y="355" type="curve" smooth="yes"/>
			<point x="215" y="355"/>
			<point x="235" y="349"/>
			<point x="254" y="336" type="curve" smooth="yes"/>
			<point x="299" y="305"/>
			<point x="322" y="250"/>
			<point x="322" y="171" type="curve" smooth="yes"/>
			<point x="322" y="86"/>
			<point x="289" y="-21"/>
			<point x="186" y="-21" type="curve" smooth="yes"/>
			<point x="159" y="-21"/>
			<point x="134" y="-12"/>
			<point x="113" y="7" type="curve" smooth="yes"/>
			<point x="66" y="49"/>
			<point x="42" y="126"/>
			<point x="42" y="238" type="curve" smooth="yes"/>
			<point x="42" y="402"/>
			<point x="102" y="571"/>
			<point x="270" y="571" type="curve" smooth="yes"/>
			<point x="314" y="571"/>
			<point x="353" y="558"/>
			<point x="386" y="531" type="curve" smooth="yes"/>
			<point x="514" y="430"/>
			<point x="495" y="219"/>
			<point x="438" y="51" type="curve"/>
			<point x="625" y="51" type="line"/>
			<point x="625" y="407" type="line" smooth="yes"/>
			<point x="625" y="440"/>
			<point x="631" y="469"/>
			<point x="644" y="495" type="curve" smooth="yes"/>
			<point x="671" y="548"/>
			<point x="719" y="575"/>
			<point x="786" y="574" type="curve" smooth="yes"/>
			<point x="793" y="574"/>
			<point x="800" y="573"/>
			<point x="807" y="572" type="curve" smooth="yes"/>
			<point x="860" y="565"/>
			<point x="897" y="537"/>
			<point x="916" y="488" type="curve"/>
			<point x="917" y="490"/>
			<point x="918" y="492"/>
			<point x="919" y="494" type="curve"/>
			<point x="943" y="547"/>
			<point x="986" y="573"/>
			<point x="1047" y="573" type="curve" smooth="yes"/>
			<point x="1102" y="573"/>
			<point x="1144" y="555"/>
			<point x="1172" y="519" type="curve" smooth="yes"/>
			<point x="1209" y="471"/>
			<point x="1227" y="376"/>
			<point x="1227" y="234" type="curve" smooth="yes"/>
			<point x="1227" y="-1"/>
			<point x="1184" y="-141"/>
			<point x="957" y="-141" type="curve" smooth="yes"/>
			<point x="210" y="-142" type="line" smooth="yes"/>
			<point x="194" y="-142"/>
			<point x="180" y="-144"/>
			<point x="167" y="-149" type="curve"/>
			<point x="139" y="-161"/>
			<point x="124" y="-190"/>
			<point x="123" y="-237" type="curve"/>
		</contour>
	</outline>
	<note>
		tml_Ha
	</note>
</glyph>
<glyph name="tml_MatraAa" format="1">
	<unicode hex="0BBE"/>
	<advance width="497"/>
	<outline>
		<contour>
			<point x="95" y="0" type="line"/>
			<point x="95" y="511" type="line"/>
			<point x="315" y="511" type="line"/>
			<point x="312" y="0" type="line"/>
			<point x="366" y="0" type="line"/>
			<point x="368" y="511" type="line"/>
			<point x="497" y="511" type="line"/>
			<point x="497" y="560" type="line"/>
			<point x="44" y="560" type="line"/>
			<point x="44" y="0" type="line"/>
		</contour>
	</outline>
	<note>
		tml_MatraAa
	</note>
</glyph>
<glyph name="tml_MatraI" format="1">
	<unicode hex="0BBF"/>
	<advance width="244"/>
	<outline>
		<contour>
			<point x="93" y="-6" type="line"/>
			<point x="194" y="-6" type="line"/>
			<point x="192" y="406" type="line" smooth="yes"/>
			<point x="191" y="594"/>
			<point x="72" y="694"/>
			<point x="-88" y="692" type="curve" smooth="yes"/>
			<point x="-188" y="691"/>
			<point x="-298" y="637"/>
			<point x="-298" y="526" type="curve" smooth="yes"/>
			<point x="-298" y="462"/>
			<point x="-261" y="417"/>
			<point x="-215" y="417" type="curve"/>
			<point x="-167" y="460" type="line"/>
			<point x="-183" y="460"/>
			<point x="-207" y="482"/>
			<point x="-207" y="505" type="curve" smooth="yes"/>
			<point x="-207" y="550"/>
			<point x="-158" y="572"/>
			<point x="-92" y="572" type="curve" smooth="yes"/>
			<point x="6" y="572"/>
			<point x="92" y="505"/>
			<point x="92" y="389" type="curve" smooth="yes"/>
		</contour>
	</outline>
	<note>
		tml_MatraI
	</note>
</glyph>
<glyph name="tml_MatraIi" format="1">
	<unicode hex="0BC0"/>
	<outline>
		<contour>
			<point x="121" y="636" type="curve" smooth="yes"/>
			<point x="131" y="636"/>
			<point x="141" y="639"/>
			<point x="151" y="644" type="curve"/>
			<point x="178" y="660"/>
			<point x="191" y="691"/>
			<point x="191" y="738" type="curve" smooth="yes"/>
			<point x="191" y="755"/>
			<point x="189" y="772"/>
			<point x="185" y="788" type="curve" smooth="yes"/>
			<point x="174" y="833"/>
			<point x="151" y="856"/>
			<point x="116" y="856" type="curve" smooth="yes"/>
			<point x="103" y="856"/>
			<point x="90" y="851"/>
			<point x="79" y="842" type="curve"/>
			<point x="56" y="821"/>
			<point x="44" y="786"/>
			<point x="44" y="738" type="curve" smooth="yes"/>
			<point x="44" y="721"/>
			<point x="46" y="706"/>
			<point x="50" y="692" type="curve"/>
			<point x="62" y="655"/>
			<point x="86" y="636"/>
		</contour>
		<contour>
			<point x="-9" y="517" type="line"/>
			<point x="-22" y="517"/>
			<point x="-36" y="521"/>
			<point x="-51" y="528" type="curve" smooth="yes"/>
			<point x="-102" y="554"/>
			<point x="-127" y="608"/>
			<point x="-127" y="691" type="curve" smooth="yes"/>
			<point x="-127" y="800"/>
			<point x="-58" y="903"/>
			<point x="97" y="902" type="curve" smooth="yes"/>
			<point x="124" y="901"/>
			<point x="147" y="896"/>
			<point x="167" y="886" type="curve" smooth="yes"/>
			<point x="215" y="861"/>
			<point x="239" y="811"/>
			<point x="239" y="738" type="curve" smooth="yes"/>
			<point x="239" y="667"/>
			<point x="209" y="590"/>
			<point x="121" y="590" type="curve" smooth="yes"/>
			<point x="102" y="590"/>
			<point x="85" y="594"/>
			<point x="68" y="601" type="curve"/>
			<point x="21" y="623"/>
			<point x="-3" y="668"/>
			<point x="-3" y="737" type="curve" smooth="yes"/>
			<point x="-3" y="780"/>
			<point x="7" y="815"/>
			<point x="28" y="843" type="curve"/>
			<point x="24" y="842"/>
			<point x="20" y="840"/>
			<point x="15" y="838" type="curve" smooth="yes"/>
			<point x="-46" y="812"/>
			<point x="-77" y="762"/>
			<point x="-77" y="688" type="curve" smooth="yes"/>
			<point x="-77" y="613"/>
			<point x="-44" y="560"/>
			<point x="0" y="560" type="curve"/>
		</contour>
	</outline>
	<note>
		tml_MatraIi
	</note>
</glyph>
<glyph name="tml_MatraU" format="1">
	<unicode hex="0BC1"/>
	<advance width="356"/>
	<outline>
		<contour>
			<point x="176" y="211" type="curve" smooth="yes"/>
			<point x="145" y="211"/>
			<point x="119" y="220"/>
			<point x="96" y="237" type="curve" smooth="yes"/>
			<point x="56" y="267"/>
			<point x="36" y="312"/>
			<point x="36" y="373" type="curve" smooth="yes"/>
			<point x="36" y="434"/>
			<point x="52" y="480"/>
			<point x="83" y="511" type="curve"/>
			<point x="-196" y="511" type="line"/>
			<point x="-196" y="560" type="line"/>
			<point x="149" y="560" type="line" smooth="yes"/>
			<point x="155" y="560"/>
			<point x="161" y="560"/>
			<point x="167" y="559" type="curve"/>
			<point x="265" y="552"/>
			<point x="314" y="494"/>
			<point x="314" y="385" type="curve" smooth="yes"/>
			<point x="314" y="312"/>
			<point x="288" y="211"/>
		</contour>
		<contour>
			<point x="172" y="260" type="curve" smooth="yes"/>
			<point x="188" y="260"/>
			<point x="203" y="264"/>
			<point x="216" y="272" type="curve"/>
			<point x="247" y="293"/>
			<point x="263" y="330"/>
			<point x="263" y="385" type="curve" smooth="yes"/>
			<point x="263" y="394"/>
			<point x="263" y="402"/>
			<point x="262" y="411" type="curve" smooth="yes"/>
			<point x="255" y="478"/>
			<point x="225" y="511"/>
			<point x="171" y="511" type="curve" smooth="yes"/>
			<point x="157" y="511"/>
			<point x="144" y="507"/>
			<point x="132" y="499" type="curve" smooth="yes"/>
			<point x="101" y="478"/>
			<point x="86" y="438"/>
			<point x="86" y="379" type="curve" smooth="yes"/>
			<point x="86" y="334"/>
			<point x="101" y="260"/>
		</contour>
	</outline>
	<note>
		tml_MatraU
	</note>
</glyph>
<glyph name="tml_MatraUu" format="1">
	<unicode hex="0BC2"/>
	<advance width="520"/>
	<outline>
		<contour>
			<point x="376" y="214" type="line"/>
			<point x="377" y="215"/>
			<point x="377" y="216"/>
			<point x="378" y="217" type="curve"/>
			<point x="413" y="270"/>
			<point x="431" y="333"/>
			<point x="431" y="404" type="curve" smooth="yes"/>
			<point x="431" y="481"/>
			<point x="401" y="598"/>
			<point x="257" y="598" type="curve" smooth="yes"/>
			<point x="211" y="598"/>
			<point x="171" y="584"/>
			<point x="137" y="557" type="curve"/>
			<point x="152" y="556"/>
			<point x="166" y="553"/>
			<point x="179" y="549" type="curve"/>
			<point x="261" y="527"/>
			<point x="302" y="469"/>
			<point x="302" y="376" type="curve" smooth="yes"/>
			<point x="302" y="346"/>
			<point x="297" y="319"/>
			<point x="287" y="296" type="curve" smooth="yes"/>
			<point x="265" y="244"/>
			<point x="224" y="218"/>
			<point x="165" y="218" type="curve" smooth="yes"/>
			<point x="135" y="218"/>
			<point x="108" y="226"/>
			<point x="85" y="242" type="curve" smooth="yes"/>
			<point x="41" y="274"/>
			<point x="19" y="326"/>
			<point x="19" y="397" type="curve" smooth="yes"/>
			<point x="19" y="439"/>
			<point x="27" y="477"/>
			<point x="43" y="511" type="curve"/>
			<point x="-198" y="511" type="line"/>
			<point x="-198" y="560" type="line"/>
			<point x="72" y="560" type="line"/>
			<point x="117" y="616"/>
			<point x="178" y="644"/>
			<point x="257" y="645" type="curve" smooth="yes"/>
			<point x="385" y="645"/>
			<point x="480" y="557"/>
			<point x="480" y="414" type="curve" smooth="yes"/>
			<point x="480" y="350"/>
			<point x="467" y="290"/>
			<point x="442" y="235" type="curve"/>
			<point x="428" y="209"/>
			<point x="421" y="196"/>
			<point x="421" y="196" type="curve"/>
		</contour>
		<contour>
			<point x="168" y="267" type="curve" smooth="yes"/>
			<point x="177" y="267"/>
			<point x="187" y="269"/>
			<point x="196" y="272" type="curve"/>
			<point x="233" y="286"/>
			<point x="251" y="324"/>
			<point x="251" y="385" type="curve" smooth="yes"/>
			<point x="251" y="398"/>
			<point x="250" y="411"/>
			<point x="247" y="422" type="curve" smooth="yes"/>
			<point x="232" y="480"/>
			<point x="182" y="510"/>
			<point x="98" y="511" type="curve"/>
			<point x="78" y="478"/>
			<point x="68" y="439"/>
			<point x="68" y="396" type="curve" smooth="yes"/>
			<point x="68" y="340"/>
			<point x="95" y="267"/>
		</contour>
	</outline>
	<note>
		tml_MatraUu
	</note>
</glyph>
<glyph name="tml_MatraE" format="1">
	<unicode hex="0BC6"/>
	<advance width="604"/>
	<outline>
		<contour>
			<point x="195" y="-30" type="curve" smooth="yes"/>
			<point x="172" y="-30"/>
			<point x="150" y="-23"/>
			<point x="131" y="-10" type="curve" smooth="yes"/>
			<point x="65" y="37"/>
			<point x="32" y="157"/>
			<point x="32" y="350" type="curve" smooth="yes"/>
			<point x="32" y="578"/>
			<point x="124" y="807"/>
			<point x="340" y="807" type="curve" smooth="yes"/>
			<point x="487" y="806"/>
			<point x="544" y="682"/>
			<point x="544" y="403" type="curve" smooth="yes"/>
			<point x="544" y="0" type="line"/>
			<point x="493" y="0" type="line"/>
			<point x="492" y="393" type="line"/>
			<point x="492" y="481"/>
			<point x="487" y="549"/>
			<point x="478" y="598" type="curve" smooth="yes"/>
			<point x="439" y="807"/>
			<point x="265" y="779"/>
			<point x="177" y="680" type="curve" smooth="yes"/>
			<point x="114" y="606"/>
			<point x="82" y="495"/>
			<point x="82" y="348" type="curve" smooth="yes"/>
			<point x="82" y="327" type="line"/>
			<point x="107" y="374"/>
			<point x="143" y="398"/>
			<point x="192" y="399" type="curve" smooth="yes"/>
			<point x="219" y="399"/>
			<point x="243" y="391"/>
			<point x="264" y="375" type="curve" smooth="yes"/>
			<point x="309" y="340"/>
			<point x="332" y="276"/>
			<point x="332" y="185" type="curve" smooth="yes"/>
			<point x="332" y="100"/>
			<point x="307" y="-30"/>
		</contour>
		<contour>
			<point x="196" y="19" type="curve" smooth="yes"/>
			<point x="208" y="19"/>
			<point x="219" y="22"/>
			<point x="230" y="28" type="curve" smooth="yes"/>
			<point x="266" y="49"/>
			<point x="284" y="99"/>
			<point x="284" y="180" type="curve" smooth="yes"/>
			<point x="284" y="205"/>
			<point x="282" y="228"/>
			<point x="278" y="249" type="curve" smooth="yes"/>
			<point x="265" y="317"/>
			<point x="236" y="351"/>
			<point x="191" y="351" type="curve"/>
			<point x="168" y="350"/>
			<point x="148" y="341"/>
			<point x="131" y="322" type="curve"/>
			<point x="101" y="285"/>
			<point x="90" y="230"/>
			<point x="98" y="157" type="curve"/>
			<point x="98" y="154"/>
			<point x="99" y="150"/>
			<point x="100" y="143" type="curve"/>
			<point x="118" y="62"/>
			<point x="150" y="20"/>
		</contour>
	</outline>
	<note>
		tml_MatraE
	</note>
</glyph>
<glyph name="tml_MatraEe" format="1">
	<unicode hex="0BC7"/>
	<advance width="491"/>
	<outline>
		<contour>
			<point x="300" y="490" type="curve" smooth="yes"/>
			<point x="309" y="490"/>
			<point x="317" y="492"/>
			<point x="325" y="496" type="curve" smooth="yes"/>
			<point x="360" y="513"/>
			<point x="377" y="559"/>
			<point x="377" y="632" type="curve" smooth="yes"/>
			<point x="377" y="646"/>
			<point x="376" y="660"/>
			<point x="374" y="673" type="curve" smooth="yes"/>
			<point x="365" y="730"/>
			<point x="340" y="759"/>
			<point x="299" y="759" type="curve" smooth="yes"/>
			<point x="287" y="759"/>
			<point x="276" y="756"/>
			<point x="266" y="749" type="curve"/>
			<point x="236" y="730"/>
			<point x="221" y="691"/>
			<point x="220" y="632" type="curve" smooth="yes"/>
			<point x="219" y="575"/>
			<point x="231" y="490"/>
		</contour>
		<contour>
			<point x="292" y="-18" type="curve" smooth="yes"/>
			<point x="237" y="-18"/>
			<point x="188" y="-1"/>
			<point x="146" y="34" type="curve" smooth="yes"/>
			<point x="64" y="102"/>
			<point x="23" y="221"/>
			<point x="23" y="392" type="curve" smooth="yes"/>
			<point x="23" y="651"/>
			<point x="147" y="806"/>
			<point x="292" y="806" type="curve" smooth="yes"/>
			<point x="307" y="806"/>
			<point x="322" y="804"/>
			<point x="336" y="799" type="curve" smooth="yes"/>
			<point x="395" y="780"/>
			<point x="425" y="722"/>
			<point x="425" y="626" type="curve" smooth="yes"/>
			<point x="425" y="541"/>
			<point x="395" y="441"/>
			<point x="299" y="441" type="curve" smooth="yes"/>
			<point x="273" y="441"/>
			<point x="250" y="449"/>
			<point x="229" y="465" type="curve" smooth="yes"/>
			<point x="150" y="528"/>
			<point x="170" y="673"/>
			<point x="195" y="722" type="curve"/>
			<point x="178" y="709"/>
			<point x="163" y="692"/>
			<point x="148" y="672" type="curve" smooth="yes"/>
			<point x="98" y="601"/>
			<point x="73" y="508"/>
			<point x="73" y="392" type="curve" smooth="yes"/>
			<point x="73" y="363"/>
			<point x="75" y="334"/>
			<point x="78" y="306" type="curve" smooth="yes"/>
			<point x="92" y="181"/>
			<point x="134" y="96"/>
			<point x="203" y="53" type="curve"/>
			<point x="185" y="82"/>
			<point x="175" y="118"/>
			<point x="174" y="160" type="curve" smooth="yes"/>
			<point x="171" y="241"/>
			<point x="198" y="346"/>
			<point x="299" y="346" type="curve" smooth="yes"/>
			<point x="320" y="346"/>
			<point x="339" y="340"/>
			<point x="357" y="329" type="curve" smooth="yes"/>
			<point x="402" y="300"/>
			<point x="425" y="243"/>
			<point x="425" y="160" type="curve" smooth="yes"/>
			<point x="425" y="144"/>
			<point x="424" y="129"/>
			<point x="422" y="114" type="curve" smooth="yes"/>
			<point x="410" y="26"/>
			<point x="367" y="-18"/>
		</contour>
		<contour>
			<point x="299" y="27" type="line" smooth="yes"/>
			<point x="314" y="27"/>
			<point x="328" y="32"/>
			<point x="340" y="43" type="curve" smooth="yes"/>
			<point x="364" y="66"/>
			<point x="376" y="103"/>
			<point x="376" y="154" type="curve" smooth="yes"/>
			<point x="376" y="211"/>
			<point x="364" y="297"/>
			<point x="299" y="297" type="curve" smooth="yes"/>
			<point x="295" y="297"/>
			<point x="291" y="297"/>
			<point x="286" y="296" type="curve" smooth="yes"/>
			<point x="241" y="287"/>
			<point x="219" y="240"/>
			<point x="220" y="154" type="curve" smooth="yes"/>
			<point x="221" y="109"/>
			<point x="238" y="27"/>
			<point x="298" y="27" type="curve" smooth="yes"/>
		</contour>
	</outline>
	<note>
		tml_MatraEe
	</note>
</glyph>
<glyph name="tml_MatraAi" format="1">
	<unicode hex="0BC8"/>
	<advance width="975"/>
	<outline>
		<contour>
			<point x="187" y="-21" type="curve" smooth="yes"/>
			<point x="160" y="-21"/>
			<point x="135" y="-12"/>
			<point x="113" y="7" type="curve" smooth="yes"/>
			<point x="66" y="49"/>
			<point x="42" y="126"/>
			<point x="42" y="237" type="curve" smooth="yes"/>
			<point x="42" y="425"/>
			<point x="158" y="569"/>
			<point x="342" y="569" type="curve" smooth="yes"/>
			<point x="401" y="569"/>
			<point x="455" y="556"/>
			<point x="505" y="529" type="curve"/>
			<point x="589" y="581"/>
			<point x="712" y="578"/>
			<point x="789" y="542" type="curve" smooth="yes"/>
			<point x="888" y="496"/>
			<point x="936" y="401"/>
			<point x="933" y="256" type="curve" smooth="yes"/>
			<point x="932" y="163"/>
			<point x="912" y="8"/>
			<point x="756" y="-16" type="curve"/>
			<point x="748" y="32" type="line"/>
			<point x="765" y="35"/>
			<point x="782" y="43"/>
			<point x="799" y="55" type="curve" smooth="yes"/>
			<point x="854" y="96"/>
			<point x="882" y="165"/>
			<point x="882" y="264" type="curve" smooth="yes"/>
			<point x="882" y="377"/>
			<point x="842" y="521"/>
			<point x="657" y="521" type="curve" smooth="yes"/>
			<point x="616" y="521"/>
			<point x="581" y="513"/>
			<point x="551" y="498" type="curve"/>
			<point x="630" y="435"/>
			<point x="669" y="339"/>
			<point x="670" y="212" type="curve" smooth="yes"/>
			<point x="670" y="179"/>
			<point x="668" y="150"/>
			<point x="663" y="124" type="curve" smooth="yes"/>
			<point x="645" y="26"/>
			<point x="598" y="-23"/>
			<point x="521" y="-23" type="curve" smooth="yes"/>
			<point x="494" y="-23"/>
			<point x="469" y="-16"/>
			<point x="448" y="-2" type="curve" smooth="yes"/>
			<point x="395" y="34"/>
			<point x="368" y="106"/>
			<point x="368" y="213" type="curve" smooth="yes"/>
			<point x="368" y="338"/>
			<point x="399" y="432"/>
			<point x="462" y="495" type="curve"/>
			<point x="424" y="512"/>
			<point x="383" y="521"/>
			<point x="339" y="521" type="curve" smooth="yes"/>
			<point x="248" y="521"/>
			<point x="126" y="463"/>
			<point x="97" y="302" type="curve"/>
			<point x="146" y="371"/>
			<point x="217" y="361"/>
			<point x="254" y="336" type="curve" smooth="yes"/>
			<point x="299" y="305"/>
			<point x="322" y="250"/>
			<point x="322" y="171" type="curve" smooth="yes"/>
			<point x="322" y="86"/>
			<point x="290" y="-21"/>
		</contour>
		<contour>
			<point x="521" y="25" type="curve" smooth="yes"/>
			<point x="536" y="25"/>
			<point x="549" y="29"/>
			<point x="561" y="36" type="curve"/>
			<point x="640" y="87"/>
			<point x="656" y="361"/>
			<point x="507" y="469" type="curve"/>
			<point x="448" y="415"/>
			<point x="419" y="329"/>
			<point x="418" y="212" type="curve" smooth="yes"/>
			<point x="418" y="151"/>
			<point x="426" y="25"/>
		</contour>
		<contour>
			<point x="188" y="27" type="curve" smooth="yes"/>
			<point x="201" y="27"/>
			<point x="214" y="31"/>
			<point x="226" y="39" type="curve" smooth="yes"/>
			<point x="258" y="61"/>
			<point x="274" y="106"/>
			<point x="274" y="173" type="curve" smooth="yes"/>
			<point x="274" y="224"/>
			<point x="262" y="310"/>
			<point x="189" y="310" type="curve" smooth="yes"/>
			<point x="168" y="310"/>
			<point x="150" y="302"/>
			<point x="133" y="285" type="curve" smooth="yes"/>
			<point x="105" y="255"/>
			<point x="93" y="211"/>
			<point x="97" y="154" type="curve"/>
			<point x="110" y="71"/>
			<point x="140" y="28"/>
		</contour>
	</outline>
	<note>
		tml_MatraAi
	</note>
</glyph>
<glyph name="tml_MatraO" format="1">
	<unicode hex="0BCA"/>
	<advance width="1198"/>
	<outline>
		<contour>
			<point x="648" y="560" type="line"/>
			<point x="1100" y="560" type="line"/>
			<point x="1100" y="511" type="line"/>
			<point x="971" y="511" type="line"/>
			<point x="969" y="0" type="line"/>
			<point x="916" y="0" type="line"/>
			<point x="918" y="511" type="line"/>
			<point x="698" y="511" type="line"/>
			<point x="698" y="0" type="line"/>
			<point x="648" y="0" type="line"/>
		</contour>
		<contour>
			<point x="196" y="-30" type="curve" smooth="yes"/>
			<point x="169" y="-30"/>
			<point x="144" y="-21"/>
			<point x="123" y="-2" type="curve" smooth="yes"/>
			<point x="63" y="51"/>
			<point x="33" y="168"/>
			<point x="33" y="350" type="curve" smooth="yes"/>
			<point x="33" y="579"/>
			<point x="126" y="807"/>
			<point x="342" y="807" type="curve" smooth="yes"/>
			<point x="495" y="806"/>
			<point x="545" y="670"/>
			<point x="546" y="403" type="curve" smooth="yes"/>
			<point x="546" y="0" type="line"/>
			<point x="495" y="0" type="line"/>
			<point x="494" y="393" type="line"/>
			<point x="494" y="481"/>
			<point x="489" y="549"/>
			<point x="480" y="598" type="curve" smooth="yes"/>
			<point x="441" y="807"/>
			<point x="267" y="779"/>
			<point x="179" y="680" type="curve" smooth="yes"/>
			<point x="116" y="606"/>
			<point x="84" y="495"/>
			<point x="84" y="348" type="curve" smooth="yes"/>
			<point x="84" y="327" type="line"/>
			<point x="109" y="374"/>
			<point x="145" y="398"/>
			<point x="194" y="399" type="curve" smooth="yes"/>
			<point x="221" y="399"/>
			<point x="245" y="391"/>
			<point x="266" y="375" type="curve" smooth="yes"/>
			<point x="311" y="340"/>
			<point x="334" y="276"/>
			<point x="334" y="185" type="curve" smooth="yes"/>
			<point x="334" y="101"/>
			<point x="311" y="-30"/>
		</contour>
		<contour>
			<point x="198" y="19" type="curve" smooth="yes"/>
			<point x="210" y="19"/>
			<point x="221" y="22"/>
			<point x="232" y="28" type="curve" smooth="yes"/>
			<point x="268" y="49"/>
			<point x="286" y="99"/>
			<point x="286" y="180" type="curve" smooth="yes"/>
			<point x="286" y="205"/>
			<point x="284" y="228"/>
			<point x="280" y="249" type="curve" smooth="yes"/>
			<point x="267" y="317"/>
			<point x="238" y="351"/>
			<point x="193" y="351" type="curve"/>
			<point x="168" y="350"/>
			<point x="146" y="339"/>
			<point x="129" y="317" type="curve" smooth="yes"/>
			<point x="100" y="277"/>
			<point x="90" y="220"/>
			<point x="101" y="145" type="curve"/>
			<point x="101" y="143" type="line"/>
			<point x="119" y="62"/>
			<point x="151" y="20"/>
		</contour>
	</outline>
	<note>
		tml_MatraO
	</note>
</glyph>
<glyph name="tml_MatraOo" format="1">
	<unicode hex="0BCB"/>
	<advance width="1086"/>
	<outline>
		<contour>
			<point x="535" y="560" type="line"/>
			<point x="988" y="560" type="line"/>
			<point x="988" y="511" type="line"/>
			<point x="859" y="511" type="line"/>
			<point x="856" y="0" type="line"/>
			<point x="803" y="0" type="line"/>
			<point x="806" y="511" type="line"/>
			<point x="586" y="511" type="line"/>
			<point x="586" y="0" type="line"/>
			<point x="535" y="0" type="line"/>
		</contour>
		<contour>
			<point x="303" y="490" type="curve" smooth="yes"/>
			<point x="312" y="490"/>
			<point x="320" y="492"/>
			<point x="328" y="496" type="curve" smooth="yes"/>
			<point x="363" y="513"/>
			<point x="380" y="559"/>
			<point x="380" y="632" type="curve" smooth="yes"/>
			<point x="380" y="646"/>
			<point x="379" y="660"/>
			<point x="377" y="673" type="curve" smooth="yes"/>
			<point x="368" y="730"/>
			<point x="343" y="759"/>
			<point x="302" y="759" type="curve" smooth="yes"/>
			<point x="291" y="759"/>
			<point x="281" y="756"/>
			<point x="271" y="751" type="curve"/>
			<point x="240" y="733"/>
			<point x="224" y="693"/>
			<point x="223" y="632" type="curve" smooth="yes"/>
			<point x="222" y="575"/>
			<point x="234" y="490"/>
		</contour>
		<contour>
			<point x="295" y="-18" type="curve" smooth="yes"/>
			<point x="240" y="-18"/>
			<point x="191" y="-1"/>
			<point x="149" y="34" type="curve" smooth="yes"/>
			<point x="67" y="102"/>
			<point x="26" y="221"/>
			<point x="26" y="392" type="curve" smooth="yes"/>
			<point x="26" y="651"/>
			<point x="150" y="806"/>
			<point x="295" y="806" type="curve" smooth="yes"/>
			<point x="310" y="806"/>
			<point x="325" y="804"/>
			<point x="339" y="799" type="curve" smooth="yes"/>
			<point x="398" y="780"/>
			<point x="428" y="722"/>
			<point x="428" y="626" type="curve" smooth="yes"/>
			<point x="428" y="541"/>
			<point x="398" y="441"/>
			<point x="302" y="441" type="curve" smooth="yes"/>
			<point x="275" y="441"/>
			<point x="251" y="449"/>
			<point x="230" y="466" type="curve" smooth="yes"/>
			<point x="153" y="531"/>
			<point x="172" y="665"/>
			<point x="197" y="722" type="curve"/>
			<point x="181" y="709"/>
			<point x="166" y="693"/>
			<point x="152" y="674" type="curve" smooth="yes"/>
			<point x="101" y="603"/>
			<point x="76" y="509"/>
			<point x="76" y="392" type="curve" smooth="yes"/>
			<point x="76" y="359"/>
			<point x="78" y="328"/>
			<point x="82" y="298" type="curve" smooth="yes"/>
			<point x="97" y="176"/>
			<point x="138" y="94"/>
			<point x="206" y="53" type="curve"/>
			<point x="188" y="81"/>
			<point x="178" y="117"/>
			<point x="177" y="160" type="curve" smooth="yes"/>
			<point x="174" y="241"/>
			<point x="201" y="346"/>
			<point x="302" y="346" type="curve" smooth="yes"/>
			<point x="323" y="346"/>
			<point x="342" y="340"/>
			<point x="360" y="329" type="curve" smooth="yes"/>
			<point x="405" y="300"/>
			<point x="428" y="243"/>
			<point x="428" y="160" type="curve" smooth="yes"/>
			<point x="428" y="144"/>
			<point x="427" y="129"/>
			<point x="425" y="114" type="curve" smooth="yes"/>
			<point x="413" y="26"/>
			<point x="370" y="-18"/>
		</contour>
		<contour>
			<point x="301" y="27" type="curve" smooth="yes"/>
			<point x="316" y="27"/>
			<point x="330" y="32"/>
			<point x="342" y="43" type="curve" smooth="yes"/>
			<point x="367" y="65"/>
			<point x="379" y="102"/>
			<point x="379" y="154" type="curve" smooth="yes"/>
			<point x="379" y="211"/>
			<point x="367" y="297"/>
			<point x="302" y="297" type="curve" smooth="yes"/>
			<point x="297" y="297"/>
			<point x="291" y="296"/>
			<point x="285" y="295" type="curve"/>
			<point x="242" y="284"/>
			<point x="222" y="237"/>
			<point x="223" y="154" type="curve" smooth="yes"/>
			<point x="224" y="109"/>
			<point x="241" y="27"/>
		</contour>
	</outline>
	<note>
		tml_MatraOo
	</note>
</glyph>
<glyph name="tml_MatraAu" format="1">
	<unicode hex="0BCC"/>
	<advance width="1489"/>
	<outline>
		<contour>
			<point x="793" y="-21" type="curve" smooth="yes"/>
			<point x="766" y="-21"/>
			<point x="743" y="-12"/>
			<point x="722" y="5" type="curve" smooth="yes"/>
			<point x="673" y="46"/>
			<point x="649" y="123"/>
			<point x="649" y="238" type="curve" smooth="yes"/>
			<point x="649" y="319"/>
			<point x="662" y="388"/>
			<point x="689" y="445" type="curve" smooth="yes"/>
			<point x="769" y="613"/>
			<point x="963" y="601"/>
			<point x="1039" y="477" type="curve"/>
			<point x="1039" y="560" type="line"/>
			<point x="1470" y="560" type="line"/>
			<point x="1470" y="511" type="line"/>
			<point x="1338" y="511" type="line"/>
			<point x="1338" y="1" type="line"/>
			<point x="1287" y="1" type="line"/>
			<point x="1287" y="511" type="line"/>
			<point x="1089" y="511" type="line"/>
			<point x="1089" y="1" type="line"/>
			<point x="1037" y="1" type="line"/>
			<point x="1037" y="278" type="line" smooth="yes"/>
			<point x="1037" y="379"/>
			<point x="1014" y="524"/>
			<point x="877" y="524" type="curve" smooth="yes"/>
			<point x="848" y="524"/>
			<point x="822" y="516"/>
			<point x="798" y="501" type="curve" smooth="yes"/>
			<point x="743" y="465"/>
			<point x="710" y="397"/>
			<point x="700" y="296" type="curve"/>
			<point x="725" y="335"/>
			<point x="758" y="354"/>
			<point x="799" y="355" type="curve" smooth="yes"/>
			<point x="822" y="355"/>
			<point x="843" y="348"/>
			<point x="862" y="335" type="curve" smooth="yes"/>
			<point x="907" y="304"/>
			<point x="929" y="249"/>
			<point x="929" y="171" type="curve" smooth="yes"/>
			<point x="929" y="86"/>
			<point x="896" y="-21"/>
		</contour>
		<contour>
			<point x="795" y="29" type="curve" smooth="yes"/>
			<point x="808" y="29"/>
			<point x="820" y="32"/>
			<point x="831" y="39" type="curve" smooth="yes"/>
			<point x="864" y="60"/>
			<point x="881" y="105"/>
			<point x="881" y="173" type="curve" smooth="yes"/>
			<point x="881" y="225"/>
			<point x="869" y="310"/>
			<point x="796" y="310" type="curve" smooth="yes"/>
			<point x="775" y="310"/>
			<point x="757" y="302"/>
			<point x="741" y="286" type="curve" smooth="yes"/>
			<point x="712" y="256"/>
			<point x="700" y="211"/>
			<point x="704" y="150" type="curve"/>
			<point x="718" y="71"/>
			<point x="748" y="30"/>
		</contour>
		<contour>
			<point x="196" y="-30" type="curve" smooth="yes"/>
			<point x="169" y="-30"/>
			<point x="144" y="-21"/>
			<point x="123" y="-2" type="curve" smooth="yes"/>
			<point x="63" y="51"/>
			<point x="33" y="168"/>
			<point x="33" y="350" type="curve" smooth="yes"/>
			<point x="33" y="579"/>
			<point x="126" y="807"/>
			<point x="342" y="807" type="curve" smooth="yes"/>
			<point x="495" y="806"/>
			<point x="545" y="670"/>
			<point x="546" y="403" type="curve" smooth="yes"/>
			<point x="546" y="0" type="line"/>
			<point x="495" y="0" type="line"/>
			<point x="494" y="393" type="line"/>
			<point x="494" y="481"/>
			<point x="489" y="549"/>
			<point x="480" y="598" type="curve" smooth="yes"/>
			<point x="441" y="807"/>
			<point x="267" y="779"/>
			<point x="179" y="680" type="curve" smooth="yes"/>
			<point x="116" y="606"/>
			<point x="84" y="495"/>
			<point x="84" y="348" type="curve" smooth="yes"/>
			<point x="84" y="327" type="line"/>
			<point x="109" y="374"/>
			<point x="145" y="398"/>
			<point x="194" y="399" type="curve" smooth="yes"/>
			<point x="221" y="399"/>
			<point x="245" y="391"/>
			<point x="266" y="375" type="curve" smooth="yes"/>
			<point x="311" y="340"/>
			<point x="334" y="276"/>
			<point x="334" y="185" type="curve" smooth="yes"/>
			<point x="334" y="101"/>
			<point x="311" y="-30"/>
		</contour>
		<contour>
			<point x="198" y="19" type="curve" smooth="yes"/>
			<point x="210" y="19"/>
			<point x="221" y="22"/>
			<point x="232" y="28" type="curve" smooth="yes"/>
			<point x="268" y="49"/>
			<point x="286" y="99"/>
			<point x="286" y="180" type="curve" smooth="yes"/>
			<point x="286" y="205"/>
			<point x="284" y="228"/>
			<point x="280" y="249" type="curve" smooth="yes"/>
			<point x="267" y="317"/>
			<point x="238" y="351"/>
			<point x="193" y="351" type="curve"/>
			<point x="168" y="350"/>
			<point x="146" y="339"/>
			<point x="129" y="317" type="curve" smooth="yes"/>
			<point x="100" y="277"/>
			<point x="90" y="220"/>
			<point x="101" y="145" type="curve"/>
			<point x="101" y="143" type="line"/>
			<point x="119" y="62"/>
			<point x="151" y="20"/>
		</contour>
	</outline>
	<note>
		tml_MatraAu
	</note>
</glyph>
<glyph name="tml_Virama" format="1">
	<unicode hex="0BCD"/>
	<outline>
		<contour>
			<point x="-108" y="685" type="curve" smooth="yes"/>
			<point x="-108" y="670"/>
			<point x="-105" y="654"/>
			<point x="-98" y="642" type="curve"/>
			<point x="-80" y="599"/>
			<point x="-47" y="576"/>
			<point x="1" y="576" type="curve" smooth="yes"/>
			<point x="13" y="576"/>
			<point x="26" y="579"/>
			<point x="39" y="584" type="curve" smooth="yes"/>
			<point x="84" y="601"/>
			<point x="107" y="637"/>
			<point x="107" y="685" type="curve" smooth="yes"/>
			<point x="107" y="697"/>
			<point x="104" y="713"/>
			<point x="99" y="725" type="curve" smooth="yes"/>
			<point x="82" y="768"/>
			<point x="49" y="791"/>
			<point x="1" y="791" type="curve" smooth="yes"/>
			<point x="-14" y="791"/>
			<point x="-30" y="788"/>
			<point x="-42" y="783" type="curve"/>
			<point x="-85" y="763"/>
			<point x="-108" y="730"/>
		</contour>
	</outline>
	<note>
		tml_Virama
	</note>
</glyph>
<glyph name="tml_Om" format="1">
	<unicode hex="0BD0"/>
	<advance width="709"/>
	<outline>
		<contour>
			<point x="176" y="23" type="line"/>
			<point x="176" y="-2"/>
			<point x="185" y="-27"/>
			<point x="203" y="-51" type="curve" smooth="yes"/>
			<point x="234" y="-94"/>
			<point x="278" y="-115"/>
			<point x="333" y="-115" type="curve" smooth="yes"/>
			<point x="394" y="-115"/>
			<point x="487" y="-82"/>
			<point x="496" y="31" type="curve"/>
			<point x="483" y="32"/>
			<point x="470" y="36"/>
			<point x="457" y="41" type="curve"/>
			<point x="410" y="61"/>
			<point x="387" y="104"/>
			<point x="387" y="169" type="curve" smooth="yes"/>
			<point x="387" y="299" type="line"/>
			<point x="436" y="299" type="line"/>
			<point x="436" y="290"/>
			<point x="437" y="282"/>
			<point x="438" y="273" type="curve"/>
			<point x="447" y="224"/>
			<point x="472" y="200"/>
			<point x="513" y="200" type="curve" smooth="yes"/>
			<point x="530" y="200"/>
			<point x="545" y="204"/>
			<point x="559" y="212" type="curve" smooth="yes"/>
			<point x="598" y="234"/>
			<point x="617" y="278"/>
			<point x="617" y="345" type="curve"/>
			<point x="616" y="470"/>
			<point x="502" y="561"/>
			<point x="366" y="561" type="curve" smooth="yes"/>
			<point x="331" y="561"/>
			<point x="297" y="556"/>
			<point x="266" y="545" type="curve" smooth="yes"/>
			<point x="193" y="521"/>
			<point x="141" y="474"/>
			<point x="112" y="404" type="curve"/>
			<point x="133" y="416"/>
			<point x="156" y="422"/>
			<point x="182" y="422" type="curve" smooth="yes"/>
			<point x="206" y="422"/>
			<point x="228" y="415"/>
			<point x="249" y="401" type="curve" smooth="yes"/>
			<point x="286" y="376"/>
			<point x="304" y="337"/>
			<point x="304" y="285" type="curve" smooth="yes"/>
			<point x="304" y="225"/>
			<point x="268" y="146"/>
			<point x="177" y="146" type="curve" smooth="yes"/>
			<point x="154" y="146"/>
			<point x="133" y="151"/>
			<point x="114" y="160" type="curve" smooth="yes"/>
			<point x="66" y="184"/>
			<point x="42" y="233"/>
			<point x="42" y="307" type="curve" smooth="yes"/>
			<point x="42" y="459"/>
			<point x="143" y="610"/>
			<point x="366" y="610" type="curve" smooth="yes"/>
			<point x="527" y="610"/>
			<point x="667" y="505"/>
			<point x="667" y="341" type="curve" smooth="yes"/>
			<point x="667" y="252"/>
			<point x="621" y="152"/>
			<point x="513" y="152" type="curve" smooth="yes"/>
			<point x="482" y="152"/>
			<point x="456" y="161"/>
			<point x="435" y="179" type="curve"/>
			<point x="435" y="168" type="line" smooth="yes"/>
			<point x="436" y="108"/>
			<point x="461" y="77"/>
			<point x="510" y="76" type="curve" smooth="yes"/>
			<point x="631" y="76" type="line"/>
			<point x="631" y="29" type="line"/>
			<point x="545" y="29" type="line"/>
			<point x="541" y="-62"/>
			<point x="469" y="-164"/>
			<point x="333" y="-164" type="curve" smooth="yes"/>
			<point x="236" y="-164"/>
			<point x="126" y="-96"/>
			<point x="126" y="23" type="curve"/>
		</contour>
		<contour>
			<point x="277" y="53" type="line"/>
			<point x="301" y="53" type="line"/>
			<point x="301" y="-47" type="line"/>
			<point x="330" y="-47" type="line"/>
			<point x="330" y="27" type="line"/>
			<point x="331" y="46"/>
			<point x="340" y="57"/>
			<point x="358" y="58" type="curve"/>
			<point x="366" y="58"/>
			<point x="374" y="56"/>
			<point x="381" y="53" type="curve"/>
			<point x="400" y="42"/>
			<point x="410" y="24"/>
			<point x="410" y="-1" type="curve" smooth="yes"/>
			<point x="410" y="-12"/>
			<point x="408" y="-23"/>
			<point x="404" y="-33" type="curve"/>
			<point x="395" y="-58"/>
			<point x="379" y="-71"/>
			<point x="356" y="-71" type="curve" smooth="yes"/>
			<point x="277" y="-71" type="line"/>
		</contour>
		<contour>
			<point x="353" y="-47" type="line"/>
			<point x="356" y="-47"/>
			<point x="358" y="-47"/>
			<point x="361" y="-46" type="curve"/>
			<point x="378" y="-41"/>
			<point x="386" y="-26"/>
			<point x="386" y="-1" type="curve"/>
			<point x="384" y="18"/>
			<point x="377" y="30"/>
			<point x="365" y="33" type="curve"/>
			<point x="358" y="32"/>
			<point x="354" y="28"/>
			<point x="353" y="20" type="curve"/>
		</contour>
		<contour>
			<point x="315" y="86" type="curve"/>
			<point x="316" y="99"/>
			<point x="322" y="106"/>
			<point x="333" y="107" type="curve"/>
			<point x="334" y="107"/>
			<point x="336" y="107"/>
			<point x="338" y="106" type="curve"/>
			<point x="358" y="102"/>
			<point x="358" y="71"/>
			<point x="333" y="68" type="curve"/>
			<point x="322" y="69"/>
			<point x="316" y="75"/>
		</contour>
		<contour>
			<point x="173" y="194" type="curve" smooth="yes"/>
			<point x="188" y="194"/>
			<point x="201" y="197"/>
			<point x="214" y="204" type="curve"/>
			<point x="243" y="221"/>
			<point x="257" y="248"/>
			<point x="257" y="286" type="curve" smooth="yes"/>
			<point x="257" y="299"/>
			<point x="255" y="312"/>
			<point x="251" y="323" type="curve" smooth="yes"/>
			<point x="238" y="358"/>
			<point x="214" y="375"/>
			<point x="177" y="375" type="curve" smooth="yes"/>
			<point x="164" y="375"/>
			<point x="153" y="373"/>
			<point x="142" y="369" type="curve" smooth="yes"/>
			<point x="108" y="357"/>
			<point x="91" y="331"/>
			<point x="90" y="290" type="curve"/>
			<point x="91" y="277"/>
			<point x="93" y="264"/>
			<point x="96" y="252" type="curve"/>
			<point x="109" y="213"/>
			<point x="134" y="194"/>
		</contour>
	</outline>
	<note>
		tml_Om
	</note>
</glyph>
<glyph name="tml_AuLengthmark" format="1">
	<unicode hex="0BD7"/>
	<advance width="864"/>
	<outline>
		<contour>
			<point x="190" y="-21" type="curve" smooth="yes"/>
			<point x="163" y="-21"/>
			<point x="138" y="-12"/>
			<point x="117" y="6" type="curve" smooth="yes"/>
			<point x="69" y="47"/>
			<point x="45" y="125"/>
			<point x="45" y="238" type="curve" smooth="yes"/>
			<point x="45" y="320"/>
			<point x="58" y="389"/>
			<point x="85" y="445" type="curve" smooth="yes"/>
			<point x="166" y="613"/>
			<point x="360" y="601"/>
			<point x="436" y="477" type="curve"/>
			<point x="436" y="560" type="line"/>
			<point x="866" y="560" type="line"/>
			<point x="866" y="511" type="line"/>
			<point x="735" y="511" type="line"/>
			<point x="735" y="1" type="line"/>
			<point x="684" y="1" type="line"/>
			<point x="684" y="511" type="line"/>
			<point x="485" y="511" type="line"/>
			<point x="485" y="1" type="line"/>
			<point x="434" y="1" type="line"/>
			<point x="434" y="278" type="line" smooth="yes"/>
			<point x="434" y="379"/>
			<point x="411" y="524"/>
			<point x="274" y="524" type="curve" smooth="yes"/>
			<point x="244" y="524"/>
			<point x="217" y="516"/>
			<point x="193" y="500" type="curve" smooth="yes"/>
			<point x="139" y="464"/>
			<point x="107" y="396"/>
			<point x="97" y="297" type="curve"/>
			<point x="122" y="335"/>
			<point x="155" y="354"/>
			<point x="196" y="355" type="curve" smooth="yes"/>
			<point x="218" y="355"/>
			<point x="238" y="349"/>
			<point x="257" y="336" type="curve" smooth="yes"/>
			<point x="302" y="305"/>
			<point x="325" y="250"/>
			<point x="325" y="171" type="curve" smooth="yes"/>
			<point x="325" y="86"/>
			<point x="294" y="-21"/>
		</contour>
		<contour>
			<point x="191" y="29" type="curve" smooth="yes"/>
			<point x="204" y="29"/>
			<point x="217" y="32"/>
			<point x="228" y="39" type="curve" smooth="yes"/>
			<point x="261" y="60"/>
			<point x="278" y="105"/>
			<point x="278" y="173" type="curve" smooth="yes"/>
			<point x="278" y="224"/>
			<point x="268" y="310"/>
			<point x="192" y="310" type="curve" smooth="yes"/>
			<point x="172" y="310"/>
			<point x="154" y="302"/>
			<point x="139" y="287" type="curve" smooth="yes"/>
			<point x="110" y="257"/>
			<point x="97" y="211"/>
			<point x="101" y="150" type="curve"/>
			<point x="115" y="71"/>
			<point x="145" y="30"/>
		</contour>
	</outline>
	<note>
		tml_AuLengthmark
	</note>
</glyph>
<glyph name="tml_One" format="1">
	<unicode hex="0BE7"/>
	<advance width="664"/>
	<outline>
		<contour>
			<point x="437" y="49" type="line"/>
			<point x="453" y="49" type="line" smooth="yes"/>
			<point x="457" y="49"/>
			<point x="462" y="49"/>
			<point x="467" y="49" type="curve"/>
			<point x="538" y="54"/>
			<point x="574" y="93"/>
			<point x="574" y="167" type="curve" smooth="yes"/>
			<point x="574" y="171"/>
			<point x="574" y="175"/>
			<point x="574" y="179" type="curve"/>
			<point x="569" y="254"/>
			<point x="522" y="292"/>
			<point x="432" y="292" type="curve" smooth="yes"/>
			<point x="405" y="292" type="line"/>
			<point x="405" y="207" type="line" smooth="yes"/>
			<point x="405" y="180"/>
			<point x="402" y="155"/>
			<point x="397" y="132" type="curve" smooth="yes"/>
			<point x="376" y="44"/>
			<point x="319" y="0"/>
			<point x="226" y="0" type="curve" smooth="yes"/>
			<point x="189" y="0"/>
			<point x="157" y="7"/>
			<point x="129" y="22" type="curve" smooth="yes"/>
			<point x="73" y="51"/>
			<point x="44" y="102"/>
			<point x="42" y="175" type="curve" smooth="yes"/>
			<point x="41" y="198"/>
			<point x="44" y="220"/>
			<point x="51" y="241" type="curve" smooth="yes"/>
			<point x="68" y="294"/>
			<point x="105" y="326"/>
			<point x="160" y="337" type="curve"/>
			<point x="160" y="560" type="line"/>
			<point x="525" y="560" type="line"/>
			<point x="525" y="511" type="line"/>
			<point x="405" y="511" type="line"/>
			<point x="405" y="341" type="line"/>
			<point x="445" y="341" type="line" smooth="yes"/>
			<point x="455" y="341"/>
			<point x="465" y="341"/>
			<point x="476" y="340" type="curve" smooth="yes"/>
			<point x="672" y="319"/>
			<point x="677" y="3"/>
			<point x="458" y="0" type="curve" smooth="yes"/>
			<point x="437" y="0" type="line"/>
		</contour>
		<contour>
			<point x="207" y="341" type="line"/>
			<point x="355" y="341" type="line"/>
			<point x="355" y="511" type="line"/>
			<point x="207" y="511" type="line"/>
		</contour>
		<contour>
			<point x="222" y="49" type="curve" smooth="yes"/>
			<point x="237" y="49"/>
			<point x="251" y="51"/>
			<point x="265" y="55" type="curve" smooth="yes"/>
			<point x="324" y="72"/>
			<point x="354" y="123"/>
			<point x="354" y="207" type="curve" smooth="yes"/>
			<point x="354" y="289" type="line"/>
			<point x="354" y="292" type="line"/>
			<point x="215" y="292" type="line" smooth="yes"/>
			<point x="195" y="292"/>
			<point x="177" y="289"/>
			<point x="160" y="283" type="curve" smooth="yes"/>
			<point x="115" y="266"/>
			<point x="92" y="231"/>
			<point x="92" y="176" type="curve" smooth="yes"/>
			<point x="92" y="151"/>
			<point x="97" y="129"/>
			<point x="108" y="110" type="curve" smooth="yes"/>
			<point x="131" y="69"/>
			<point x="169" y="49"/>
		</contour>
	</outline>
	<note>
		tml_One
	</note>
</glyph>
<glyph name="tml_Two" format="1">
	<unicode hex="0BE8"/>
	<advance width="567"/>
	<outline>
		<contour>
			<point x="181" y="287" type="curve" smooth="yes"/>
			<point x="196" y="287"/>
			<point x="211" y="291"/>
			<point x="224" y="298" type="curve"/>
			<point x="252" y="315"/>
			<point x="266" y="343"/>
			<point x="266" y="384" type="curve" smooth="yes"/>
			<point x="266" y="401"/>
			<point x="263" y="416"/>
			<point x="257" y="429" type="curve" smooth="yes"/>
			<point x="242" y="460"/>
			<point x="215" y="475"/>
			<point x="176" y="475" type="curve" smooth="yes"/>
			<point x="165" y="475"/>
			<point x="154" y="473"/>
			<point x="143" y="469" type="curve" smooth="yes"/>
			<point x="108" y="456"/>
			<point x="90" y="425"/>
			<point x="90" y="376" type="curve" smooth="yes"/>
			<point x="90" y="362"/>
			<point x="93" y="348"/>
			<point x="100" y="335" type="curve" smooth="yes"/>
			<point x="117" y="303"/>
			<point x="144" y="287"/>
		</contour>
		<contour>
			<point x="166" y="0" type="line"/>
			<point x="153" y="1"/>
			<point x="140" y="2"/>
			<point x="129" y="4" type="curve" smooth="yes"/>
			<point x="75" y="15"/>
			<point x="48" y="45"/>
			<point x="48" y="94" type="curve" smooth="yes"/>
			<point x="48" y="113"/>
			<point x="52" y="129"/>
			<point x="61" y="144" type="curve" smooth="yes"/>
			<point x="80" y="175"/>
			<point x="112" y="191"/>
			<point x="157" y="191" type="curve" smooth="yes"/>
			<point x="229" y="191" type="line" smooth="yes"/>
			<point x="357" y="192"/>
			<point x="422" y="249"/>
			<point x="423" y="362" type="curve" smooth="yes"/>
			<point x="423" y="458"/>
			<point x="364" y="542"/>
			<point x="244" y="542" type="curve" smooth="yes"/>
			<point x="209" y="542"/>
			<point x="178" y="533"/>
			<point x="153" y="516" type="curve"/>
			<point x="164" y="517"/>
			<point x="173" y="518"/>
			<point x="180" y="518" type="curve" smooth="yes"/>
			<point x="201" y="518"/>
			<point x="222" y="514"/>
			<point x="241" y="505" type="curve" smooth="yes"/>
			<point x="290" y="483"/>
			<point x="314" y="442"/>
			<point x="314" y="383" type="curve" smooth="yes"/>
			<point x="314" y="322"/>
			<point x="279" y="239"/>
			<point x="180" y="239" type="curve" smooth="yes"/>
			<point x="151" y="239"/>
			<point x="126" y="247"/>
			<point x="103" y="263" type="curve" smooth="yes"/>
			<point x="62" y="292"/>
			<point x="42" y="337"/>
			<point x="42" y="397" type="curve" smooth="yes"/>
			<point x="42" y="481"/>
			<point x="95" y="588"/>
			<point x="247" y="589" type="curve" smooth="yes"/>
			<point x="358" y="589"/>
			<point x="474" y="523"/>
			<point x="474" y="363" type="curve" smooth="yes"/>
			<point x="474" y="329"/>
			<point x="469" y="298"/>
			<point x="458" y="270" type="curve" smooth="yes"/>
			<point x="427" y="187"/>
			<point x="356" y="144"/>
			<point x="246" y="142" type="curve" smooth="yes"/>
			<point x="159" y="141" type="line" smooth="yes"/>
			<point x="154" y="141"/>
			<point x="149" y="141"/>
			<point x="144" y="140" type="curve"/>
			<point x="87" y="131"/>
			<point x="80" y="50"/>
			<point x="168" y="49" type="curve" smooth="yes"/>
			<point x="525" y="49" type="line"/>
			<point x="525" y="0" type="line"/>
		</contour>
	</outline>
	<note>
		tml_Two
	</note>
</glyph>
<glyph name="tml_Three" format="1">
	<unicode hex="0BE9"/>
	<advance width="698"/>
	<outline>
		<contour>
			<point x="51" y="560" type="line"/>
			<point x="414" y="560" type="line"/>
			<point x="414" y="511" type="line"/>
			<point x="304" y="511" type="line"/>
			<point x="304" y="366" type="line"/>
			<point x="349" y="421"/>
			<point x="424" y="413"/>
			<point x="463" y="392" type="curve" smooth="yes"/>
			<point x="508" y="366"/>
			<point x="530" y="319"/>
			<point x="530" y="250" type="curve" smooth="yes"/>
			<point x="530" y="156"/>
			<point x="497" y="89"/>
			<point x="430" y="49" type="curve"/>
			<point x="667" y="49" type="line"/>
			<point x="667" y="0" type="line"/>
			<point x="253" y="0" type="line"/>
			<point x="253" y="49" type="line"/>
			<point x="271" y="49" type="line" smooth="yes"/>
			<point x="380" y="49"/>
			<point x="480" y="107"/>
			<point x="480" y="246" type="curve" smooth="yes"/>
			<point x="480" y="259"/>
			<point x="479" y="271"/>
			<point x="477" y="282" type="curve" smooth="yes"/>
			<point x="467" y="335"/>
			<point x="438" y="362"/>
			<point x="389" y="362" type="curve" smooth="yes"/>
			<point x="372" y="362"/>
			<point x="357" y="358"/>
			<point x="344" y="350" type="curve" smooth="yes"/>
			<point x="317" y="333"/>
			<point x="304" y="306"/>
			<point x="304" y="271" type="curve" smooth="yes"/>
			<point x="304" y="164" type="line"/>
			<point x="253" y="164" type="line"/>
			<point x="253" y="511" type="line"/>
			<point x="102" y="511" type="line"/>
			<point x="102" y="0" type="line"/>
			<point x="51" y="0" type="line"/>
		</contour>
	</outline>
	<note>
		tml_Three
	</note>
</glyph>
<glyph name="tml_Four" format="1">
	<unicode hex="0BEA"/>
	<advance width="678"/>
	<outline>
		<contour>
			<point x="209" y="341" type="line"/>
			<point x="357" y="341" type="line"/>
			<point x="357" y="511" type="line"/>
			<point x="209" y="511" type="line"/>
		</contour>
		<contour>
			<point x="224" y="48" type="curve" smooth="yes"/>
			<point x="239" y="48"/>
			<point x="253" y="50"/>
			<point x="267" y="54" type="curve" smooth="yes"/>
			<point x="326" y="72"/>
			<point x="355" y="123"/>
			<point x="355" y="207" type="curve" smooth="yes"/>
			<point x="355" y="289" type="line"/>
			<point x="355" y="292" type="line"/>
			<point x="216" y="292" type="line" smooth="yes"/>
			<point x="196" y="292"/>
			<point x="178" y="289"/>
			<point x="161" y="283" type="curve" smooth="yes"/>
			<point x="116" y="266"/>
			<point x="93" y="231"/>
			<point x="93" y="176" type="curve" smooth="yes"/>
			<point x="93" y="151"/>
			<point x="99" y="128"/>
			<point x="111" y="107" type="curve" smooth="yes"/>
			<point x="134" y="68"/>
			<point x="172" y="48"/>
		</contour>
		<contour>
			<point x="588" y="560" type="line"/>
			<point x="636" y="560" type="line"/>
			<point x="636" y="292" type="line"/>
			<point x="406" y="292" type="line"/>
			<point x="406" y="207" type="line" smooth="yes"/>
			<point x="406" y="180"/>
			<point x="403" y="154"/>
			<point x="397" y="131" type="curve" smooth="yes"/>
			<point x="376" y="43"/>
			<point x="319" y="-1"/>
			<point x="227" y="-1" type="curve" smooth="yes"/>
			<point x="152" y="-1"/>
			<point x="47" y="32"/>
			<point x="44" y="175" type="curve" smooth="yes"/>
			<point x="43" y="199"/>
			<point x="47" y="222"/>
			<point x="54" y="243" type="curve" smooth="yes"/>
			<point x="71" y="294"/>
			<point x="107" y="326"/>
			<point x="161" y="337" type="curve"/>
			<point x="161" y="560" type="line"/>
			<point x="526" y="560" type="line"/>
			<point x="526" y="511" type="line"/>
			<point x="406" y="511" type="line"/>
			<point x="406" y="341" type="line"/>
			<point x="588" y="341" type="line"/>
		</contour>
	</outline>
	<note>
		tml_Four
	</note>
</glyph>
<glyph name="tml_Five" format="1">
	<unicode hex="0BEB"/>
	<advance width="1117"/>
	<outline>
		<contour>
			<point x="342" y="560" type="line"/>
			<point x="755" y="560" type="line"/>
			<point x="755" y="511" type="line"/>
			<point x="638" y="511" type="line"/>
			<point x="638" y="304" type="line"/>
			<point x="681" y="352"/>
			<point x="755" y="352"/>
			<point x="803" y="309" type="curve" smooth="yes"/>
			<point x="849" y="269"/>
			<point x="872" y="203"/>
			<point x="872" y="110" type="curve" smooth="yes"/>
			<point x="872" y="35"/>
			<point x="858" y="-31"/>
			<point x="830" y="-89" type="curve" smooth="yes"/>
			<point x="771" y="-207"/>
			<point x="663" y="-266"/>
			<point x="505" y="-265" type="curve" smooth="yes"/>
			<point x="490" y="-265"/>
			<point x="475" y="-264"/>
			<point x="460" y="-263" type="curve"/>
			<point x="237" y="-239"/>
			<point x="42" y="-50"/>
			<point x="42" y="253" type="curve" smooth="yes"/>
			<point x="42" y="572"/>
			<point x="226" y="800"/>
			<point x="541" y="801" type="curve" smooth="yes"/>
			<point x="862" y="801"/>
			<point x="1065" y="614"/>
			<point x="1065" y="310" type="curve" smooth="yes"/>
			<point x="1065" y="-1" type="line"/>
			<point x="1013" y="-1" type="line"/>
			<point x="1013" y="284" type="line" smooth="yes"/>
			<point x="1013" y="579"/>
			<point x="835" y="750"/>
			<point x="547" y="750" type="curve" smooth="yes"/>
			<point x="312" y="750"/>
			<point x="94" y="613"/>
			<point x="94" y="253" type="curve" smooth="yes"/>
			<point x="94" y="239"/>
			<point x="95" y="225"/>
			<point x="96" y="211" type="curve" smooth="yes"/>
			<point x="113" y="-38"/>
			<point x="291" y="-216"/>
			<point x="515" y="-215" type="curve" smooth="yes"/>
			<point x="706" y="-214"/>
			<point x="822" y="-84"/>
			<point x="822" y="111" type="curve" smooth="yes"/>
			<point x="822" y="208"/>
			<point x="789" y="295"/>
			<point x="714" y="295" type="curve" smooth="yes"/>
			<point x="698" y="295"/>
			<point x="684" y="290"/>
			<point x="671" y="281" type="curve"/>
			<point x="649" y="264"/>
			<point x="638" y="238"/>
			<point x="638" y="204" type="curve" smooth="yes"/>
			<point x="638" y="0" type="line"/>
			<point x="587" y="0" type="line"/>
			<point x="587" y="511" type="line"/>
			<point x="393" y="511" type="line"/>
			<point x="393" y="0" type="line"/>
			<point x="342" y="0" type="line"/>
		</contour>
	</outline>
	<note>
		tml_Five
	</note>
</glyph>
<glyph name="tml_Six" format="1">
	<unicode hex="0BEC"/>
	<advance width="886"/>
	<outline>
		<contour>
			<point x="207" y="341" type="line"/>
			<point x="355" y="341" type="line"/>
			<point x="355" y="511" type="line"/>
			<point x="207" y="511" type="line"/>
		</contour>
		<contour>
			<point x="226" y="-1" type="curve" smooth="yes"/>
			<point x="189" y="-1"/>
			<point x="156" y="7"/>
			<point x="128" y="22" type="curve" smooth="yes"/>
			<point x="73" y="51"/>
			<point x="44" y="102"/>
			<point x="42" y="175" type="curve" smooth="yes"/>
			<point x="41" y="199"/>
			<point x="45" y="222"/>
			<point x="52" y="243" type="curve" smooth="yes"/>
			<point x="69" y="294"/>
			<point x="105" y="326"/>
			<point x="160" y="337" type="curve"/>
			<point x="160" y="560" type="line"/>
			<point x="525" y="560" type="line"/>
			<point x="525" y="511" type="line"/>
			<point x="404" y="511" type="line"/>
			<point x="404" y="341" type="line"/>
			<point x="447" y="341" type="line" smooth="yes"/>
			<point x="492" y="340"/>
			<point x="527" y="322"/>
			<point x="552" y="286" type="curve"/>
			<point x="581" y="322"/>
			<point x="623" y="340"/>
			<point x="679" y="341" type="curve" smooth="yes"/>
			<point x="844" y="341" type="line"/>
			<point x="844" y="292" type="line"/>
			<point x="762" y="292" type="line"/>
			<point x="762" y="0" type="line"/>
			<point x="712" y="0" type="line"/>
			<point x="712" y="292" type="line"/>
			<point x="641" y="292"/>
			<point x="574" y="288"/>
			<point x="574" y="185" type="curve" smooth="yes"/>
			<point x="574" y="0" type="line"/>
			<point x="525" y="0" type="line"/>
			<point x="525" y="209" type="line" smooth="yes"/>
			<point x="525" y="215"/>
			<point x="524" y="221"/>
			<point x="523" y="228" type="curve"/>
			<point x="514" y="271"/>
			<point x="486" y="292"/>
			<point x="438" y="292" type="curve" smooth="yes"/>
			<point x="404" y="292" type="line"/>
			<point x="404" y="207" type="line" smooth="yes"/>
			<point x="404" y="181"/>
			<point x="402" y="157"/>
			<point x="397" y="135" type="curve" smooth="yes"/>
			<point x="376" y="44"/>
			<point x="319" y="-1"/>
		</contour>
		<contour>
			<point x="222" y="48" type="curve" smooth="yes"/>
			<point x="238" y="48"/>
			<point x="253" y="50"/>
			<point x="266" y="54" type="curve" smooth="yes"/>
			<point x="325" y="73"/>
			<point x="354" y="124"/>
			<point x="354" y="207" type="curve" smooth="yes"/>
			<point x="354" y="289" type="line"/>
			<point x="354" y="292" type="line"/>
			<point x="214" y="292" type="line" smooth="yes"/>
			<point x="194" y="292"/>
			<point x="176" y="289"/>
			<point x="160" y="283" type="curve" smooth="yes"/>
			<point x="115" y="266"/>
			<point x="92" y="231"/>
			<point x="92" y="176" type="curve" smooth="yes"/>
			<point x="92" y="151"/>
			<point x="98" y="129"/>
			<point x="109" y="108" type="curve"/>
			<point x="132" y="68"/>
			<point x="170" y="48"/>
		</contour>
	</outline>
	<note>
		tml_Six
	</note>
</glyph>
<glyph name="tml_Seven" format="1">
	<unicode hex="0BED"/>
	<advance width="539"/>
	<outline>
		<contour>
			<point x="186" y="-24" type="curve" smooth="yes"/>
			<point x="159" y="-24"/>
			<point x="136" y="-15"/>
			<point x="115" y="2" type="curve" smooth="yes"/>
			<point x="66" y="43"/>
			<point x="42" y="121"/>
			<point x="42" y="235" type="curve" smooth="yes"/>
			<point x="42" y="391"/>
			<point x="97" y="560"/>
			<point x="270" y="560" type="curve" smooth="yes"/>
			<point x="488" y="560" type="line"/>
			<point x="488" y="0" type="line"/>
			<point x="437" y="0" type="line"/>
			<point x="437" y="512" type="line"/>
			<point x="272" y="512" type="line" smooth="yes"/>
			<point x="245" y="512"/>
			<point x="221" y="506"/>
			<point x="198" y="494" type="curve" smooth="yes"/>
			<point x="139" y="461"/>
			<point x="104" y="395"/>
			<point x="94" y="294" type="curve"/>
			<point x="119" y="332"/>
			<point x="152" y="351"/>
			<point x="193" y="352" type="curve" smooth="yes"/>
			<point x="215" y="352"/>
			<point x="236" y="345"/>
			<point x="255" y="332" type="curve" smooth="yes"/>
			<point x="300" y="301"/>
			<point x="322" y="246"/>
			<point x="322" y="168" type="curve" smooth="yes"/>
			<point x="322" y="83"/>
			<point x="289" y="-24"/>
		</contour>
		<contour>
			<point x="188" y="25" type="curve" smooth="yes"/>
			<point x="201" y="25"/>
			<point x="213" y="28"/>
			<point x="224" y="35" type="curve" smooth="yes"/>
			<point x="257" y="56"/>
			<point x="274" y="100"/>
			<point x="274" y="169" type="curve" smooth="yes"/>
			<point x="274" y="217"/>
			<point x="266" y="306"/>
			<point x="189" y="306" type="curve" smooth="yes"/>
			<point x="168" y="306"/>
			<point x="149" y="298"/>
			<point x="133" y="281" type="curve" smooth="yes"/>
			<point x="105" y="251"/>
			<point x="93" y="206"/>
			<point x="98" y="147" type="curve"/>
			<point x="112" y="67"/>
			<point x="142" y="26"/>
		</contour>
	</outline>
	<note>
		tml_Seven
	</note>
</glyph>
<glyph name="tml_Eight" format="1">
	<unicode hex="0BEE"/>
	<advance width="870"/>
	<outline>
		<contour>
			<point x="770" y="172" type="line"/>
			<point x="670" y="172" type="line"/>
			<point x="645" y="44"/>
			<point x="547" y="-104"/>
			<point x="304" y="-104" type="curve" smooth="yes"/>
			<point x="172" y="-104"/>
			<point x="44" y="-51"/>
			<point x="44" y="77" type="curve" smooth="yes"/>
			<point x="44" y="95"/>
			<point x="47" y="112"/>
			<point x="53" y="129" type="curve" smooth="yes"/>
			<point x="76" y="190"/>
			<point x="134" y="221"/>
			<point x="227" y="221" type="curve" smooth="yes"/>
			<point x="623" y="221" type="line"/>
			<point x="624" y="236"/>
			<point x="625" y="248"/>
			<point x="625" y="257" type="curve" smooth="yes"/>
			<point x="625" y="357"/>
			<point x="590" y="525"/>
			<point x="418" y="525" type="curve" smooth="yes"/>
			<point x="388" y="525"/>
			<point x="360" y="519"/>
			<point x="335" y="508" type="curve"/>
			<point x="339" y="508" type="line" smooth="yes"/>
			<point x="362" y="508"/>
			<point x="383" y="502"/>
			<point x="404" y="491" type="curve" smooth="yes"/>
			<point x="445" y="468"/>
			<point x="465" y="431"/>
			<point x="465" y="380" type="curve" smooth="yes"/>
			<point x="465" y="355"/>
			<point x="459" y="331"/>
			<point x="448" y="310" type="curve" smooth="yes"/>
			<point x="425" y="269"/>
			<point x="388" y="249"/>
			<point x="337" y="249" type="curve" smooth="yes"/>
			<point x="314" y="249"/>
			<point x="292" y="254"/>
			<point x="272" y="264" type="curve" smooth="yes"/>
			<point x="228" y="287"/>
			<point x="206" y="327"/>
			<point x="206" y="385" type="curve" smooth="yes"/>
			<point x="206" y="468"/>
			<point x="264" y="573"/>
			<point x="419" y="573" type="curve" smooth="yes"/>
			<point x="564" y="573"/>
			<point x="678" y="460"/>
			<point x="678" y="257" type="curve" smooth="yes"/>
			<point x="678" y="242"/>
			<point x="678" y="230"/>
			<point x="677" y="221" type="curve"/>
			<point x="770" y="221" type="line"/>
			<point x="770" y="559" type="line"/>
			<point x="820" y="559" type="line"/>
			<point x="820" y="-85" type="line"/>
			<point x="770" y="-85" type="line"/>
		</contour>
		<contour>
			<point x="338" y="296" type="curve" smooth="yes"/>
			<point x="351" y="296"/>
			<point x="363" y="299"/>
			<point x="374" y="304" type="curve"/>
			<point x="403" y="319"/>
			<point x="417" y="345"/>
			<point x="417" y="383" type="curve" smooth="yes"/>
			<point x="417" y="398"/>
			<point x="413" y="412"/>
			<point x="406" y="425" type="curve"/>
			<point x="391" y="450"/>
			<point x="367" y="463"/>
			<point x="335" y="463" type="curve" smooth="yes"/>
			<point x="320" y="463"/>
			<point x="306" y="460"/>
			<point x="293" y="453" type="curve"/>
			<point x="268" y="438"/>
			<point x="255" y="415"/>
			<point x="255" y="384" type="curve" smooth="yes"/>
			<point x="255" y="369"/>
			<point x="258" y="355"/>
			<point x="263" y="342" type="curve" smooth="yes"/>
			<point x="276" y="311"/>
			<point x="301" y="296"/>
		</contour>
		<contour>
			<point x="300" y="-54" type="curve" smooth="yes"/>
			<point x="423" y="-54"/>
			<point x="571" y="-1"/>
			<point x="615" y="172" type="curve"/>
			<point x="234" y="172" type="line" smooth="yes"/>
			<point x="142" y="171"/>
			<point x="95" y="140"/>
			<point x="94" y="79" type="curve" smooth="yes"/>
			<point x="94" y="55"/>
			<point x="101" y="33"/>
			<point x="115" y="13" type="curve"/>
			<point x="149" y="-32"/>
			<point x="211" y="-54"/>
		</contour>
	</outline>
	<note>
		tml_Eight
	</note>
</glyph>
<glyph name="tml_Nine" format="1">
	<unicode hex="0BEF"/>
	<advance width="932"/>
	<outline>
		<contour>
			<point x="209" y="341" type="line"/>
			<point x="357" y="341" type="line"/>
			<point x="357" y="511" type="line"/>
			<point x="209" y="511" type="line"/>
		</contour>
		<contour>
			<point x="224" y="48" type="curve" smooth="yes"/>
			<point x="239" y="48"/>
			<point x="253" y="50"/>
			<point x="267" y="54" type="curve" smooth="yes"/>
			<point x="326" y="72"/>
			<point x="355" y="123"/>
			<point x="355" y="207" type="curve" smooth="yes"/>
			<point x="355" y="289" type="line"/>
			<point x="355" y="292" type="line"/>
			<point x="216" y="292" type="line" smooth="yes"/>
			<point x="196" y="292"/>
			<point x="178" y="289"/>
			<point x="161" y="283" type="curve" smooth="yes"/>
			<point x="116" y="266"/>
			<point x="93" y="231"/>
			<point x="93" y="176" type="curve" smooth="yes"/>
			<point x="93" y="151"/>
			<point x="99" y="129"/>
			<point x="110" y="109" type="curve" smooth="yes"/>
			<point x="133" y="68"/>
			<point x="171" y="48"/>
		</contour>
		<contour>
			<point x="495" y="341" type="line" smooth="yes"/>
			<point x="525" y="342"/>
			<point x="550" y="341"/>
			<point x="570" y="336" type="curve"/>
			<point x="602" y="352"/>
			<point x="640" y="360"/>
			<point x="683" y="360" type="curve" smooth="yes"/>
			<point x="780" y="360"/>
			<point x="890" y="302"/>
			<point x="890" y="165" type="curve" smooth="yes"/>
			<point x="890" y="146"/>
			<point x="888" y="126"/>
			<point x="883" y="107" type="curve" smooth="yes"/>
			<point x="871" y="55"/>
			<point x="847" y="15"/>
			<point x="812" y="-14" type="curve"/>
			<point x="776" y="20" type="line"/>
			<point x="778" y="22"/>
			<point x="780" y="24"/>
			<point x="782" y="27" type="curve"/>
			<point x="822" y="70"/>
			<point x="842" y="117"/>
			<point x="842" y="166" type="curve" smooth="yes"/>
			<point x="842" y="231"/>
			<point x="794" y="313"/>
			<point x="683" y="313" type="curve" smooth="yes"/>
			<point x="666" y="313"/>
			<point x="650" y="312"/>
			<point x="636" y="309" type="curve"/>
			<point x="684" y="275"/>
			<point x="708" y="220"/>
			<point x="709" y="144" type="curve" smooth="yes"/>
			<point x="709" y="115"/>
			<point x="704" y="90"/>
			<point x="694" y="69" type="curve" smooth="yes"/>
			<point x="673" y="22"/>
			<point x="635" y="-1"/>
			<point x="580" y="-1" type="curve" smooth="yes"/>
			<point x="557" y="-1"/>
			<point x="537" y="4"/>
			<point x="518" y="15" type="curve" smooth="yes"/>
			<point x="477" y="40"/>
			<point x="456" y="82"/>
			<point x="456" y="142" type="curve" smooth="yes"/>
			<point x="456" y="203"/>
			<point x="473" y="253"/>
			<point x="508" y="292" type="curve"/>
			<point x="406" y="292" type="line"/>
			<point x="406" y="207" type="line" smooth="yes"/>
			<point x="406" y="180"/>
			<point x="403" y="154"/>
			<point x="397" y="131" type="curve" smooth="yes"/>
			<point x="376" y="43"/>
			<point x="319" y="-1"/>
			<point x="227" y="-1" type="curve" smooth="yes"/>
			<point x="152" y="-1"/>
			<point x="47" y="32"/>
			<point x="44" y="175" type="curve" smooth="yes"/>
			<point x="43" y="199"/>
			<point x="47" y="222"/>
			<point x="54" y="243" type="curve" smooth="yes"/>
			<point x="71" y="294"/>
			<point x="107" y="326"/>
			<point x="161" y="337" type="curve"/>
			<point x="161" y="560" type="line"/>
			<point x="526" y="560" type="line"/>
			<point x="526" y="511" type="line"/>
			<point x="406" y="511" type="line"/>
			<point x="406" y="341" type="line"/>
		</contour>
		<contour>
			<point x="581" y="46" type="curve" smooth="yes"/>
			<point x="598" y="46"/>
			<point x="613" y="51"/>
			<point x="627" y="61" type="curve"/>
			<point x="650" y="80"/>
			<point x="662" y="107"/>
			<point x="662" y="143" type="curve" smooth="yes"/>
			<point x="662" y="156"/>
			<point x="661" y="168"/>
			<point x="659" y="180" type="curve" smooth="yes"/>
			<point x="649" y="234"/>
			<point x="621" y="269"/>
			<point x="574" y="285" type="curve"/>
			<point x="528" y="255"/>
			<point x="505" y="209"/>
			<point x="504" y="146" type="curve" smooth="yes"/>
			<point x="504" y="129"/>
			<point x="507" y="114"/>
			<point x="512" y="100" type="curve" smooth="yes"/>
			<point x="525" y="64"/>
			<point x="548" y="46"/>
		</contour>
	</outline>
	<note>
		tml_Nine
	</note>
</glyph>
<glyph name="tml_Ten" format="1">
	<unicode hex="0BF0"/>
	<advance width="751"/>
	<outline>
		<contour>
			<point x="398" y="292" type="line"/>
			<point x="398" y="275" type="line"/>
			<point x="403" y="139"/>
			<point x="413" y="37"/>
			<point x="518" y="40" type="curve" smooth="yes"/>
			<point x="531" y="40"/>
			<point x="544" y="42"/>
			<point x="555" y="46" type="curve"/>
			<point x="624" y="68"/>
			<point x="658" y="148"/>
			<point x="658" y="286" type="curve" smooth="yes"/>
			<point x="658" y="347"/>
			<point x="645" y="401"/>
			<point x="619" y="448" type="curve" smooth="yes"/>
			<point x="558" y="557"/>
			<point x="460" y="551"/>
			<point x="369" y="463" type="curve"/>
			<point x="337" y="499" type="line"/>
			<point x="338" y="500"/>
			<point x="340" y="502"/>
			<point x="342" y="504" type="curve" smooth="yes"/>
			<point x="388" y="551"/>
			<point x="439" y="575"/>
			<point x="496" y="575" type="curve" smooth="yes"/>
			<point x="546" y="575"/>
			<point x="588" y="559"/>
			<point x="623" y="527" type="curve" smooth="yes"/>
			<point x="680" y="472"/>
			<point x="709" y="384"/>
			<point x="709" y="261" type="curve" smooth="yes"/>
			<point x="709" y="198"/>
			<point x="699" y="145"/>
			<point x="679" y="100" type="curve" smooth="yes"/>
			<point x="612" y="-47"/>
			<point x="430" y="-39"/>
			<point x="379" y="80" type="curve"/>
			<point x="378" y="77"/>
			<point x="376" y="74"/>
			<point x="375" y="70" type="curve"/>
			<point x="351" y="12"/>
			<point x="301" y="-17"/>
			<point x="224" y="-17" type="curve" smooth="yes"/>
			<point x="192" y="-17"/>
			<point x="164" y="-10"/>
			<point x="139" y="5" type="curve" smooth="yes"/>
			<point x="74" y="43"/>
			<point x="42" y="119"/>
			<point x="42" y="234" type="curve" smooth="yes"/>
			<point x="42" y="266"/>
			<point x="45" y="298"/>
			<point x="52" y="330" type="curve" smooth="yes"/>
			<point x="63" y="388"/>
			<point x="91" y="461"/>
			<point x="135" y="550" type="curve"/>
			<point x="182" y="525" type="line"/>
			<point x="181" y="522"/>
			<point x="178" y="517"/>
			<point x="174" y="510" type="curve" smooth="yes"/>
			<point x="120" y="410"/>
			<point x="93" y="320"/>
			<point x="93" y="241" type="curve" smooth="yes"/>
			<point x="93" y="156"/>
			<point x="114" y="33"/>
			<point x="225" y="33" type="curve" smooth="yes"/>
			<point x="266" y="33"/>
			<point x="297" y="46"/>
			<point x="316" y="72" type="curve" smooth="yes"/>
			<point x="341" y="106"/>
			<point x="352" y="179"/>
			<point x="349" y="292" type="curve"/>
		</contour>
	</outline>
	<note>
		tml_Ten
	</note>
</glyph>
<glyph name="tml_Hundred" format="1">
	<unicode hex="0BF1"/>
	<advance width="711"/>
	<outline>
		<contour>
			<point x="179" y="578" type="curve" smooth="yes"/>
			<point x="230" y="578"/>
			<point x="268" y="559"/>
			<point x="293" y="521" type="curve"/>
			<point x="303" y="561" type="line"/>
			<point x="711" y="561" type="line"/>
			<point x="711" y="511" type="line"/>
			<point x="602" y="511" type="line"/>
			<point x="602" y="1" type="line"/>
			<point x="552" y="1" type="line"/>
			<point x="552" y="512" type="line"/>
			<point x="337" y="512" type="line"/>
			<point x="337" y="1" type="line"/>
			<point x="286" y="1" type="line"/>
			<point x="286" y="390" type="line" smooth="yes"/>
			<point x="286" y="409"/>
			<point x="285" y="425"/>
			<point x="282" y="440" type="curve"/>
			<point x="263" y="557"/>
			<point x="93" y="565"/>
			<point x="92" y="413" type="curve" smooth="yes"/>
			<point x="92" y="1" type="line"/>
			<point x="42" y="1" type="line"/>
			<point x="42" y="424" type="line" smooth="yes"/>
			<point x="42" y="449"/>
			<point x="46" y="471"/>
			<point x="53" y="492" type="curve" smooth="yes"/>
			<point x="73" y="549"/>
			<point x="115" y="578"/>
		</contour>
	</outline>
	<note>
		tml_Hundred
	</note>
</glyph>
<glyph name="tml_Thousand" format="1">
	<unicode hex="0BF2"/>
	<advance width="894"/>
	<outline>
		<contour>
			<point x="209" y="341" type="line"/>
			<point x="357" y="341" type="line"/>
			<point x="357" y="511" type="line"/>
			<point x="209" y="511" type="line"/>
		</contour>
		<contour>
			<point x="224" y="48" type="curve" smooth="yes"/>
			<point x="239" y="48"/>
			<point x="253" y="50"/>
			<point x="267" y="54" type="curve" smooth="yes"/>
			<point x="326" y="72"/>
			<point x="355" y="123"/>
			<point x="355" y="207" type="curve" smooth="yes"/>
			<point x="355" y="289" type="line"/>
			<point x="355" y="292" type="line"/>
			<point x="216" y="292" type="line" smooth="yes"/>
			<point x="196" y="292"/>
			<point x="178" y="289"/>
			<point x="161" y="283" type="curve" smooth="yes"/>
			<point x="116" y="266"/>
			<point x="93" y="231"/>
			<point x="93" y="176" type="curve" smooth="yes"/>
			<point x="93" y="151"/>
			<point x="99" y="129"/>
			<point x="110" y="109" type="curve" smooth="yes"/>
			<point x="133" y="68"/>
			<point x="171" y="48"/>
		</contour>
		<contour>
			<point x="671" y="-102" type="line" smooth="yes"/>
			<point x="734" y="-101"/>
			<point x="803" y="-63"/>
			<point x="803" y="25" type="curve" smooth="yes"/>
			<point x="803" y="28"/>
			<point x="803" y="32"/>
			<point x="803" y="36" type="curve"/>
			<point x="800" y="115"/>
			<point x="763" y="158"/>
			<point x="690" y="165" type="curve"/>
			<point x="690" y="96" type="line" smooth="yes"/>
			<point x="690" y="91"/>
			<point x="690" y="85"/>
			<point x="690" y="80" type="curve"/>
			<point x="685" y="-8"/>
			<point x="642" y="-52"/>
			<point x="559" y="-51" type="curve" smooth="yes"/>
			<point x="479" y="-51"/>
			<point x="417" y="3"/>
			<point x="417" y="80" type="curve" smooth="yes"/>
			<point x="417" y="101"/>
			<point x="422" y="121"/>
			<point x="432" y="141" type="curve" smooth="yes"/>
			<point x="456" y="190"/>
			<point x="496" y="214"/>
			<point x="551" y="214" type="curve" smooth="yes"/>
			<point x="641" y="214" type="line"/>
			<point x="641" y="292" type="line"/>
			<point x="406" y="292" type="line"/>
			<point x="406" y="207" type="line" smooth="yes"/>
			<point x="406" y="180"/>
			<point x="403" y="154"/>
			<point x="397" y="131" type="curve" smooth="yes"/>
			<point x="376" y="43"/>
			<point x="319" y="-1"/>
			<point x="227" y="-1" type="curve" smooth="yes"/>
			<point x="152" y="-1"/>
			<point x="47" y="32"/>
			<point x="44" y="175" type="curve" smooth="yes"/>
			<point x="43" y="199"/>
			<point x="47" y="222"/>
			<point x="54" y="243" type="curve" smooth="yes"/>
			<point x="71" y="294"/>
			<point x="107" y="326"/>
			<point x="161" y="337" type="curve"/>
			<point x="161" y="560" type="line"/>
			<point x="526" y="560" type="line"/>
			<point x="526" y="511" type="line"/>
			<point x="406" y="511" type="line"/>
			<point x="406" y="341" type="line"/>
			<point x="795" y="341" type="line"/>
			<point x="795" y="292" type="line"/>
			<point x="690" y="292" type="line"/>
			<point x="690" y="213" type="line"/>
			<point x="699" y="212"/>
			<point x="709" y="211"/>
			<point x="718" y="210" type="curve"/>
			<point x="807" y="194"/>
			<point x="852" y="132"/>
			<point x="852" y="24" type="curve" smooth="yes"/>
			<point x="852" y="-49"/>
			<point x="807" y="-150"/>
			<point x="676" y="-150" type="curve" smooth="yes"/>
			<point x="607" y="-150" type="line" smooth="yes"/>
			<point x="555" y="-151"/>
			<point x="544" y="-181"/>
			<point x="544" y="-237" type="curve"/>
			<point x="492" y="-237" type="line"/>
			<point x="492" y="-224"/>
			<point x="492" y="-214"/>
			<point x="493" y="-205" type="curve" smooth="yes"/>
			<point x="499" y="-138"/>
			<point x="539" y="-103"/>
			<point x="613" y="-102" type="curve" smooth="yes"/>
		</contour>
		<contour>
			<point x="559" y="-3" type="curve" smooth="yes"/>
			<point x="570" y="-3"/>
			<point x="579" y="-2"/>
			<point x="588" y="0" type="curve" smooth="yes"/>
			<point x="623" y="9"/>
			<point x="641" y="43"/>
			<point x="641" y="102" type="curve" smooth="yes"/>
			<point x="641" y="166" type="line"/>
			<point x="554" y="166" type="line" smooth="yes"/>
			<point x="541" y="166"/>
			<point x="529" y="164"/>
			<point x="518" y="160" type="curve" smooth="yes"/>
			<point x="483" y="148"/>
			<point x="466" y="121"/>
			<point x="466" y="80" type="curve" smooth="yes"/>
			<point x="466" y="66"/>
			<point x="469" y="53"/>
			<point x="476" y="41" type="curve" smooth="yes"/>
			<point x="493" y="12"/>
			<point x="520" y="-3"/>
		</contour>
	</outline>
	<note>
		tml_Thousand
	</note>
</glyph>
